<?xml version="1.0" encoding="UTF-8" standalone="no"?>
<!DOCTYPE svg PUBLIC "-//W3C//DTD SVG 1.1//EN"
 "http://www.w3.org/Graphics/SVG/1.1/DTD/svg11.dtd">
<!-- Generated by graphviz version 2.38.0 (20140413.2041)
 -->
<!-- Title: SslHandler Pages: 1 -->
<svg width="88pt" height="345pt"
 viewBox="0.00 0.00 88.19 345.00" xmlns="http://www.w3.org/2000/svg" xmlns:xlink="http://www.w3.org/1999/xlink">
<g id="graph0" class="graph" transform="scale(1 1) rotate(0) translate(4 341)">
<title>SslHandler</title>
<polygon fill="white" stroke="none" points="-4,4 -4,-341 84.1895,-341 84.1895,4 -4,4"/>
<!-- Node0 -->
<g id="node1" class="node"><title>Node0</title>
<polygon fill="#bfbfbf" stroke="black" points="0,-0.5 0,-84.5 80.1895,-84.5 80.1895,-0.5 0,-0.5"/>
<text text-anchor="middle" x="40.0947" y="-72.5" font-family="Helvetica,sans-Serif" font-size="10.00">SslHandler</text>
<polyline fill="none" stroke="black" points="0,-66.5 80.1895,-66.5 "/>
<text text-anchor="start" x="8" y="-54.5" font-family="Helvetica,sans-Serif" font-size="10.00">+ verification</text>
<text text-anchor="start" x="8" y="-44.5" font-family="Helvetica,sans-Serif" font-size="10.00">+ ca</text>
<text text-anchor="start" x="8" y="-34.5" font-family="Helvetica,sans-Serif" font-size="10.00">+ handler</text>
<polyline fill="none" stroke="black" points="0,-28.5 80.1895,-28.5 "/>
<text text-anchor="start" x="8" y="-16.5" font-family="Helvetica,sans-Serif" font-size="10.00">+ SslHandler()</text>
<text text-anchor="start" x="8" y="-6.5" font-family="Helvetica,sans-Serif" font-size="10.00">+ SslHandler()</text>
</g>
<!-- Node1 -->
<g id="node2" class="node"><title>Node1</title>
<g id="a_node2"><a xlink:href="../../da/d85/interfaceHandler.html" target="_top" xlink:title="消息处理器接口 ">
<polygon fill="white" stroke="black" points="6.9458,-121.5 6.9458,-205.5 73.2437,-205.5 73.2437,-121.5 6.9458,-121.5"/>
<text text-anchor="middle" x="40.0947" y="-193.5" font-family="Helvetica,sans-Serif" font-size="10.00">Handler</text>
<polyline fill="none" stroke="black" points="6.9458,-187.5 73.2437,-187.5 "/>
<text text-anchor="middle" x="40.0947" y="-175.5" font-family="Helvetica,sans-Serif" font-size="10.00"> </text>
<polyline fill="none" stroke="black" points="6.9458,-169.5 73.2437,-169.5 "/>
<text text-anchor="start" x="14.9458" y="-157.5" font-family="Helvetica,sans-Serif" font-size="10.00">+ Handler()</text>
<text text-anchor="start" x="14.9458" y="-147.5" font-family="Helvetica,sans-Serif" font-size="10.00">+ Handler()</text>
<text text-anchor="start" x="14.9458" y="-137.5" font-family="Helvetica,sans-Serif" font-size="10.00">+ Handler()</text>
<text text-anchor="start" x="14.9458" y="-127.5" font-family="Helvetica,sans-Serif" font-size="10.00">+ invoke()</text>
</a>
</g>
</g>
<!-- Node1&#45;&gt;Node0 -->
<g id="edge1" class="edge"><title>Node1&#45;&gt;Node0</title>
<path fill="none" stroke="midnightblue" d="M40.0947,-111.041C40.0947,-102.241 40.0947,-93.2021 40.0947,-84.7135"/>
<polygon fill="none" stroke="midnightblue" points="36.5948,-111.214 40.0947,-121.214 43.5948,-111.214 36.5948,-111.214"/>
</g>
<!-- Node2 -->
<g id="node3" class="node"><title>Node2</title>
<g id="a_node3"><a xlink:href="../../db/d38/interfaceobject.html" target="_top" xlink:title="基础对象，所有对象均继承于此 ">
<polygon fill="white" stroke="black" points="6.95068,-242.5 6.95068,-336.5 73.2388,-336.5 73.2388,-242.5 6.95068,-242.5"/>
<text text-anchor="middle" x="40.0947" y="-324.5" font-family="Helvetica,sans-Serif" font-size="10.00">object</text>
<polyline fill="none" stroke="black" points="6.95068,-318.5 73.2388,-318.5 "/>
<text text-anchor="middle" x="40.0947" y="-306.5" font-family="Helvetica,sans-Serif" font-size="10.00"> </text>
<polyline fill="none" stroke="black" points="6.95068,-300.5 73.2388,-300.5 "/>
<text text-anchor="start" x="14.9507" y="-288.5" font-family="Helvetica,sans-Serif" font-size="10.00">+ dispose()</text>
<text text-anchor="start" x="14.9507" y="-278.5" font-family="Helvetica,sans-Serif" font-size="10.00">+ equals()</text>
<text text-anchor="start" x="14.9507" y="-268.5" font-family="Helvetica,sans-Serif" font-size="10.00">+ toString()</text>
<text text-anchor="start" x="14.9507" y="-258.5" font-family="Helvetica,sans-Serif" font-size="10.00">+ toJSON()</text>
<text text-anchor="start" x="14.9507" y="-248.5" font-family="Helvetica,sans-Serif" font-size="10.00">+ valueOf()</text>
</a>
</g>
</g>
<!-- Node2&#45;&gt;Node1 -->
<g id="edge2" class="edge"><title>Node2&#45;&gt;Node1</title>
<path fill="none" stroke="midnightblue" d="M40.0947,-232.061C40.0947,-223.219 40.0947,-214.225 40.0947,-205.806"/>
<polygon fill="none" stroke="midnightblue" points="36.5948,-232.327 40.0947,-242.327 43.5948,-232.327 36.5948,-232.327"/>
</g>
</g>
</svg>
