<?xml version="1.0" encoding="UTF-8" standalone="no"?>
<!DOCTYPE svg PUBLIC "-//W3C//DTD SVG 1.1//EN"
 "http://www.w3.org/Graphics/SVG/1.1/DTD/svg11.dtd">
<!-- Generated by graphviz version 2.38.0 (20140413.2041)
 -->
<!-- Title: Stream Pages: 1 -->
<svg width="516pt" height="686pt"
 viewBox="0.00 0.00 515.76 686.00" xmlns="http://www.w3.org/2000/svg" xmlns:xlink="http://www.w3.org/1999/xlink">
<g id="graph0" class="graph" transform="scale(1 1) rotate(0) translate(4 682)">
<title>Stream</title>
<polygon fill="white" stroke="none" points="-4,4 -4,-682 511.761,-682 511.761,4 -4,4"/>
<!-- Node0 -->
<g id="node1" class="node"><title>Node0</title>
<polygon fill="#bfbfbf" stroke="black" points="259.002,-462.5 259.002,-546.5 321.965,-546.5 321.965,-462.5 259.002,-462.5"/>
<text text-anchor="middle" x="290.484" y="-534.5" font-family="Helvetica,sans-Serif" font-size="10.00">Stream</text>
<polyline fill="none" stroke="black" points="259.002,-528.5 321.965,-528.5 "/>
<text text-anchor="middle" x="290.484" y="-516.5" font-family="Helvetica,sans-Serif" font-size="10.00"> </text>
<polyline fill="none" stroke="black" points="259.002,-510.5 321.965,-510.5 "/>
<text text-anchor="start" x="267.002" y="-498.5" font-family="Helvetica,sans-Serif" font-size="10.00">+ read()</text>
<text text-anchor="start" x="267.002" y="-488.5" font-family="Helvetica,sans-Serif" font-size="10.00">+ write()</text>
<text text-anchor="start" x="267.002" y="-478.5" font-family="Helvetica,sans-Serif" font-size="10.00">+ close()</text>
<text text-anchor="start" x="267.002" y="-468.5" font-family="Helvetica,sans-Serif" font-size="10.00">+ copyTo()</text>
</g>
<!-- Node2 -->
<g id="node3" class="node"><title>Node2</title>
<g id="a_node3"><a xlink:href="../../d0/d37/interfaceBufferedStream.html" target="_top" xlink:title="缓存读取对象 ">
<polygon fill="white" stroke="black" points="30.9155,-256.5 30.9155,-390.5 132.052,-390.5 132.052,-256.5 30.9155,-256.5"/>
<text text-anchor="middle" x="81.4839" y="-378.5" font-family="Helvetica,sans-Serif" font-size="10.00">BufferedStream</text>
<polyline fill="none" stroke="black" points="30.9155,-372.5 132.052,-372.5 "/>
<text text-anchor="start" x="38.9155" y="-360.5" font-family="Helvetica,sans-Serif" font-size="10.00">+ stream</text>
<text text-anchor="start" x="38.9155" y="-350.5" font-family="Helvetica,sans-Serif" font-size="10.00">+ charset</text>
<text text-anchor="start" x="38.9155" y="-340.5" font-family="Helvetica,sans-Serif" font-size="10.00">+ EOL</text>
<polyline fill="none" stroke="black" points="30.9155,-334.5 132.052,-334.5 "/>
<text text-anchor="start" x="38.9155" y="-322.5" font-family="Helvetica,sans-Serif" font-size="10.00">+ BufferedStream()</text>
<text text-anchor="start" x="38.9155" y="-312.5" font-family="Helvetica,sans-Serif" font-size="10.00">+ readText()</text>
<text text-anchor="start" x="38.9155" y="-302.5" font-family="Helvetica,sans-Serif" font-size="10.00">+ readLine()</text>
<text text-anchor="start" x="38.9155" y="-292.5" font-family="Helvetica,sans-Serif" font-size="10.00">+ readLines()</text>
<text text-anchor="start" x="38.9155" y="-282.5" font-family="Helvetica,sans-Serif" font-size="10.00">+ readUntil()</text>
<text text-anchor="start" x="38.9155" y="-272.5" font-family="Helvetica,sans-Serif" font-size="10.00">+ writeText()</text>
<text text-anchor="start" x="38.9155" y="-262.5" font-family="Helvetica,sans-Serif" font-size="10.00">+ writeLine()</text>
</a>
</g>
</g>
<!-- Node0&#45;&gt;Node2 -->
<g id="edge2" class="edge"><title>Node0&#45;&gt;Node2</title>
<path fill="none" stroke="midnightblue" d="M250.399,-477.086C229.528,-462.756 203.954,-444.274 182.484,-426 165.352,-411.418 147.71,-394.461 132.06,-378.631"/>
<polygon fill="none" stroke="midnightblue" points="248.499,-480.027 258.735,-482.762 252.439,-474.241 248.499,-480.027"/>
</g>
<!-- Node4 -->
<g id="node5" class="node"><title>Node4</title>
<g id="a_node5"><a xlink:href="../../d6/d9c/interfaceSeekableStream.html" target="_top" xlink:title="可移动当前指针的流对象接口 ">
<polygon fill="white" stroke="black" points="191.519,-271.5 191.519,-375.5 281.449,-375.5 281.449,-271.5 191.519,-271.5"/>
<text text-anchor="middle" x="236.484" y="-363.5" font-family="Helvetica,sans-Serif" font-size="10.00">SeekableStream</text>
<polyline fill="none" stroke="black" points="191.519,-357.5 281.449,-357.5 "/>
<text text-anchor="middle" x="236.484" y="-345.5" font-family="Helvetica,sans-Serif" font-size="10.00"> </text>
<polyline fill="none" stroke="black" points="191.519,-339.5 281.449,-339.5 "/>
<text text-anchor="start" x="199.519" y="-327.5" font-family="Helvetica,sans-Serif" font-size="10.00">+ seek()</text>
<text text-anchor="start" x="199.519" y="-317.5" font-family="Helvetica,sans-Serif" font-size="10.00">+ tell()</text>
<text text-anchor="start" x="199.519" y="-307.5" font-family="Helvetica,sans-Serif" font-size="10.00">+ rewind()</text>
<text text-anchor="start" x="199.519" y="-297.5" font-family="Helvetica,sans-Serif" font-size="10.00">+ size()</text>
<text text-anchor="start" x="199.519" y="-287.5" font-family="Helvetica,sans-Serif" font-size="10.00">+ readAll()</text>
<text text-anchor="start" x="199.519" y="-277.5" font-family="Helvetica,sans-Serif" font-size="10.00">+ stat()</text>
</a>
</g>
</g>
<!-- Node0&#45;&gt;Node4 -->
<g id="edge4" class="edge"><title>Node0&#45;&gt;Node4</title>
<path fill="none" stroke="midnightblue" d="M275.173,-452.746C267.89,-428.606 259.202,-399.807 251.906,-375.62"/>
<polygon fill="none" stroke="midnightblue" points="271.856,-453.871 278.095,-462.434 278.558,-451.849 271.856,-453.871"/>
</g>
<!-- Node9 -->
<g id="node10" class="node"><title>Node9</title>
<g id="a_node10"><a xlink:href="../../dd/d94/interfaceSocket.html" target="_top" xlink:title="网络套接口对象 ">
<polygon fill="white" stroke="black" points="299.271,-221.5 299.271,-425.5 391.697,-425.5 391.697,-221.5 299.271,-221.5"/>
<text text-anchor="middle" x="345.484" y="-413.5" font-family="Helvetica,sans-Serif" font-size="10.00">Socket</text>
<polyline fill="none" stroke="black" points="299.271,-407.5 391.697,-407.5 "/>
<text text-anchor="start" x="307.271" y="-395.5" font-family="Helvetica,sans-Serif" font-size="10.00">+ family</text>
<text text-anchor="start" x="307.271" y="-385.5" font-family="Helvetica,sans-Serif" font-size="10.00">+ type</text>
<text text-anchor="start" x="307.271" y="-375.5" font-family="Helvetica,sans-Serif" font-size="10.00">+ remoteAddress</text>
<text text-anchor="start" x="307.271" y="-365.5" font-family="Helvetica,sans-Serif" font-size="10.00">+ remotePort</text>
<text text-anchor="start" x="307.271" y="-355.5" font-family="Helvetica,sans-Serif" font-size="10.00">+ localAddress</text>
<text text-anchor="start" x="307.271" y="-345.5" font-family="Helvetica,sans-Serif" font-size="10.00">+ localPort</text>
<text text-anchor="start" x="307.271" y="-335.5" font-family="Helvetica,sans-Serif" font-size="10.00">+ timeout</text>
<polyline fill="none" stroke="black" points="299.271,-329.5 391.697,-329.5 "/>
<text text-anchor="start" x="307.271" y="-317.5" font-family="Helvetica,sans-Serif" font-size="10.00">+ Socket()</text>
<text text-anchor="start" x="307.271" y="-307.5" font-family="Helvetica,sans-Serif" font-size="10.00">+ connect()</text>
<text text-anchor="start" x="307.271" y="-297.5" font-family="Helvetica,sans-Serif" font-size="10.00">+ bind()</text>
<text text-anchor="start" x="307.271" y="-287.5" font-family="Helvetica,sans-Serif" font-size="10.00">+ bind()</text>
<text text-anchor="start" x="307.271" y="-277.5" font-family="Helvetica,sans-Serif" font-size="10.00">+ listen()</text>
<text text-anchor="start" x="307.271" y="-267.5" font-family="Helvetica,sans-Serif" font-size="10.00">+ accept()</text>
<text text-anchor="start" x="307.271" y="-257.5" font-family="Helvetica,sans-Serif" font-size="10.00">+ recv()</text>
<text text-anchor="start" x="307.271" y="-247.5" font-family="Helvetica,sans-Serif" font-size="10.00">+ recvfrom()</text>
<text text-anchor="start" x="307.271" y="-237.5" font-family="Helvetica,sans-Serif" font-size="10.00">+ send()</text>
<text text-anchor="start" x="307.271" y="-227.5" font-family="Helvetica,sans-Serif" font-size="10.00">+ sendto()</text>
</a>
</g>
</g>
<!-- Node0&#45;&gt;Node9 -->
<g id="edge9" class="edge"><title>Node0&#45;&gt;Node9</title>
<path fill="none" stroke="midnightblue" d="M306.089,-452.712C308.71,-444.183 311.509,-435.072 314.361,-425.789"/>
<polygon fill="none" stroke="midnightblue" points="302.694,-451.847 303.102,-462.434 309.385,-453.903 302.694,-451.847"/>
</g>
<!-- Node10 -->
<g id="node11" class="node"><title>Node10</title>
<g id="a_node11"><a xlink:href="../../d0/d97/interfaceSslSocket.html" target="_top" xlink:title="ssl 网络套接口对象 ">
<polygon fill="white" stroke="black" points="409.613,-266.5 409.613,-380.5 485.354,-380.5 485.354,-266.5 409.613,-266.5"/>
<text text-anchor="middle" x="447.484" y="-368.5" font-family="Helvetica,sans-Serif" font-size="10.00">SslSocket</text>
<polyline fill="none" stroke="black" points="409.613,-362.5 485.354,-362.5 "/>
<text text-anchor="start" x="417.613" y="-350.5" font-family="Helvetica,sans-Serif" font-size="10.00">+ verification</text>
<text text-anchor="start" x="417.613" y="-340.5" font-family="Helvetica,sans-Serif" font-size="10.00">+ ca</text>
<text text-anchor="start" x="417.613" y="-330.5" font-family="Helvetica,sans-Serif" font-size="10.00">+ peerCert</text>
<text text-anchor="start" x="417.613" y="-320.5" font-family="Helvetica,sans-Serif" font-size="10.00">+ stream</text>
<polyline fill="none" stroke="black" points="409.613,-314.5 485.354,-314.5 "/>
<text text-anchor="start" x="417.613" y="-302.5" font-family="Helvetica,sans-Serif" font-size="10.00">+ SslSocket()</text>
<text text-anchor="start" x="417.613" y="-292.5" font-family="Helvetica,sans-Serif" font-size="10.00">+ SslSocket()</text>
<text text-anchor="start" x="417.613" y="-282.5" font-family="Helvetica,sans-Serif" font-size="10.00">+ connect()</text>
<text text-anchor="start" x="417.613" y="-272.5" font-family="Helvetica,sans-Serif" font-size="10.00">+ accept()</text>
</a>
</g>
</g>
<!-- Node0&#45;&gt;Node10 -->
<g id="edge10" class="edge"><title>Node0&#45;&gt;Node10</title>
<path fill="none" stroke="midnightblue" d="M331.112,-481.972C353.824,-468.337 381.326,-448.961 400.484,-426 411.618,-412.655 420.712,-396.235 427.831,-380.521"/>
<polygon fill="none" stroke="midnightblue" points="329.218,-479.025 322.352,-487.094 332.751,-485.068 329.218,-479.025"/>
</g>
<!-- Node1 -->
<g id="node2" class="node"><title>Node1</title>
<g id="a_node2"><a xlink:href="../../db/d38/interfaceobject.html" target="_top" xlink:title="基础对象，所有对象均继承于此 ">
<polygon fill="white" stroke="black" points="257.34,-583.5 257.34,-677.5 323.628,-677.5 323.628,-583.5 257.34,-583.5"/>
<text text-anchor="middle" x="290.484" y="-665.5" font-family="Helvetica,sans-Serif" font-size="10.00">object</text>
<polyline fill="none" stroke="black" points="257.34,-659.5 323.628,-659.5 "/>
<text text-anchor="middle" x="290.484" y="-647.5" font-family="Helvetica,sans-Serif" font-size="10.00"> </text>
<polyline fill="none" stroke="black" points="257.34,-641.5 323.628,-641.5 "/>
<text text-anchor="start" x="265.34" y="-629.5" font-family="Helvetica,sans-Serif" font-size="10.00">+ dispose()</text>
<text text-anchor="start" x="265.34" y="-619.5" font-family="Helvetica,sans-Serif" font-size="10.00">+ equals()</text>
<text text-anchor="start" x="265.34" y="-609.5" font-family="Helvetica,sans-Serif" font-size="10.00">+ toString()</text>
<text text-anchor="start" x="265.34" y="-599.5" font-family="Helvetica,sans-Serif" font-size="10.00">+ toJSON()</text>
<text text-anchor="start" x="265.34" y="-589.5" font-family="Helvetica,sans-Serif" font-size="10.00">+ valueOf()</text>
</a>
</g>
</g>
<!-- Node1&#45;&gt;Node0 -->
<g id="edge1" class="edge"><title>Node1&#45;&gt;Node0</title>
<path fill="none" stroke="midnightblue" d="M290.484,-573.061C290.484,-564.219 290.484,-555.225 290.484,-546.806"/>
<polygon fill="none" stroke="midnightblue" points="286.984,-573.327 290.484,-583.327 293.984,-573.327 286.984,-573.327"/>
</g>
<!-- Node3 -->
<g id="node4" class="node"><title>Node3</title>
<g id="a_node4"><a xlink:href="../../d8/d10/interfaceSubProcess.html" target="_top" xlink:title="子进程对象 ">
<polygon fill="white" stroke="black" points="0,-45.5 0,-139.5 82.9678,-139.5 82.9678,-45.5 0,-45.5"/>
<text text-anchor="middle" x="41.4839" y="-127.5" font-family="Helvetica,sans-Serif" font-size="10.00">SubProcess</text>
<polyline fill="none" stroke="black" points="0,-121.5 82.9678,-121.5 "/>
<text text-anchor="start" x="8" y="-109.5" font-family="Helvetica,sans-Serif" font-size="10.00">+ pid</text>
<text text-anchor="start" x="8" y="-99.5" font-family="Helvetica,sans-Serif" font-size="10.00">+ stdin</text>
<text text-anchor="start" x="8" y="-89.5" font-family="Helvetica,sans-Serif" font-size="10.00">+ stdout</text>
<polyline fill="none" stroke="black" points="0,-83.5 82.9678,-83.5 "/>
<text text-anchor="start" x="8" y="-71.5" font-family="Helvetica,sans-Serif" font-size="10.00">+ kill()</text>
<text text-anchor="start" x="8" y="-61.5" font-family="Helvetica,sans-Serif" font-size="10.00">+ wait()</text>
<text text-anchor="start" x="8" y="-51.5" font-family="Helvetica,sans-Serif" font-size="10.00">+ findWindow()</text>
</a>
</g>
</g>
<!-- Node2&#45;&gt;Node3 -->
<g id="edge3" class="edge"><title>Node2&#45;&gt;Node3</title>
<path fill="none" stroke="midnightblue" d="M68.1213,-245.999C61.9648,-210.753 54.8619,-170.089 49.5398,-139.62"/>
<polygon fill="none" stroke="midnightblue" points="64.7457,-247.015 69.9142,-256.264 71.6413,-245.811 64.7457,-247.015"/>
</g>
<!-- Node5 -->
<g id="node6" class="node"><title>Node5</title>
<g id="a_node6"><a xlink:href="../../d3/d3a/interfaceFile.html" target="_top" xlink:title="文件操作对象，用于二进制文件读写 ">
<polygon fill="white" stroke="black" points="100.778,-50.5 100.778,-134.5 168.189,-134.5 168.189,-50.5 100.778,-50.5"/>
<text text-anchor="middle" x="134.484" y="-122.5" font-family="Helvetica,sans-Serif" font-size="10.00">File</text>
<polyline fill="none" stroke="black" points="100.778,-116.5 168.189,-116.5 "/>
<text text-anchor="start" x="108.778" y="-104.5" font-family="Helvetica,sans-Serif" font-size="10.00">+ name</text>
<polyline fill="none" stroke="black" points="100.778,-98.5 168.189,-98.5 "/>
<text text-anchor="start" x="108.778" y="-86.5" font-family="Helvetica,sans-Serif" font-size="10.00">+ truncate()</text>
<text text-anchor="start" x="108.778" y="-76.5" font-family="Helvetica,sans-Serif" font-size="10.00">+ eof()</text>
<text text-anchor="start" x="108.778" y="-66.5" font-family="Helvetica,sans-Serif" font-size="10.00">+ flush()</text>
<text text-anchor="start" x="108.778" y="-56.5" font-family="Helvetica,sans-Serif" font-size="10.00">+ chmod()</text>
</a>
</g>
</g>
<!-- Node4&#45;&gt;Node5 -->
<g id="edge5" class="edge"><title>Node4&#45;&gt;Node5</title>
<path fill="none" stroke="midnightblue" d="M209.63,-262.21C191.698,-221.952 168.589,-170.069 152.76,-134.532"/>
<polygon fill="none" stroke="midnightblue" points="206.454,-263.682 213.72,-271.393 212.848,-260.834 206.454,-263.682"/>
</g>
<!-- Node6 -->
<g id="node7" class="node"><title>Node6</title>
<g id="a_node7"><a xlink:href="../../d2/d93/interfaceMemoryStream.html" target="_top" xlink:title="内存流对象 ">
<polygon fill="white" stroke="black" points="186.672,-50.5 186.672,-134.5 286.295,-134.5 286.295,-50.5 186.672,-50.5"/>
<text text-anchor="middle" x="236.484" y="-122.5" font-family="Helvetica,sans-Serif" font-size="10.00">MemoryStream</text>
<polyline fill="none" stroke="black" points="186.672,-116.5 286.295,-116.5 "/>
<text text-anchor="middle" x="236.484" y="-104.5" font-family="Helvetica,sans-Serif" font-size="10.00"> </text>
<polyline fill="none" stroke="black" points="186.672,-98.5 286.295,-98.5 "/>
<text text-anchor="start" x="194.672" y="-86.5" font-family="Helvetica,sans-Serif" font-size="10.00">+ MemoryStream()</text>
<text text-anchor="start" x="194.672" y="-76.5" font-family="Helvetica,sans-Serif" font-size="10.00">+ setTime()</text>
<text text-anchor="start" x="194.672" y="-66.5" font-family="Helvetica,sans-Serif" font-size="10.00">+ clone()</text>
<text text-anchor="start" x="194.672" y="-56.5" font-family="Helvetica,sans-Serif" font-size="10.00">+ clear()</text>
</a>
</g>
</g>
<!-- Node4&#45;&gt;Node6 -->
<g id="edge6" class="edge"><title>Node4&#45;&gt;Node6</title>
<path fill="none" stroke="midnightblue" d="M236.484,-261.191C236.484,-221.079 236.484,-169.77 236.484,-134.532"/>
<polygon fill="none" stroke="midnightblue" points="232.984,-261.393 236.484,-271.393 239.984,-261.393 232.984,-261.393"/>
</g>
<!-- Node7 -->
<g id="node8" class="node"><title>Node7</title>
<g id="a_node8"><a xlink:href="../../d6/deb/interfaceRadosStream.html" target="_top" xlink:title="rados流操作对象，用于读写rados存储 ">
<polygon fill="white" stroke="black" points="303.915,-45.5 303.915,-139.5 381.053,-139.5 381.053,-45.5 303.915,-45.5"/>
<text text-anchor="middle" x="342.484" y="-127.5" font-family="Helvetica,sans-Serif" font-size="10.00">RadosStream</text>
<polyline fill="none" stroke="black" points="303.915,-121.5 381.053,-121.5 "/>
<text text-anchor="start" x="311.915" y="-109.5" font-family="Helvetica,sans-Serif" font-size="10.00">+ key</text>
<polyline fill="none" stroke="black" points="303.915,-103.5 381.053,-103.5 "/>
<text text-anchor="start" x="311.915" y="-91.5" font-family="Helvetica,sans-Serif" font-size="10.00">+ radosStat()</text>
<text text-anchor="start" x="311.915" y="-81.5" font-family="Helvetica,sans-Serif" font-size="10.00">+ writeFull()</text>
<text text-anchor="start" x="311.915" y="-71.5" font-family="Helvetica,sans-Serif" font-size="10.00">+ append()</text>
<text text-anchor="start" x="311.915" y="-61.5" font-family="Helvetica,sans-Serif" font-size="10.00">+ truncate()</text>
<text text-anchor="start" x="311.915" y="-51.5" font-family="Helvetica,sans-Serif" font-size="10.00">+ flush()</text>
</a>
</g>
</g>
<!-- Node4&#45;&gt;Node7 -->
<g id="edge7" class="edge"><title>Node4&#45;&gt;Node7</title>
<path fill="none" stroke="midnightblue" d="M264.534,-261.902C282.249,-223.631 304.782,-174.951 321.06,-139.783"/>
<polygon fill="none" stroke="midnightblue" points="261.165,-260.848 260.14,-271.393 267.517,-263.788 261.165,-260.848"/>
</g>
<!-- Node8 -->
<g id="node9" class="node"><title>Node8</title>
<g id="a_node9"><a xlink:href="../../d1/dc3/interfaceRbdImage.html" target="_top" xlink:title="rbd image对象，用于读写rbd image ">
<polygon fill="white" stroke="black" points="399.207,-0.5 399.207,-184.5 507.761,-184.5 507.761,-0.5 399.207,-0.5"/>
<text text-anchor="middle" x="453.484" y="-172.5" font-family="Helvetica,sans-Serif" font-size="10.00">RbdImage</text>
<polyline fill="none" stroke="black" points="399.207,-166.5 507.761,-166.5 "/>
<text text-anchor="start" x="407.207" y="-154.5" font-family="Helvetica,sans-Serif" font-size="10.00">+ stripe_unit</text>
<text text-anchor="start" x="407.207" y="-144.5" font-family="Helvetica,sans-Serif" font-size="10.00">+ stripe_count</text>
<text text-anchor="start" x="407.207" y="-134.5" font-family="Helvetica,sans-Serif" font-size="10.00">+ features</text>
<text text-anchor="start" x="407.207" y="-124.5" font-family="Helvetica,sans-Serif" font-size="10.00">+ create_timestamp</text>
<text text-anchor="start" x="407.207" y="-114.5" font-family="Helvetica,sans-Serif" font-size="10.00">+ block_name_prefix</text>
<polyline fill="none" stroke="black" points="399.207,-108.5 507.761,-108.5 "/>
<text text-anchor="start" x="407.207" y="-96.5" font-family="Helvetica,sans-Serif" font-size="10.00">+ resize()</text>
<text text-anchor="start" x="407.207" y="-86.5" font-family="Helvetica,sans-Serif" font-size="10.00">+ flush()</text>
<text text-anchor="start" x="407.207" y="-76.5" font-family="Helvetica,sans-Serif" font-size="10.00">+ createSnap()</text>
<text text-anchor="start" x="407.207" y="-66.5" font-family="Helvetica,sans-Serif" font-size="10.00">+ removeSnap()</text>
<text text-anchor="start" x="407.207" y="-56.5" font-family="Helvetica,sans-Serif" font-size="10.00">+ rollbackSnap()</text>
<text text-anchor="start" x="407.207" y="-46.5" font-family="Helvetica,sans-Serif" font-size="10.00">+ listSnaps()</text>
<text text-anchor="start" x="407.207" y="-36.5" font-family="Helvetica,sans-Serif" font-size="10.00">+ protectSnap()</text>
<text text-anchor="start" x="407.207" y="-26.5" font-family="Helvetica,sans-Serif" font-size="10.00">+ unprotectSnap()</text>
<text text-anchor="start" x="407.207" y="-16.5" font-family="Helvetica,sans-Serif" font-size="10.00">+ setSnap()</text>
<text text-anchor="start" x="407.207" y="-6.5" font-family="Helvetica,sans-Serif" font-size="10.00">+ isSnapProtected()</text>
</a>
</g>
</g>
<!-- Node4&#45;&gt;Node8 -->
<g id="edge8" class="edge"><title>Node4&#45;&gt;Node8</title>
<path fill="none" stroke="midnightblue" d="M259.327,-262.163C267.325,-247.132 277.614,-232.146 290.484,-221 326.192,-190.077 353.071,-213.838 390.484,-185 393.386,-182.763 396.205,-180.354 398.936,-177.811"/>
<polygon fill="none" stroke="midnightblue" points="256.001,-260.986 254.64,-271.493 262.256,-264.128 256.001,-260.986"/>
</g>
</g>
</svg>
