<?xml version="1.0" encoding="UTF-8" standalone="no"?>
<!DOCTYPE svg PUBLIC "-//W3C//DTD SVG 1.1//EN"
 "http://www.w3.org/Graphics/SVG/1.1/DTD/svg11.dtd">
<!-- Generated by graphviz version 2.38.0 (20140413.2041)
 -->
<!-- Title: Stream Pages: 1 -->
<svg width="472pt" height="596pt"
 viewBox="0.00 0.00 472.35 596.00" xmlns="http://www.w3.org/2000/svg" xmlns:xlink="http://www.w3.org/1999/xlink">
<g id="graph0" class="graph" transform="scale(1 1) rotate(0) translate(4 592)">
<title>Stream</title>
<polygon fill="white" stroke="none" points="-4,4 -4,-592 468.354,-592 468.354,4 -4,4"/>
<!-- Node0 -->
<g id="node1" class="node"><title>Node0</title>
<polygon fill="#bfbfbf" stroke="black" points="238.002,-372.5 238.002,-456.5 300.965,-456.5 300.965,-372.5 238.002,-372.5"/>
<text text-anchor="middle" x="269.484" y="-444.5" font-family="Helvetica,sans-Serif" font-size="10.00">Stream</text>
<polyline fill="none" stroke="black" points="238.002,-438.5 300.965,-438.5 "/>
<text text-anchor="middle" x="269.484" y="-426.5" font-family="Helvetica,sans-Serif" font-size="10.00"> </text>
<polyline fill="none" stroke="black" points="238.002,-420.5 300.965,-420.5 "/>
<text text-anchor="start" x="246.002" y="-408.5" font-family="Helvetica,sans-Serif" font-size="10.00">+ read()</text>
<text text-anchor="start" x="246.002" y="-398.5" font-family="Helvetica,sans-Serif" font-size="10.00">+ write()</text>
<text text-anchor="start" x="246.002" y="-388.5" font-family="Helvetica,sans-Serif" font-size="10.00">+ close()</text>
<text text-anchor="start" x="246.002" y="-378.5" font-family="Helvetica,sans-Serif" font-size="10.00">+ copyTo()</text>
</g>
<!-- Node2 -->
<g id="node3" class="node"><title>Node2</title>
<g id="a_node3"><a xlink:href="../../d0/d37/interfaceBufferedStream.html" target="_top" xlink:title="缓存读取对象 ">
<polygon fill="white" stroke="black" points="10.9155,-166.5 10.9155,-300.5 112.052,-300.5 112.052,-166.5 10.9155,-166.5"/>
<text text-anchor="middle" x="61.4839" y="-288.5" font-family="Helvetica,sans-Serif" font-size="10.00">BufferedStream</text>
<polyline fill="none" stroke="black" points="10.9155,-282.5 112.052,-282.5 "/>
<text text-anchor="start" x="18.9155" y="-270.5" font-family="Helvetica,sans-Serif" font-size="10.00">+ stream</text>
<text text-anchor="start" x="18.9155" y="-260.5" font-family="Helvetica,sans-Serif" font-size="10.00">+ charset</text>
<text text-anchor="start" x="18.9155" y="-250.5" font-family="Helvetica,sans-Serif" font-size="10.00">+ EOL</text>
<polyline fill="none" stroke="black" points="10.9155,-244.5 112.052,-244.5 "/>
<text text-anchor="start" x="18.9155" y="-232.5" font-family="Helvetica,sans-Serif" font-size="10.00">+ BufferedStream()</text>
<text text-anchor="start" x="18.9155" y="-222.5" font-family="Helvetica,sans-Serif" font-size="10.00">+ readText()</text>
<text text-anchor="start" x="18.9155" y="-212.5" font-family="Helvetica,sans-Serif" font-size="10.00">+ readLine()</text>
<text text-anchor="start" x="18.9155" y="-202.5" font-family="Helvetica,sans-Serif" font-size="10.00">+ readLines()</text>
<text text-anchor="start" x="18.9155" y="-192.5" font-family="Helvetica,sans-Serif" font-size="10.00">+ readUntil()</text>
<text text-anchor="start" x="18.9155" y="-182.5" font-family="Helvetica,sans-Serif" font-size="10.00">+ writeText()</text>
<text text-anchor="start" x="18.9155" y="-172.5" font-family="Helvetica,sans-Serif" font-size="10.00">+ writeLine()</text>
</a>
</g>
</g>
<!-- Node0&#45;&gt;Node2 -->
<g id="edge2" class="edge"><title>Node0&#45;&gt;Node2</title>
<path fill="none" stroke="midnightblue" d="M229.362,-387.13C208.48,-372.812 182.908,-354.327 161.484,-336 144.754,-321.689 127.57,-305.06 112.27,-289.456"/>
<polygon fill="none" stroke="midnightblue" points="227.465,-390.073 237.703,-392.8 231.4,-384.283 227.465,-390.073"/>
</g>
<!-- Node4 -->
<g id="node5" class="node"><title>Node4</title>
<g id="a_node5"><a xlink:href="../../d6/d9c/interfaceSeekableStream.html" target="_top" xlink:title="可移动当前指针的流对象接口 ">
<polygon fill="white" stroke="black" points="170.519,-181.5 170.519,-285.5 260.449,-285.5 260.449,-181.5 170.519,-181.5"/>
<text text-anchor="middle" x="215.484" y="-273.5" font-family="Helvetica,sans-Serif" font-size="10.00">SeekableStream</text>
<polyline fill="none" stroke="black" points="170.519,-267.5 260.449,-267.5 "/>
<text text-anchor="middle" x="215.484" y="-255.5" font-family="Helvetica,sans-Serif" font-size="10.00"> </text>
<polyline fill="none" stroke="black" points="170.519,-249.5 260.449,-249.5 "/>
<text text-anchor="start" x="178.519" y="-237.5" font-family="Helvetica,sans-Serif" font-size="10.00">+ seek()</text>
<text text-anchor="start" x="178.519" y="-227.5" font-family="Helvetica,sans-Serif" font-size="10.00">+ tell()</text>
<text text-anchor="start" x="178.519" y="-217.5" font-family="Helvetica,sans-Serif" font-size="10.00">+ rewind()</text>
<text text-anchor="start" x="178.519" y="-207.5" font-family="Helvetica,sans-Serif" font-size="10.00">+ size()</text>
<text text-anchor="start" x="178.519" y="-197.5" font-family="Helvetica,sans-Serif" font-size="10.00">+ readAll()</text>
<text text-anchor="start" x="178.519" y="-187.5" font-family="Helvetica,sans-Serif" font-size="10.00">+ stat()</text>
</a>
</g>
</g>
<!-- Node0&#45;&gt;Node4 -->
<g id="edge4" class="edge"><title>Node0&#45;&gt;Node4</title>
<path fill="none" stroke="midnightblue" d="M254.173,-362.746C246.89,-338.606 238.202,-309.807 230.906,-285.62"/>
<polygon fill="none" stroke="midnightblue" points="250.856,-363.871 257.095,-372.434 257.558,-361.849 250.856,-363.871"/>
</g>
<!-- Node8 -->
<g id="node9" class="node"><title>Node8</title>
<g id="a_node9"><a xlink:href="../../dd/d94/interfaceSocket.html" target="_top" xlink:title="网络套接口对象 ">
<polygon fill="white" stroke="black" points="278.271,-131.5 278.271,-335.5 370.697,-335.5 370.697,-131.5 278.271,-131.5"/>
<text text-anchor="middle" x="324.484" y="-323.5" font-family="Helvetica,sans-Serif" font-size="10.00">Socket</text>
<polyline fill="none" stroke="black" points="278.271,-317.5 370.697,-317.5 "/>
<text text-anchor="start" x="286.271" y="-305.5" font-family="Helvetica,sans-Serif" font-size="10.00">+ family</text>
<text text-anchor="start" x="286.271" y="-295.5" font-family="Helvetica,sans-Serif" font-size="10.00">+ type</text>
<text text-anchor="start" x="286.271" y="-285.5" font-family="Helvetica,sans-Serif" font-size="10.00">+ remoteAddress</text>
<text text-anchor="start" x="286.271" y="-275.5" font-family="Helvetica,sans-Serif" font-size="10.00">+ remotePort</text>
<text text-anchor="start" x="286.271" y="-265.5" font-family="Helvetica,sans-Serif" font-size="10.00">+ localAddress</text>
<text text-anchor="start" x="286.271" y="-255.5" font-family="Helvetica,sans-Serif" font-size="10.00">+ localPort</text>
<text text-anchor="start" x="286.271" y="-245.5" font-family="Helvetica,sans-Serif" font-size="10.00">+ timeout</text>
<polyline fill="none" stroke="black" points="278.271,-239.5 370.697,-239.5 "/>
<text text-anchor="start" x="286.271" y="-227.5" font-family="Helvetica,sans-Serif" font-size="10.00">+ Socket()</text>
<text text-anchor="start" x="286.271" y="-217.5" font-family="Helvetica,sans-Serif" font-size="10.00">+ connect()</text>
<text text-anchor="start" x="286.271" y="-207.5" font-family="Helvetica,sans-Serif" font-size="10.00">+ bind()</text>
<text text-anchor="start" x="286.271" y="-197.5" font-family="Helvetica,sans-Serif" font-size="10.00">+ bind()</text>
<text text-anchor="start" x="286.271" y="-187.5" font-family="Helvetica,sans-Serif" font-size="10.00">+ listen()</text>
<text text-anchor="start" x="286.271" y="-177.5" font-family="Helvetica,sans-Serif" font-size="10.00">+ accept()</text>
<text text-anchor="start" x="286.271" y="-167.5" font-family="Helvetica,sans-Serif" font-size="10.00">+ recv()</text>
<text text-anchor="start" x="286.271" y="-157.5" font-family="Helvetica,sans-Serif" font-size="10.00">+ recvfrom()</text>
<text text-anchor="start" x="286.271" y="-147.5" font-family="Helvetica,sans-Serif" font-size="10.00">+ send()</text>
<text text-anchor="start" x="286.271" y="-137.5" font-family="Helvetica,sans-Serif" font-size="10.00">+ sendto()</text>
</a>
</g>
</g>
<!-- Node0&#45;&gt;Node8 -->
<g id="edge8" class="edge"><title>Node0&#45;&gt;Node8</title>
<path fill="none" stroke="midnightblue" d="M285.089,-362.712C287.71,-354.183 290.509,-345.072 293.361,-335.789"/>
<polygon fill="none" stroke="midnightblue" points="281.694,-361.847 282.102,-372.434 288.385,-363.903 281.694,-361.847"/>
</g>
<!-- Node9 -->
<g id="node10" class="node"><title>Node9</title>
<g id="a_node10"><a xlink:href="../../d0/d97/interfaceSslSocket.html" target="_top" xlink:title="ssl 网络套接口对象 ">
<polygon fill="white" stroke="black" points="388.613,-176.5 388.613,-290.5 464.354,-290.5 464.354,-176.5 388.613,-176.5"/>
<text text-anchor="middle" x="426.484" y="-278.5" font-family="Helvetica,sans-Serif" font-size="10.00">SslSocket</text>
<polyline fill="none" stroke="black" points="388.613,-272.5 464.354,-272.5 "/>
<text text-anchor="start" x="396.613" y="-260.5" font-family="Helvetica,sans-Serif" font-size="10.00">+ verification</text>
<text text-anchor="start" x="396.613" y="-250.5" font-family="Helvetica,sans-Serif" font-size="10.00">+ ca</text>
<text text-anchor="start" x="396.613" y="-240.5" font-family="Helvetica,sans-Serif" font-size="10.00">+ peerCert</text>
<text text-anchor="start" x="396.613" y="-230.5" font-family="Helvetica,sans-Serif" font-size="10.00">+ stream</text>
<polyline fill="none" stroke="black" points="388.613,-224.5 464.354,-224.5 "/>
<text text-anchor="start" x="396.613" y="-212.5" font-family="Helvetica,sans-Serif" font-size="10.00">+ SslSocket()</text>
<text text-anchor="start" x="396.613" y="-202.5" font-family="Helvetica,sans-Serif" font-size="10.00">+ SslSocket()</text>
<text text-anchor="start" x="396.613" y="-192.5" font-family="Helvetica,sans-Serif" font-size="10.00">+ connect()</text>
<text text-anchor="start" x="396.613" y="-182.5" font-family="Helvetica,sans-Serif" font-size="10.00">+ accept()</text>
</a>
</g>
</g>
<!-- Node0&#45;&gt;Node9 -->
<g id="edge9" class="edge"><title>Node0&#45;&gt;Node9</title>
<path fill="none" stroke="midnightblue" d="M310.112,-391.972C332.824,-378.337 360.326,-358.961 379.484,-336 390.618,-322.655 399.712,-306.235 406.831,-290.521"/>
<polygon fill="none" stroke="midnightblue" points="308.218,-389.025 301.352,-397.094 311.751,-395.068 308.218,-389.025"/>
</g>
<!-- Node1 -->
<g id="node2" class="node"><title>Node1</title>
<g id="a_node2"><a xlink:href="../../db/d38/interfaceobject.html" target="_top" xlink:title="基础对象，所有对象均继承于此 ">
<polygon fill="white" stroke="black" points="236.34,-493.5 236.34,-587.5 302.628,-587.5 302.628,-493.5 236.34,-493.5"/>
<text text-anchor="middle" x="269.484" y="-575.5" font-family="Helvetica,sans-Serif" font-size="10.00">object</text>
<polyline fill="none" stroke="black" points="236.34,-569.5 302.628,-569.5 "/>
<text text-anchor="middle" x="269.484" y="-557.5" font-family="Helvetica,sans-Serif" font-size="10.00"> </text>
<polyline fill="none" stroke="black" points="236.34,-551.5 302.628,-551.5 "/>
<text text-anchor="start" x="244.34" y="-539.5" font-family="Helvetica,sans-Serif" font-size="10.00">+ dispose()</text>
<text text-anchor="start" x="244.34" y="-529.5" font-family="Helvetica,sans-Serif" font-size="10.00">+ equals()</text>
<text text-anchor="start" x="244.34" y="-519.5" font-family="Helvetica,sans-Serif" font-size="10.00">+ toString()</text>
<text text-anchor="start" x="244.34" y="-509.5" font-family="Helvetica,sans-Serif" font-size="10.00">+ toJSON()</text>
<text text-anchor="start" x="244.34" y="-499.5" font-family="Helvetica,sans-Serif" font-size="10.00">+ valueOf()</text>
</a>
</g>
</g>
<!-- Node1&#45;&gt;Node0 -->
<g id="edge1" class="edge"><title>Node1&#45;&gt;Node0</title>
<path fill="none" stroke="midnightblue" d="M269.484,-483.061C269.484,-474.219 269.484,-465.225 269.484,-456.806"/>
<polygon fill="none" stroke="midnightblue" points="265.984,-483.327 269.484,-493.327 272.984,-483.327 265.984,-483.327"/>
</g>
<!-- Node3 -->
<g id="node4" class="node"><title>Node3</title>
<g id="a_node4"><a xlink:href="../../d8/d10/interfaceSubProcess.html" target="_top" xlink:title="子进程对象 ">
<polygon fill="white" stroke="black" points="0,-0.5 0,-94.5 82.9678,-94.5 82.9678,-0.5 0,-0.5"/>
<text text-anchor="middle" x="41.4839" y="-82.5" font-family="Helvetica,sans-Serif" font-size="10.00">SubProcess</text>
<polyline fill="none" stroke="black" points="0,-76.5 82.9678,-76.5 "/>
<text text-anchor="start" x="8" y="-64.5" font-family="Helvetica,sans-Serif" font-size="10.00">+ pid</text>
<text text-anchor="start" x="8" y="-54.5" font-family="Helvetica,sans-Serif" font-size="10.00">+ stdin</text>
<text text-anchor="start" x="8" y="-44.5" font-family="Helvetica,sans-Serif" font-size="10.00">+ stdout</text>
<polyline fill="none" stroke="black" points="0,-38.5 82.9678,-38.5 "/>
<text text-anchor="start" x="8" y="-26.5" font-family="Helvetica,sans-Serif" font-size="10.00">+ kill()</text>
<text text-anchor="start" x="8" y="-16.5" font-family="Helvetica,sans-Serif" font-size="10.00">+ wait()</text>
<text text-anchor="start" x="8" y="-6.5" font-family="Helvetica,sans-Serif" font-size="10.00">+ findWindow()</text>
</a>
</g>
</g>
<!-- Node2&#45;&gt;Node3 -->
<g id="edge3" class="edge"><title>Node2&#45;&gt;Node3</title>
<path fill="none" stroke="midnightblue" d="M53.1863,-156.162C50.9103,-135.223 48.5132,-113.169 46.4852,-94.5123"/>
<polygon fill="none" stroke="midnightblue" points="49.7315,-156.769 54.2917,-166.332 56.6905,-156.012 49.7315,-156.769"/>
</g>
<!-- Node5 -->
<g id="node6" class="node"><title>Node5</title>
<g id="a_node6"><a xlink:href="../../d3/d3a/interfaceFile.html" target="_top" xlink:title="文件操作对象，用于二进制文件读写 ">
<polygon fill="white" stroke="black" points="100.778,-5.5 100.778,-89.5 168.189,-89.5 168.189,-5.5 100.778,-5.5"/>
<text text-anchor="middle" x="134.484" y="-77.5" font-family="Helvetica,sans-Serif" font-size="10.00">File</text>
<polyline fill="none" stroke="black" points="100.778,-71.5 168.189,-71.5 "/>
<text text-anchor="start" x="108.778" y="-59.5" font-family="Helvetica,sans-Serif" font-size="10.00">+ name</text>
<polyline fill="none" stroke="black" points="100.778,-53.5 168.189,-53.5 "/>
<text text-anchor="start" x="108.778" y="-41.5" font-family="Helvetica,sans-Serif" font-size="10.00">+ truncate()</text>
<text text-anchor="start" x="108.778" y="-31.5" font-family="Helvetica,sans-Serif" font-size="10.00">+ eof()</text>
<text text-anchor="start" x="108.778" y="-21.5" font-family="Helvetica,sans-Serif" font-size="10.00">+ flush()</text>
<text text-anchor="start" x="108.778" y="-11.5" font-family="Helvetica,sans-Serif" font-size="10.00">+ chmod()</text>
</a>
</g>
</g>
<!-- Node4&#45;&gt;Node5 -->
<g id="edge5" class="edge"><title>Node4&#45;&gt;Node5</title>
<path fill="none" stroke="midnightblue" d="M188.801,-171.887C176.919,-144.896 163.235,-113.81 152.574,-89.5928"/>
<polygon fill="none" stroke="midnightblue" points="185.688,-173.504 192.921,-181.246 192.095,-170.683 185.688,-173.504"/>
</g>
<!-- Node6 -->
<g id="node7" class="node"><title>Node6</title>
<g id="a_node7"><a xlink:href="../../d2/d93/interfaceMemoryStream.html" target="_top" xlink:title="内存流对象 ">
<polygon fill="white" stroke="black" points="186.672,-5.5 186.672,-89.5 286.295,-89.5 286.295,-5.5 186.672,-5.5"/>
<text text-anchor="middle" x="236.484" y="-77.5" font-family="Helvetica,sans-Serif" font-size="10.00">MemoryStream</text>
<polyline fill="none" stroke="black" points="186.672,-71.5 286.295,-71.5 "/>
<text text-anchor="middle" x="236.484" y="-59.5" font-family="Helvetica,sans-Serif" font-size="10.00"> </text>
<polyline fill="none" stroke="black" points="186.672,-53.5 286.295,-53.5 "/>
<text text-anchor="start" x="194.672" y="-41.5" font-family="Helvetica,sans-Serif" font-size="10.00">+ MemoryStream()</text>
<text text-anchor="start" x="194.672" y="-31.5" font-family="Helvetica,sans-Serif" font-size="10.00">+ setTime()</text>
<text text-anchor="start" x="194.672" y="-21.5" font-family="Helvetica,sans-Serif" font-size="10.00">+ clone()</text>
<text text-anchor="start" x="194.672" y="-11.5" font-family="Helvetica,sans-Serif" font-size="10.00">+ clear()</text>
</a>
</g>
</g>
<!-- Node4&#45;&gt;Node6 -->
<g id="edge6" class="edge"><title>Node4&#45;&gt;Node6</title>
<path fill="none" stroke="midnightblue" d="M222.482,-171.179C225.544,-144.354 229.054,-113.599 231.794,-89.5928"/>
<polygon fill="none" stroke="midnightblue" points="218.99,-170.913 221.334,-181.246 225.945,-171.707 218.99,-170.913"/>
</g>
<!-- Node7 -->
<g id="node8" class="node"><title>Node7</title>
<g id="a_node8"><a xlink:href="../../d6/deb/interfaceRadosStream.html" target="_top" xlink:title="rados流操作对象，用于读写rados存储 ">
<polygon fill="white" stroke="black" points="303.915,-0.5 303.915,-94.5 381.053,-94.5 381.053,-0.5 303.915,-0.5"/>
<text text-anchor="middle" x="342.484" y="-82.5" font-family="Helvetica,sans-Serif" font-size="10.00">RadosStream</text>
<polyline fill="none" stroke="black" points="303.915,-76.5 381.053,-76.5 "/>
<text text-anchor="start" x="311.915" y="-64.5" font-family="Helvetica,sans-Serif" font-size="10.00">+ key</text>
<polyline fill="none" stroke="black" points="303.915,-58.5 381.053,-58.5 "/>
<text text-anchor="start" x="311.915" y="-46.5" font-family="Helvetica,sans-Serif" font-size="10.00">+ radosStat()</text>
<text text-anchor="start" x="311.915" y="-36.5" font-family="Helvetica,sans-Serif" font-size="10.00">+ writeFull()</text>
<text text-anchor="start" x="311.915" y="-26.5" font-family="Helvetica,sans-Serif" font-size="10.00">+ append()</text>
<text text-anchor="start" x="311.915" y="-16.5" font-family="Helvetica,sans-Serif" font-size="10.00">+ truncate()</text>
<text text-anchor="start" x="311.915" y="-6.5" font-family="Helvetica,sans-Serif" font-size="10.00">+ flush()</text>
</a>
</g>
</g>
<!-- Node4&#45;&gt;Node7 -->
<g id="edge7" class="edge"><title>Node4&#45;&gt;Node7</title>
<path fill="none" stroke="midnightblue" d="M244.528,-172.259C252.053,-158.336 260.569,-143.847 269.484,-131 279.624,-116.388 292.031,-101.504 303.719,-88.4751"/>
<polygon fill="none" stroke="midnightblue" points="241.324,-170.829 239.731,-181.304 247.508,-174.109 241.324,-170.829"/>
</g>
</g>
</svg>
