<?xml version="1.0" encoding="UTF-8" standalone="no"?>
<!DOCTYPE svg PUBLIC "-//W3C//DTD SVG 1.1//EN"
 "http://www.w3.org/Graphics/SVG/1.1/DTD/svg11.dtd">
<!-- Generated by graphviz version 2.38.0 (20140413.2041)
 -->
<!-- Title: WebSocketHandler Pages: 1 -->
<svg width="125pt" height="416pt"
 viewBox="0.00 0.00 125.25 416.00" xmlns="http://www.w3.org/2000/svg" xmlns:xlink="http://www.w3.org/1999/xlink">
<g id="graph0" class="graph" transform="scale(1 1) rotate(0) translate(4 412)">
<title>WebSocketHandler</title>
<polygon fill="white" stroke="none" points="-4,4 -4,-412 121.255,-412 121.255,4 -4,4"/>
<!-- Node0 -->
<g id="node1" class="node"><title>Node0</title>
<polygon fill="#bfbfbf" stroke="black" points="0,-0.5 0,-54.5 117.255,-54.5 117.255,-0.5 0,-0.5"/>
<text text-anchor="middle" x="58.6274" y="-42.5" font-family="Helvetica,sans-Serif" font-size="10.00">WebSocketHandler</text>
<polyline fill="none" stroke="black" points="0,-36.5 117.255,-36.5 "/>
<text text-anchor="start" x="8" y="-24.5" font-family="Helvetica,sans-Serif" font-size="10.00">+ maxSize</text>
<polyline fill="none" stroke="black" points="0,-18.5 117.255,-18.5 "/>
<text text-anchor="start" x="8" y="-6.5" font-family="Helvetica,sans-Serif" font-size="10.00">+ WebSocketHandler()</text>
</g>
<!-- Node1 -->
<g id="node2" class="node"><title>Node1</title>
<g id="a_node2"><a xlink:href="../../dc/de5/interfaceHandlerEx.html" target="_top" xlink:title="扩展消息处理器接口 ">
<polygon fill="white" stroke="black" points="26.8701,-91.5 26.8701,-155.5 90.3848,-155.5 90.3848,-91.5 26.8701,-91.5"/>
<text text-anchor="middle" x="58.6274" y="-143.5" font-family="Helvetica,sans-Serif" font-size="10.00">HandlerEx</text>
<polyline fill="none" stroke="black" points="26.8701,-137.5 90.3848,-137.5 "/>
<text text-anchor="start" x="34.8701" y="-125.5" font-family="Helvetica,sans-Serif" font-size="10.00">+ handler</text>
<text text-anchor="start" x="34.8701" y="-115.5" font-family="Helvetica,sans-Serif" font-size="10.00">+ stats</text>
<polyline fill="none" stroke="black" points="26.8701,-109.5 90.3848,-109.5 "/>
<text text-anchor="start" x="34.8701" y="-97.5" font-family="Helvetica,sans-Serif" font-size="10.00">+ onerror()</text>
</a>
</g>
</g>
<!-- Node1&#45;&gt;Node0 -->
<g id="edge1" class="edge"><title>Node1&#45;&gt;Node0</title>
<path fill="none" stroke="midnightblue" d="M58.6274,-81.4489C58.6274,-72.4046 58.6274,-63.0616 58.6274,-54.7887"/>
<polygon fill="none" stroke="midnightblue" points="55.1275,-81.4603 58.6274,-91.4604 62.1275,-81.4604 55.1275,-81.4603"/>
</g>
<!-- Node2 -->
<g id="node3" class="node"><title>Node2</title>
<g id="a_node3"><a xlink:href="../../da/d85/interfaceHandler.html" target="_top" xlink:title="消息处理器接口 ">
<polygon fill="white" stroke="black" points="25.4785,-192.5 25.4785,-276.5 91.7764,-276.5 91.7764,-192.5 25.4785,-192.5"/>
<text text-anchor="middle" x="58.6274" y="-264.5" font-family="Helvetica,sans-Serif" font-size="10.00">Handler</text>
<polyline fill="none" stroke="black" points="25.4785,-258.5 91.7764,-258.5 "/>
<text text-anchor="middle" x="58.6274" y="-246.5" font-family="Helvetica,sans-Serif" font-size="10.00"> </text>
<polyline fill="none" stroke="black" points="25.4785,-240.5 91.7764,-240.5 "/>
<text text-anchor="start" x="33.4785" y="-228.5" font-family="Helvetica,sans-Serif" font-size="10.00">+ Handler()</text>
<text text-anchor="start" x="33.4785" y="-218.5" font-family="Helvetica,sans-Serif" font-size="10.00">+ Handler()</text>
<text text-anchor="start" x="33.4785" y="-208.5" font-family="Helvetica,sans-Serif" font-size="10.00">+ Handler()</text>
<text text-anchor="start" x="33.4785" y="-198.5" font-family="Helvetica,sans-Serif" font-size="10.00">+ invoke()</text>
</a>
</g>
</g>
<!-- Node2&#45;&gt;Node1 -->
<g id="edge2" class="edge"><title>Node2&#45;&gt;Node1</title>
<path fill="none" stroke="midnightblue" d="M58.6274,-182.145C58.6274,-173.065 58.6274,-163.869 58.6274,-155.569"/>
<polygon fill="none" stroke="midnightblue" points="55.1275,-182.292 58.6274,-192.292 62.1275,-182.292 55.1275,-182.292"/>
</g>
<!-- Node3 -->
<g id="node4" class="node"><title>Node3</title>
<g id="a_node4"><a xlink:href="../../db/d38/interfaceobject.html" target="_top" xlink:title="基础对象，所有对象均继承于此 ">
<polygon fill="white" stroke="black" points="25.4834,-313.5 25.4834,-407.5 91.7715,-407.5 91.7715,-313.5 25.4834,-313.5"/>
<text text-anchor="middle" x="58.6274" y="-395.5" font-family="Helvetica,sans-Serif" font-size="10.00">object</text>
<polyline fill="none" stroke="black" points="25.4834,-389.5 91.7715,-389.5 "/>
<text text-anchor="middle" x="58.6274" y="-377.5" font-family="Helvetica,sans-Serif" font-size="10.00"> </text>
<polyline fill="none" stroke="black" points="25.4834,-371.5 91.7715,-371.5 "/>
<text text-anchor="start" x="33.4834" y="-359.5" font-family="Helvetica,sans-Serif" font-size="10.00">+ dispose()</text>
<text text-anchor="start" x="33.4834" y="-349.5" font-family="Helvetica,sans-Serif" font-size="10.00">+ equals()</text>
<text text-anchor="start" x="33.4834" y="-339.5" font-family="Helvetica,sans-Serif" font-size="10.00">+ toString()</text>
<text text-anchor="start" x="33.4834" y="-329.5" font-family="Helvetica,sans-Serif" font-size="10.00">+ toJSON()</text>
<text text-anchor="start" x="33.4834" y="-319.5" font-family="Helvetica,sans-Serif" font-size="10.00">+ valueOf()</text>
</a>
</g>
</g>
<!-- Node3&#45;&gt;Node2 -->
<g id="edge3" class="edge"><title>Node3&#45;&gt;Node2</title>
<path fill="none" stroke="midnightblue" d="M58.6274,-303.061C58.6274,-294.219 58.6274,-285.225 58.6274,-276.806"/>
<polygon fill="none" stroke="midnightblue" points="55.1275,-303.327 58.6274,-313.327 62.1275,-303.327 55.1275,-303.327"/>
</g>
</g>
</svg>
