<?xml version="1.0" encoding="UTF-8" standalone="no"?>
<!DOCTYPE svg PUBLIC "-//W3C//DTD SVG 1.1//EN"
 "http://www.w3.org/Graphics/SVG/1.1/DTD/svg11.dtd">
<!-- Generated by graphviz version 2.38.0 (20140413.2041)
 -->
<!-- Title: HttpRequest Pages: 1 -->
<svg width="116pt" height="736pt"
 viewBox="0.00 0.00 115.99 736.00" xmlns="http://www.w3.org/2000/svg" xmlns:xlink="http://www.w3.org/1999/xlink">
<g id="graph0" class="graph" transform="scale(1 1) rotate(0) translate(4 732)">
<title>HttpRequest</title>
<polygon fill="white" stroke="none" points="-4,4 -4,-732 111.992,-732 111.992,4 -4,4"/>
<!-- Node0 -->
<g id="node1" class="node"><title>Node0</title>
<polygon fill="#bfbfbf" stroke="black" points="10.564,-0.5 10.564,-104.5 97.4282,-104.5 97.4282,-0.5 10.564,-0.5"/>
<text text-anchor="middle" x="53.9961" y="-92.5" font-family="Helvetica,sans-Serif" font-size="10.00">HttpRequest</text>
<polyline fill="none" stroke="black" points="10.564,-86.5 97.4282,-86.5 "/>
<text text-anchor="start" x="18.564" y="-74.5" font-family="Helvetica,sans-Serif" font-size="10.00">+ method</text>
<text text-anchor="start" x="18.564" y="-64.5" font-family="Helvetica,sans-Serif" font-size="10.00">+ address</text>
<text text-anchor="start" x="18.564" y="-54.5" font-family="Helvetica,sans-Serif" font-size="10.00">+ queryString</text>
<text text-anchor="start" x="18.564" y="-44.5" font-family="Helvetica,sans-Serif" font-size="10.00">+ cookies</text>
<text text-anchor="start" x="18.564" y="-34.5" font-family="Helvetica,sans-Serif" font-size="10.00">+ form</text>
<text text-anchor="start" x="18.564" y="-24.5" font-family="Helvetica,sans-Serif" font-size="10.00">+ query</text>
<polyline fill="none" stroke="black" points="10.564,-18.5 97.4282,-18.5 "/>
<text text-anchor="start" x="18.564" y="-6.5" font-family="Helvetica,sans-Serif" font-size="10.00">+ HttpRequest()</text>
</g>
<!-- Node1 -->
<g id="node2" class="node"><title>Node1</title>
<g id="a_node2"><a xlink:href="../../da/d38/interfaceHttpMessage.html" target="_top" xlink:title="http 基础消息对象 ">
<polygon fill="white" stroke="black" points="0,-141.5 0,-325.5 107.992,-325.5 107.992,-141.5 0,-141.5"/>
<text text-anchor="middle" x="53.9961" y="-313.5" font-family="Helvetica,sans-Serif" font-size="10.00">HttpMessage</text>
<polyline fill="none" stroke="black" points="0,-307.5 107.992,-307.5 "/>
<text text-anchor="start" x="8" y="-295.5" font-family="Helvetica,sans-Serif" font-size="10.00">+ protocol</text>
<text text-anchor="start" x="8" y="-285.5" font-family="Helvetica,sans-Serif" font-size="10.00">+ headers</text>
<text text-anchor="start" x="8" y="-275.5" font-family="Helvetica,sans-Serif" font-size="10.00">+ keepAlive</text>
<text text-anchor="start" x="8" y="-265.5" font-family="Helvetica,sans-Serif" font-size="10.00">+ upgrade</text>
<text text-anchor="start" x="8" y="-255.5" font-family="Helvetica,sans-Serif" font-size="10.00">+ maxHeadersCount</text>
<text text-anchor="start" x="8" y="-245.5" font-family="Helvetica,sans-Serif" font-size="10.00">+ maxUploadSize</text>
<text text-anchor="start" x="8" y="-235.5" font-family="Helvetica,sans-Serif" font-size="10.00">+ socket</text>
<polyline fill="none" stroke="black" points="0,-229.5 107.992,-229.5 "/>
<text text-anchor="start" x="8" y="-217.5" font-family="Helvetica,sans-Serif" font-size="10.00">+ hasHeader()</text>
<text text-anchor="start" x="8" y="-207.5" font-family="Helvetica,sans-Serif" font-size="10.00">+ firstHeader()</text>
<text text-anchor="start" x="8" y="-197.5" font-family="Helvetica,sans-Serif" font-size="10.00">+ allHeader()</text>
<text text-anchor="start" x="8" y="-187.5" font-family="Helvetica,sans-Serif" font-size="10.00">+ addHeader()</text>
<text text-anchor="start" x="8" y="-177.5" font-family="Helvetica,sans-Serif" font-size="10.00">+ addHeader()</text>
<text text-anchor="start" x="8" y="-167.5" font-family="Helvetica,sans-Serif" font-size="10.00">+ setHeader()</text>
<text text-anchor="start" x="8" y="-157.5" font-family="Helvetica,sans-Serif" font-size="10.00">+ setHeader()</text>
<text text-anchor="start" x="8" y="-147.5" font-family="Helvetica,sans-Serif" font-size="10.00">+ removeHeader()</text>
</a>
</g>
</g>
<!-- Node1&#45;&gt;Node0 -->
<g id="edge1" class="edge"><title>Node1&#45;&gt;Node0</title>
<path fill="none" stroke="midnightblue" d="M53.9961,-131.406C53.9961,-122.214 53.9961,-113.188 53.9961,-104.725"/>
<polygon fill="none" stroke="midnightblue" points="50.4962,-131.427 53.9961,-141.427 57.4962,-131.427 50.4962,-131.427"/>
</g>
<!-- Node2 -->
<g id="node3" class="node"><title>Node2</title>
<g id="a_node3"><a xlink:href="../../d6/db7/interfaceMessage.html" target="_top" xlink:title="基础消息对象 ">
<polygon fill="white" stroke="black" points="16.6846,-362.5 16.6846,-596.5 91.3076,-596.5 91.3076,-362.5 16.6846,-362.5"/>
<text text-anchor="middle" x="53.9961" y="-584.5" font-family="Helvetica,sans-Serif" font-size="10.00">Message</text>
<polyline fill="none" stroke="black" points="16.6846,-578.5 91.3076,-578.5 "/>
<text text-anchor="start" x="24.6846" y="-566.5" font-family="Helvetica,sans-Serif" font-size="10.00">+ TEXT</text>
<text text-anchor="start" x="24.6846" y="-556.5" font-family="Helvetica,sans-Serif" font-size="10.00">+ BINARY</text>
<text text-anchor="start" x="24.6846" y="-546.5" font-family="Helvetica,sans-Serif" font-size="10.00">+ value</text>
<text text-anchor="start" x="24.6846" y="-536.5" font-family="Helvetica,sans-Serif" font-size="10.00">+ params</text>
<text text-anchor="start" x="24.6846" y="-526.5" font-family="Helvetica,sans-Serif" font-size="10.00">+ type</text>
<text text-anchor="start" x="24.6846" y="-516.5" font-family="Helvetica,sans-Serif" font-size="10.00">+ data</text>
<text text-anchor="start" x="24.6846" y="-506.5" font-family="Helvetica,sans-Serif" font-size="10.00">+ body</text>
<text text-anchor="start" x="24.6846" y="-496.5" font-family="Helvetica,sans-Serif" font-size="10.00">+ length</text>
<text text-anchor="start" x="24.6846" y="-486.5" font-family="Helvetica,sans-Serif" font-size="10.00">+ stream</text>
<text text-anchor="start" x="24.6846" y="-476.5" font-family="Helvetica,sans-Serif" font-size="10.00">+ response</text>
<text text-anchor="start" x="24.6846" y="-466.5" font-family="Helvetica,sans-Serif" font-size="10.00">+ lastError</text>
<polyline fill="none" stroke="black" points="16.6846,-460.5 91.3076,-460.5 "/>
<text text-anchor="start" x="24.6846" y="-448.5" font-family="Helvetica,sans-Serif" font-size="10.00">+ Message()</text>
<text text-anchor="start" x="24.6846" y="-438.5" font-family="Helvetica,sans-Serif" font-size="10.00">+ read()</text>
<text text-anchor="start" x="24.6846" y="-428.5" font-family="Helvetica,sans-Serif" font-size="10.00">+ readAll()</text>
<text text-anchor="start" x="24.6846" y="-418.5" font-family="Helvetica,sans-Serif" font-size="10.00">+ write()</text>
<text text-anchor="start" x="24.6846" y="-408.5" font-family="Helvetica,sans-Serif" font-size="10.00">+ end()</text>
<text text-anchor="start" x="24.6846" y="-398.5" font-family="Helvetica,sans-Serif" font-size="10.00">+ isEnded()</text>
<text text-anchor="start" x="24.6846" y="-388.5" font-family="Helvetica,sans-Serif" font-size="10.00">+ clear()</text>
<text text-anchor="start" x="24.6846" y="-378.5" font-family="Helvetica,sans-Serif" font-size="10.00">+ sendTo()</text>
<text text-anchor="start" x="24.6846" y="-368.5" font-family="Helvetica,sans-Serif" font-size="10.00">+ readFrom()</text>
</a>
</g>
</g>
<!-- Node2&#45;&gt;Node1 -->
<g id="edge2" class="edge"><title>Node2&#45;&gt;Node1</title>
<path fill="none" stroke="midnightblue" d="M53.9961,-352.141C53.9961,-343.219 53.9961,-334.329 53.9961,-325.66"/>
<polygon fill="none" stroke="midnightblue" points="50.4962,-352.217 53.9961,-362.217 57.4962,-352.217 50.4962,-352.217"/>
</g>
<!-- Node3 -->
<g id="node4" class="node"><title>Node3</title>
<g id="a_node4"><a xlink:href="../../db/d38/interfaceobject.html" target="_top" xlink:title="基础对象，所有对象均继承于此 ">
<polygon fill="white" stroke="black" points="20.8521,-633.5 20.8521,-727.5 87.1401,-727.5 87.1401,-633.5 20.8521,-633.5"/>
<text text-anchor="middle" x="53.9961" y="-715.5" font-family="Helvetica,sans-Serif" font-size="10.00">object</text>
<polyline fill="none" stroke="black" points="20.8521,-709.5 87.1401,-709.5 "/>
<text text-anchor="middle" x="53.9961" y="-697.5" font-family="Helvetica,sans-Serif" font-size="10.00"> </text>
<polyline fill="none" stroke="black" points="20.8521,-691.5 87.1401,-691.5 "/>
<text text-anchor="start" x="28.8521" y="-679.5" font-family="Helvetica,sans-Serif" font-size="10.00">+ dispose()</text>
<text text-anchor="start" x="28.8521" y="-669.5" font-family="Helvetica,sans-Serif" font-size="10.00">+ equals()</text>
<text text-anchor="start" x="28.8521" y="-659.5" font-family="Helvetica,sans-Serif" font-size="10.00">+ toString()</text>
<text text-anchor="start" x="28.8521" y="-649.5" font-family="Helvetica,sans-Serif" font-size="10.00">+ toJSON()</text>
<text text-anchor="start" x="28.8521" y="-639.5" font-family="Helvetica,sans-Serif" font-size="10.00">+ valueOf()</text>
</a>
</g>
</g>
<!-- Node3&#45;&gt;Node2 -->
<g id="edge3" class="edge"><title>Node3&#45;&gt;Node2</title>
<path fill="none" stroke="midnightblue" d="M53.9961,-623.285C53.9961,-614.809 53.9961,-605.811 53.9961,-596.619"/>
<polygon fill="none" stroke="midnightblue" points="50.4962,-623.345 53.9961,-633.345 57.4962,-623.345 50.4962,-623.345"/>
</g>
</g>
</svg>
