<?xml version="1.0" encoding="UTF-8" standalone="no"?>
<!DOCTYPE svg PUBLIC "-//W3C//DTD SVG 1.1//EN"
 "http://www.w3.org/Graphics/SVG/1.1/DTD/svg11.dtd">
<!-- Generated by graphviz version 2.38.0 (20140413.2041)
 -->
<!-- Title: EventEmitter Pages: 1 -->
<svg width="401pt" height="555pt"
 viewBox="0.00 0.00 401.25 555.00" xmlns="http://www.w3.org/2000/svg" xmlns:xlink="http://www.w3.org/1999/xlink">
<g id="graph0" class="graph" transform="scale(1 1) rotate(0) translate(4 551)">
<title>EventEmitter</title>
<polygon fill="white" stroke="none" points="-4,4 -4,-551 397.253,-551 397.253,4 -4,4"/>
<!-- Node0 -->
<g id="node1" class="node"><title>Node0</title>
<polygon fill="#bfbfbf" stroke="black" points="128.719,-201.5 128.719,-415.5 245.032,-415.5 245.032,-201.5 128.719,-201.5"/>
<text text-anchor="middle" x="186.875" y="-403.5" font-family="Helvetica,sans-Serif" font-size="10.00">EventEmitter</text>
<polyline fill="none" stroke="black" points="128.719,-397.5 245.032,-397.5 "/>
<text text-anchor="middle" x="186.875" y="-385.5" font-family="Helvetica,sans-Serif" font-size="10.00"> </text>
<polyline fill="none" stroke="black" points="128.719,-379.5 245.032,-379.5 "/>
<text text-anchor="start" x="136.719" y="-367.5" font-family="Helvetica,sans-Serif" font-size="10.00">+ EventEmitter()</text>
<text text-anchor="start" x="136.719" y="-357.5" font-family="Helvetica,sans-Serif" font-size="10.00">+ on()</text>
<text text-anchor="start" x="136.719" y="-347.5" font-family="Helvetica,sans-Serif" font-size="10.00">+ on()</text>
<text text-anchor="start" x="136.719" y="-337.5" font-family="Helvetica,sans-Serif" font-size="10.00">+ addListener()</text>
<text text-anchor="start" x="136.719" y="-327.5" font-family="Helvetica,sans-Serif" font-size="10.00">+ addListener()</text>
<text text-anchor="start" x="136.719" y="-317.5" font-family="Helvetica,sans-Serif" font-size="10.00">+ once()</text>
<text text-anchor="start" x="136.719" y="-307.5" font-family="Helvetica,sans-Serif" font-size="10.00">+ once()</text>
<text text-anchor="start" x="136.719" y="-297.5" font-family="Helvetica,sans-Serif" font-size="10.00">+ off()</text>
<text text-anchor="start" x="136.719" y="-287.5" font-family="Helvetica,sans-Serif" font-size="10.00">+ off()</text>
<text text-anchor="start" x="136.719" y="-277.5" font-family="Helvetica,sans-Serif" font-size="10.00">+ off()</text>
<text text-anchor="start" x="136.719" y="-267.5" font-family="Helvetica,sans-Serif" font-size="10.00">+ removeListener()</text>
<text text-anchor="start" x="136.719" y="-257.5" font-family="Helvetica,sans-Serif" font-size="10.00">+ removeListener()</text>
<text text-anchor="start" x="136.719" y="-247.5" font-family="Helvetica,sans-Serif" font-size="10.00">+ removeListener()</text>
<text text-anchor="start" x="136.719" y="-237.5" font-family="Helvetica,sans-Serif" font-size="10.00">+ removeAllListeners()</text>
<text text-anchor="start" x="136.719" y="-227.5" font-family="Helvetica,sans-Serif" font-size="10.00">+ setMaxListeners()</text>
<text text-anchor="start" x="136.719" y="-217.5" font-family="Helvetica,sans-Serif" font-size="10.00">+ listeners()</text>
<text text-anchor="start" x="136.719" y="-207.5" font-family="Helvetica,sans-Serif" font-size="10.00">+ emit()</text>
</g>
<!-- Node2 -->
<g id="node3" class="node"><title>Node2</title>
<g id="a_node3"><a xlink:href="../../d1/db9/interfaceService.html" target="_top" xlink:title="系统服务管理对象 ">
<polygon fill="white" stroke="black" points="0,-0.5 0,-164.5 75.751,-164.5 75.751,-0.5 0,-0.5"/>
<text text-anchor="middle" x="37.8755" y="-152.5" font-family="Helvetica,sans-Serif" font-size="10.00">Service</text>
<polyline fill="none" stroke="black" points="0,-146.5 75.751,-146.5 "/>
<text text-anchor="start" x="8" y="-134.5" font-family="Helvetica,sans-Serif" font-size="10.00">+ name</text>
<text text-anchor="start" x="8" y="-124.5" font-family="Helvetica,sans-Serif" font-size="10.00">+ onstop</text>
<text text-anchor="start" x="8" y="-114.5" font-family="Helvetica,sans-Serif" font-size="10.00">+ onpause</text>
<text text-anchor="start" x="8" y="-104.5" font-family="Helvetica,sans-Serif" font-size="10.00">+ oncontinue</text>
<polyline fill="none" stroke="black" points="0,-98.5 75.751,-98.5 "/>
<text text-anchor="start" x="8" y="-86.5" font-family="Helvetica,sans-Serif" font-size="10.00">+ Service()</text>
<text text-anchor="start" x="8" y="-76.5" font-family="Helvetica,sans-Serif" font-size="10.00">+ install()</text>
<text text-anchor="start" x="8" y="-66.5" font-family="Helvetica,sans-Serif" font-size="10.00">+ remove()</text>
<text text-anchor="start" x="8" y="-56.5" font-family="Helvetica,sans-Serif" font-size="10.00">+ start()</text>
<text text-anchor="start" x="8" y="-46.5" font-family="Helvetica,sans-Serif" font-size="10.00">+ stop()</text>
<text text-anchor="start" x="8" y="-36.5" font-family="Helvetica,sans-Serif" font-size="10.00">+ restart()</text>
<text text-anchor="start" x="8" y="-26.5" font-family="Helvetica,sans-Serif" font-size="10.00">+ run()</text>
<text text-anchor="start" x="8" y="-16.5" font-family="Helvetica,sans-Serif" font-size="10.00">+ isInstalled()</text>
<text text-anchor="start" x="8" y="-6.5" font-family="Helvetica,sans-Serif" font-size="10.00">+ isRunning()</text>
</a>
</g>
</g>
<!-- Node0&#45;&gt;Node2 -->
<g id="edge2" class="edge"><title>Node0&#45;&gt;Node2</title>
<path fill="none" stroke="midnightblue" d="M122.678,-220.669C109.826,-202.5 96.6611,-183.3 84.8755,-165 81.8685,-160.331 78.8313,-155.465 75.8248,-150.536"/>
<polygon fill="none" stroke="midnightblue" points="119.909,-222.815 128.555,-228.938 125.614,-218.759 119.909,-222.815"/>
</g>
<!-- Node3 -->
<g id="node4" class="node"><title>Node3</title>
<g id="a_node4"><a xlink:href="../../de/d2a/interfaceWebSocket.html" target="_top" xlink:title="WebSocket 包协议转换处理器 ">
<polygon fill="white" stroke="black" points="93.7578,-5.5 93.7578,-159.5 175.993,-159.5 175.993,-5.5 93.7578,-5.5"/>
<text text-anchor="middle" x="134.875" y="-147.5" font-family="Helvetica,sans-Serif" font-size="10.00">WebSocket</text>
<polyline fill="none" stroke="black" points="93.7578,-141.5 175.993,-141.5 "/>
<text text-anchor="start" x="101.758" y="-129.5" font-family="Helvetica,sans-Serif" font-size="10.00">+ url</text>
<text text-anchor="start" x="101.758" y="-119.5" font-family="Helvetica,sans-Serif" font-size="10.00">+ protocol</text>
<text text-anchor="start" x="101.758" y="-109.5" font-family="Helvetica,sans-Serif" font-size="10.00">+ origin</text>
<text text-anchor="start" x="101.758" y="-99.5" font-family="Helvetica,sans-Serif" font-size="10.00">+ readyState</text>
<text text-anchor="start" x="101.758" y="-89.5" font-family="Helvetica,sans-Serif" font-size="10.00">+ onopen</text>
<text text-anchor="start" x="101.758" y="-79.5" font-family="Helvetica,sans-Serif" font-size="10.00">+ onmessage</text>
<text text-anchor="start" x="101.758" y="-69.5" font-family="Helvetica,sans-Serif" font-size="10.00">+ onclose</text>
<text text-anchor="start" x="101.758" y="-59.5" font-family="Helvetica,sans-Serif" font-size="10.00">+ onerror</text>
<polyline fill="none" stroke="black" points="93.7578,-53.5 175.993,-53.5 "/>
<text text-anchor="start" x="101.758" y="-41.5" font-family="Helvetica,sans-Serif" font-size="10.00">+ WebSocket()</text>
<text text-anchor="start" x="101.758" y="-31.5" font-family="Helvetica,sans-Serif" font-size="10.00">+ close()</text>
<text text-anchor="start" x="101.758" y="-21.5" font-family="Helvetica,sans-Serif" font-size="10.00">+ send()</text>
<text text-anchor="start" x="101.758" y="-11.5" font-family="Helvetica,sans-Serif" font-size="10.00">+ send()</text>
</a>
</g>
</g>
<!-- Node0&#45;&gt;Node3 -->
<g id="edge3" class="edge"><title>Node0&#45;&gt;Node3</title>
<path fill="none" stroke="midnightblue" d="M159.937,-191.456C157.423,-180.627 154.921,-169.848 152.524,-159.525"/>
<polygon fill="none" stroke="midnightblue" points="156.575,-192.454 162.246,-201.404 163.394,-190.871 156.575,-192.454"/>
</g>
<!-- Node4 -->
<g id="node5" class="node"><title>Node4</title>
<g id="a_node5"><a xlink:href="../../d8/d79/interfaceWebView.html" target="_top" xlink:title="浏览器窗口对象 ">
<polygon fill="white" stroke="black" points="193.498,-10.5 193.498,-154.5 284.253,-154.5 284.253,-10.5 193.498,-10.5"/>
<text text-anchor="middle" x="238.875" y="-142.5" font-family="Helvetica,sans-Serif" font-size="10.00">WebView</text>
<polyline fill="none" stroke="black" points="193.498,-136.5 284.253,-136.5 "/>
<text text-anchor="start" x="201.498" y="-124.5" font-family="Helvetica,sans-Serif" font-size="10.00">+ visible</text>
<text text-anchor="start" x="201.498" y="-114.5" font-family="Helvetica,sans-Serif" font-size="10.00">+ onload</text>
<text text-anchor="start" x="201.498" y="-104.5" font-family="Helvetica,sans-Serif" font-size="10.00">+ onmove</text>
<text text-anchor="start" x="201.498" y="-94.5" font-family="Helvetica,sans-Serif" font-size="10.00">+ onresize</text>
<text text-anchor="start" x="201.498" y="-84.5" font-family="Helvetica,sans-Serif" font-size="10.00">+ onclose</text>
<text text-anchor="start" x="201.498" y="-74.5" font-family="Helvetica,sans-Serif" font-size="10.00">+ onmessage</text>
<polyline fill="none" stroke="black" points="193.498,-68.5 284.253,-68.5 "/>
<text text-anchor="start" x="201.498" y="-56.5" font-family="Helvetica,sans-Serif" font-size="10.00">+ setHtml()</text>
<text text-anchor="start" x="201.498" y="-46.5" font-family="Helvetica,sans-Serif" font-size="10.00">+ print()</text>
<text text-anchor="start" x="201.498" y="-36.5" font-family="Helvetica,sans-Serif" font-size="10.00">+ close()</text>
<text text-anchor="start" x="201.498" y="-26.5" font-family="Helvetica,sans-Serif" font-size="10.00">+ wait()</text>
<text text-anchor="start" x="201.498" y="-16.5" font-family="Helvetica,sans-Serif" font-size="10.00">+ postMessage()</text>
</a>
</g>
</g>
<!-- Node0&#45;&gt;Node4 -->
<g id="edge4" class="edge"><title>Node0&#45;&gt;Node4</title>
<path fill="none" stroke="midnightblue" d="M213.833,-191.376C216.734,-178.877 219.62,-166.446 222.345,-154.707"/>
<polygon fill="none" stroke="midnightblue" points="210.357,-190.871 211.505,-201.404 217.176,-192.454 210.357,-190.871"/>
</g>
<!-- Node5 -->
<g id="node6" class="node"><title>Node5</title>
<g id="a_node6"><a xlink:href="../../dd/dce/interfaceWorker.html" target="_top" xlink:title="独立线程工作对象 ">
<polygon fill="white" stroke="black" points="302.498,-50.5 302.498,-114.5 393.253,-114.5 393.253,-50.5 302.498,-50.5"/>
<text text-anchor="middle" x="347.875" y="-102.5" font-family="Helvetica,sans-Serif" font-size="10.00">Worker</text>
<polyline fill="none" stroke="black" points="302.498,-96.5 393.253,-96.5 "/>
<text text-anchor="start" x="310.498" y="-84.5" font-family="Helvetica,sans-Serif" font-size="10.00">+ onmessage</text>
<polyline fill="none" stroke="black" points="302.498,-78.5 393.253,-78.5 "/>
<text text-anchor="start" x="310.498" y="-66.5" font-family="Helvetica,sans-Serif" font-size="10.00">+ Worker()</text>
<text text-anchor="start" x="310.498" y="-56.5" font-family="Helvetica,sans-Serif" font-size="10.00">+ postMessage()</text>
</a>
</g>
</g>
<!-- Node0&#45;&gt;Node5 -->
<g id="edge5" class="edge"><title>Node0&#45;&gt;Node5</title>
<path fill="none" stroke="midnightblue" d="M251.394,-222.096C265.241,-203.398 279.674,-183.626 292.875,-165 304.523,-148.567 317.119,-129.967 327.313,-114.69"/>
<polygon fill="none" stroke="midnightblue" points="248.441,-220.202 245.291,-230.318 254.062,-224.374 248.441,-220.202"/>
</g>
<!-- Node1 -->
<g id="node2" class="node"><title>Node1</title>
<g id="a_node2"><a xlink:href="../../db/d38/interfaceobject.html" target="_top" xlink:title="基础对象，所有对象均继承于此 ">
<polygon fill="white" stroke="black" points="153.731,-452.5 153.731,-546.5 220.02,-546.5 220.02,-452.5 153.731,-452.5"/>
<text text-anchor="middle" x="186.875" y="-534.5" font-family="Helvetica,sans-Serif" font-size="10.00">object</text>
<polyline fill="none" stroke="black" points="153.731,-528.5 220.02,-528.5 "/>
<text text-anchor="middle" x="186.875" y="-516.5" font-family="Helvetica,sans-Serif" font-size="10.00"> </text>
<polyline fill="none" stroke="black" points="153.731,-510.5 220.02,-510.5 "/>
<text text-anchor="start" x="161.731" y="-498.5" font-family="Helvetica,sans-Serif" font-size="10.00">+ dispose()</text>
<text text-anchor="start" x="161.731" y="-488.5" font-family="Helvetica,sans-Serif" font-size="10.00">+ equals()</text>
<text text-anchor="start" x="161.731" y="-478.5" font-family="Helvetica,sans-Serif" font-size="10.00">+ toString()</text>
<text text-anchor="start" x="161.731" y="-468.5" font-family="Helvetica,sans-Serif" font-size="10.00">+ toJSON()</text>
<text text-anchor="start" x="161.731" y="-458.5" font-family="Helvetica,sans-Serif" font-size="10.00">+ valueOf()</text>
</a>
</g>
</g>
<!-- Node1&#45;&gt;Node0 -->
<g id="edge1" class="edge"><title>Node1&#45;&gt;Node0</title>
<path fill="none" stroke="midnightblue" d="M186.875,-442.214C186.875,-433.755 186.875,-424.805 186.875,-415.708"/>
<polygon fill="none" stroke="midnightblue" points="183.376,-442.265 186.875,-452.265 190.376,-442.265 183.376,-442.265"/>
</g>
</g>
</svg>
