<?xml version="1.0" encoding="UTF-8" standalone="no"?>
<!DOCTYPE svg PUBLIC "-//W3C//DTD SVG 1.1//EN"
 "http://www.w3.org/Graphics/SVG/1.1/DTD/svg11.dtd">
<!-- Generated by graphviz version 2.38.0 (20140413.2041)
 -->
<!-- Title: Chain Pages: 1 -->
<svg width="74pt" height="335pt"
 viewBox="0.00 0.00 74.30 335.00" xmlns="http://www.w3.org/2000/svg" xmlns:xlink="http://www.w3.org/1999/xlink">
<g id="graph0" class="graph" transform="scale(1 1) rotate(0) translate(4 331)">
<title>Chain</title>
<polygon fill="white" stroke="none" points="-4,4 -4,-331 70.2979,-331 70.2979,4 -4,4"/>
<!-- Node0 -->
<g id="node1" class="node"><title>Node0</title>
<polygon fill="#bfbfbf" stroke="black" points="0.825195,-0.5 0.825195,-74.5 65.4727,-74.5 65.4727,-0.5 0.825195,-0.5"/>
<text text-anchor="middle" x="33.1489" y="-62.5" font-family="Helvetica,sans-Serif" font-size="10.00">Chain</text>
<polyline fill="none" stroke="black" points="0.825195,-56.5 65.4727,-56.5 "/>
<text text-anchor="middle" x="33.1489" y="-44.5" font-family="Helvetica,sans-Serif" font-size="10.00"> </text>
<polyline fill="none" stroke="black" points="0.825195,-38.5 65.4727,-38.5 "/>
<text text-anchor="start" x="8.8252" y="-26.5" font-family="Helvetica,sans-Serif" font-size="10.00">+ Chain()</text>
<text text-anchor="start" x="8.8252" y="-16.5" font-family="Helvetica,sans-Serif" font-size="10.00">+ append()</text>
<text text-anchor="start" x="8.8252" y="-6.5" font-family="Helvetica,sans-Serif" font-size="10.00">+ append()</text>
</g>
<!-- Node1 -->
<g id="node2" class="node"><title>Node1</title>
<g id="a_node2"><a xlink:href="../../da/d85/interfaceHandler.html" target="_top" xlink:title="消息处理器接口 ">
<polygon fill="white" stroke="black" points="0,-111.5 0,-195.5 66.2979,-195.5 66.2979,-111.5 0,-111.5"/>
<text text-anchor="middle" x="33.1489" y="-183.5" font-family="Helvetica,sans-Serif" font-size="10.00">Handler</text>
<polyline fill="none" stroke="black" points="0,-177.5 66.2979,-177.5 "/>
<text text-anchor="middle" x="33.1489" y="-165.5" font-family="Helvetica,sans-Serif" font-size="10.00"> </text>
<polyline fill="none" stroke="black" points="0,-159.5 66.2979,-159.5 "/>
<text text-anchor="start" x="8" y="-147.5" font-family="Helvetica,sans-Serif" font-size="10.00">+ Handler()</text>
<text text-anchor="start" x="8" y="-137.5" font-family="Helvetica,sans-Serif" font-size="10.00">+ Handler()</text>
<text text-anchor="start" x="8" y="-127.5" font-family="Helvetica,sans-Serif" font-size="10.00">+ Handler()</text>
<text text-anchor="start" x="8" y="-117.5" font-family="Helvetica,sans-Serif" font-size="10.00">+ invoke()</text>
</a>
</g>
</g>
<!-- Node1&#45;&gt;Node0 -->
<g id="edge1" class="edge"><title>Node1&#45;&gt;Node0</title>
<path fill="none" stroke="midnightblue" d="M33.1489,-101.328C33.1489,-92.3412 33.1489,-83.159 33.1489,-74.6878"/>
<polygon fill="none" stroke="midnightblue" points="29.649,-101.343 33.1489,-111.343 36.649,-101.343 29.649,-101.343"/>
</g>
<!-- Node2 -->
<g id="node3" class="node"><title>Node2</title>
<g id="a_node3"><a xlink:href="../../db/d38/interfaceobject.html" target="_top" xlink:title="基础对象，所有对象均继承于此 ">
<polygon fill="white" stroke="black" points="0.00488281,-232.5 0.00488281,-326.5 66.293,-326.5 66.293,-232.5 0.00488281,-232.5"/>
<text text-anchor="middle" x="33.1489" y="-314.5" font-family="Helvetica,sans-Serif" font-size="10.00">object</text>
<polyline fill="none" stroke="black" points="0.00488281,-308.5 66.293,-308.5 "/>
<text text-anchor="middle" x="33.1489" y="-296.5" font-family="Helvetica,sans-Serif" font-size="10.00"> </text>
<polyline fill="none" stroke="black" points="0.00488281,-290.5 66.293,-290.5 "/>
<text text-anchor="start" x="8.00488" y="-278.5" font-family="Helvetica,sans-Serif" font-size="10.00">+ dispose()</text>
<text text-anchor="start" x="8.00488" y="-268.5" font-family="Helvetica,sans-Serif" font-size="10.00">+ equals()</text>
<text text-anchor="start" x="8.00488" y="-258.5" font-family="Helvetica,sans-Serif" font-size="10.00">+ toString()</text>
<text text-anchor="start" x="8.00488" y="-248.5" font-family="Helvetica,sans-Serif" font-size="10.00">+ toJSON()</text>
<text text-anchor="start" x="8.00488" y="-238.5" font-family="Helvetica,sans-Serif" font-size="10.00">+ valueOf()</text>
</a>
</g>
</g>
<!-- Node2&#45;&gt;Node1 -->
<g id="edge2" class="edge"><title>Node2&#45;&gt;Node1</title>
<path fill="none" stroke="midnightblue" d="M33.1489,-222.061C33.1489,-213.219 33.1489,-204.225 33.1489,-195.806"/>
<polygon fill="none" stroke="midnightblue" points="29.649,-222.327 33.1489,-232.327 36.649,-222.327 29.649,-222.327"/>
</g>
</g>
</svg>
