<?xml version="1.0" encoding="UTF-8" standalone="no"?>
<!DOCTYPE svg PUBLIC "-//W3C//DTD SVG 1.1//EN"
 "http://www.w3.org/Graphics/SVG/1.1/DTD/svg11.dtd">
<!-- Generated by graphviz version 2.38.0 (20140413.2041)
 -->
<!-- Title: Event Pages: 1 -->
<svg width="74pt" height="365pt"
 viewBox="0.00 0.00 74.29 365.00" xmlns="http://www.w3.org/2000/svg" xmlns:xlink="http://www.w3.org/1999/xlink">
<g id="graph0" class="graph" transform="scale(1 1) rotate(0) translate(4 361)">
<title>Event</title>
<polygon fill="white" stroke="none" points="-4,4 -4,-361 70.2881,-361 70.2881,4 -4,4"/>
<!-- Node0 -->
<g id="node1" class="node"><title>Node0</title>
<polygon fill="#bfbfbf" stroke="black" points="4.71924,-0.5 4.71924,-104.5 61.5688,-104.5 61.5688,-0.5 4.71924,-0.5"/>
<text text-anchor="middle" x="33.144" y="-92.5" font-family="Helvetica,sans-Serif" font-size="10.00">Event</text>
<polyline fill="none" stroke="black" points="4.71924,-86.5 61.5688,-86.5 "/>
<text text-anchor="middle" x="33.144" y="-74.5" font-family="Helvetica,sans-Serif" font-size="10.00"> </text>
<polyline fill="none" stroke="black" points="4.71924,-68.5 61.5688,-68.5 "/>
<text text-anchor="start" x="12.7192" y="-56.5" font-family="Helvetica,sans-Serif" font-size="10.00">+ Event()</text>
<text text-anchor="start" x="12.7192" y="-46.5" font-family="Helvetica,sans-Serif" font-size="10.00">+ isSet()</text>
<text text-anchor="start" x="12.7192" y="-36.5" font-family="Helvetica,sans-Serif" font-size="10.00">+ set()</text>
<text text-anchor="start" x="12.7192" y="-26.5" font-family="Helvetica,sans-Serif" font-size="10.00">+ pulse()</text>
<text text-anchor="start" x="12.7192" y="-16.5" font-family="Helvetica,sans-Serif" font-size="10.00">+ clear()</text>
<text text-anchor="start" x="12.7192" y="-6.5" font-family="Helvetica,sans-Serif" font-size="10.00">+ wait()</text>
</g>
<!-- Node1 -->
<g id="node2" class="node"><title>Node1</title>
<g id="a_node2"><a xlink:href="../../de/da6/interfaceLock.html" target="_top" xlink:title="纤程锁对象 ">
<polygon fill="white" stroke="black" points="1.10596,-141.5 1.10596,-225.5 65.1821,-225.5 65.1821,-141.5 1.10596,-141.5"/>
<text text-anchor="middle" x="33.144" y="-213.5" font-family="Helvetica,sans-Serif" font-size="10.00">Lock</text>
<polyline fill="none" stroke="black" points="1.10596,-207.5 65.1821,-207.5 "/>
<text text-anchor="middle" x="33.144" y="-195.5" font-family="Helvetica,sans-Serif" font-size="10.00"> </text>
<polyline fill="none" stroke="black" points="1.10596,-189.5 65.1821,-189.5 "/>
<text text-anchor="start" x="9.10596" y="-177.5" font-family="Helvetica,sans-Serif" font-size="10.00">+ Lock()</text>
<text text-anchor="start" x="9.10596" y="-167.5" font-family="Helvetica,sans-Serif" font-size="10.00">+ acquire()</text>
<text text-anchor="start" x="9.10596" y="-157.5" font-family="Helvetica,sans-Serif" font-size="10.00">+ release()</text>
<text text-anchor="start" x="9.10596" y="-147.5" font-family="Helvetica,sans-Serif" font-size="10.00">+ count()</text>
</a>
</g>
</g>
<!-- Node1&#45;&gt;Node0 -->
<g id="edge1" class="edge"><title>Node1&#45;&gt;Node0</title>
<path fill="none" stroke="midnightblue" d="M33.144,-131.261C33.144,-122.517 33.144,-113.434 33.144,-104.691"/>
<polygon fill="none" stroke="midnightblue" points="29.6441,-131.329 33.144,-141.329 36.6441,-131.329 29.6441,-131.329"/>
</g>
<!-- Node2 -->
<g id="node3" class="node"><title>Node2</title>
<g id="a_node3"><a xlink:href="../../db/d38/interfaceobject.html" target="_top" xlink:title="基础对象，所有对象均继承于此 ">
<polygon fill="white" stroke="black" points="0,-262.5 0,-356.5 66.2881,-356.5 66.2881,-262.5 0,-262.5"/>
<text text-anchor="middle" x="33.144" y="-344.5" font-family="Helvetica,sans-Serif" font-size="10.00">object</text>
<polyline fill="none" stroke="black" points="0,-338.5 66.2881,-338.5 "/>
<text text-anchor="middle" x="33.144" y="-326.5" font-family="Helvetica,sans-Serif" font-size="10.00"> </text>
<polyline fill="none" stroke="black" points="0,-320.5 66.2881,-320.5 "/>
<text text-anchor="start" x="8" y="-308.5" font-family="Helvetica,sans-Serif" font-size="10.00">+ dispose()</text>
<text text-anchor="start" x="8" y="-298.5" font-family="Helvetica,sans-Serif" font-size="10.00">+ equals()</text>
<text text-anchor="start" x="8" y="-288.5" font-family="Helvetica,sans-Serif" font-size="10.00">+ toString()</text>
<text text-anchor="start" x="8" y="-278.5" font-family="Helvetica,sans-Serif" font-size="10.00">+ toJSON()</text>
<text text-anchor="start" x="8" y="-268.5" font-family="Helvetica,sans-Serif" font-size="10.00">+ valueOf()</text>
</a>
</g>
</g>
<!-- Node2&#45;&gt;Node1 -->
<g id="edge2" class="edge"><title>Node2&#45;&gt;Node1</title>
<path fill="none" stroke="midnightblue" d="M33.144,-252.061C33.144,-243.219 33.144,-234.225 33.144,-225.806"/>
<polygon fill="none" stroke="midnightblue" points="29.6441,-252.327 33.144,-262.327 36.6441,-252.327 29.6441,-252.327"/>
</g>
</g>
</svg>
