<?xml version="1.0" encoding="UTF-8" standalone="no"?>
<!DOCTYPE svg PUBLIC "-//W3C//DTD SVG 1.1//EN"
 "http://www.w3.org/Graphics/SVG/1.1/DTD/svg11.dtd">
<!-- Generated by graphviz version 2.38.0 (20140413.2041)
 -->
<!-- Title: Routing Pages: 1 -->
<svg width="74pt" height="495pt"
 viewBox="0.00 0.00 74.30 495.00" xmlns="http://www.w3.org/2000/svg" xmlns:xlink="http://www.w3.org/1999/xlink">
<g id="graph0" class="graph" transform="scale(1 1) rotate(0) translate(4 491)">
<title>Routing</title>
<polygon fill="white" stroke="none" points="-4,4 -4,-491 70.2979,-491 70.2979,4 -4,4"/>
<!-- Node0 -->
<g id="node1" class="node"><title>Node0</title>
<polygon fill="#bfbfbf" stroke="black" points="0.275879,-0.5 0.275879,-234.5 66.022,-234.5 66.022,-0.5 0.275879,-0.5"/>
<text text-anchor="middle" x="33.1489" y="-222.5" font-family="Helvetica,sans-Serif" font-size="10.00">Routing</text>
<polyline fill="none" stroke="black" points="0.275879,-216.5 66.022,-216.5 "/>
<text text-anchor="middle" x="33.1489" y="-204.5" font-family="Helvetica,sans-Serif" font-size="10.00"> </text>
<polyline fill="none" stroke="black" points="0.275879,-198.5 66.022,-198.5 "/>
<text text-anchor="start" x="8.27588" y="-186.5" font-family="Helvetica,sans-Serif" font-size="10.00">+ Routing()</text>
<text text-anchor="start" x="8.27588" y="-176.5" font-family="Helvetica,sans-Serif" font-size="10.00">+ Routing()</text>
<text text-anchor="start" x="8.27588" y="-166.5" font-family="Helvetica,sans-Serif" font-size="10.00">+ append()</text>
<text text-anchor="start" x="8.27588" y="-156.5" font-family="Helvetica,sans-Serif" font-size="10.00">+ append()</text>
<text text-anchor="start" x="8.27588" y="-146.5" font-family="Helvetica,sans-Serif" font-size="10.00">+ append()</text>
<text text-anchor="start" x="8.27588" y="-136.5" font-family="Helvetica,sans-Serif" font-size="10.00">+ append()</text>
<text text-anchor="start" x="8.27588" y="-126.5" font-family="Helvetica,sans-Serif" font-size="10.00">+ append()</text>
<text text-anchor="start" x="8.27588" y="-116.5" font-family="Helvetica,sans-Serif" font-size="10.00">+ all()</text>
<text text-anchor="start" x="8.27588" y="-106.5" font-family="Helvetica,sans-Serif" font-size="10.00">+ all()</text>
<text text-anchor="start" x="8.27588" y="-96.5" font-family="Helvetica,sans-Serif" font-size="10.00">+ get()</text>
<text text-anchor="start" x="8.27588" y="-86.5" font-family="Helvetica,sans-Serif" font-size="10.00">+ get()</text>
<text text-anchor="start" x="8.27588" y="-76.5" font-family="Helvetica,sans-Serif" font-size="10.00">+ post()</text>
<text text-anchor="start" x="8.27588" y="-66.5" font-family="Helvetica,sans-Serif" font-size="10.00">+ post()</text>
<text text-anchor="start" x="8.27588" y="-56.5" font-family="Helvetica,sans-Serif" font-size="10.00">+ del()</text>
<text text-anchor="start" x="8.27588" y="-46.5" font-family="Helvetica,sans-Serif" font-size="10.00">+ del()</text>
<text text-anchor="start" x="8.27588" y="-36.5" font-family="Helvetica,sans-Serif" font-size="10.00">+ put()</text>
<text text-anchor="start" x="8.27588" y="-26.5" font-family="Helvetica,sans-Serif" font-size="10.00">+ put()</text>
<text text-anchor="start" x="8.27588" y="-16.5" font-family="Helvetica,sans-Serif" font-size="10.00">+ patch()</text>
<text text-anchor="start" x="8.27588" y="-6.5" font-family="Helvetica,sans-Serif" font-size="10.00">+ patch()</text>
</g>
<!-- Node1 -->
<g id="node2" class="node"><title>Node1</title>
<g id="a_node2"><a xlink:href="../../da/d85/interfaceHandler.html" target="_top" xlink:title="消息处理器接口 ">
<polygon fill="white" stroke="black" points="0,-271.5 0,-355.5 66.2979,-355.5 66.2979,-271.5 0,-271.5"/>
<text text-anchor="middle" x="33.1489" y="-343.5" font-family="Helvetica,sans-Serif" font-size="10.00">Handler</text>
<polyline fill="none" stroke="black" points="0,-337.5 66.2979,-337.5 "/>
<text text-anchor="middle" x="33.1489" y="-325.5" font-family="Helvetica,sans-Serif" font-size="10.00"> </text>
<polyline fill="none" stroke="black" points="0,-319.5 66.2979,-319.5 "/>
<text text-anchor="start" x="8" y="-307.5" font-family="Helvetica,sans-Serif" font-size="10.00">+ Handler()</text>
<text text-anchor="start" x="8" y="-297.5" font-family="Helvetica,sans-Serif" font-size="10.00">+ Handler()</text>
<text text-anchor="start" x="8" y="-287.5" font-family="Helvetica,sans-Serif" font-size="10.00">+ Handler()</text>
<text text-anchor="start" x="8" y="-277.5" font-family="Helvetica,sans-Serif" font-size="10.00">+ invoke()</text>
</a>
</g>
</g>
<!-- Node1&#45;&gt;Node0 -->
<g id="edge1" class="edge"><title>Node1&#45;&gt;Node0</title>
<path fill="none" stroke="midnightblue" d="M33.1489,-261.085C33.1489,-252.706 33.1489,-243.74 33.1489,-234.536"/>
<polygon fill="none" stroke="midnightblue" points="29.649,-261.358 33.1489,-271.358 36.649,-261.358 29.649,-261.358"/>
</g>
<!-- Node2 -->
<g id="node3" class="node"><title>Node2</title>
<g id="a_node3"><a xlink:href="../../db/d38/interfaceobject.html" target="_top" xlink:title="基础对象，所有对象均继承于此 ">
<polygon fill="white" stroke="black" points="0.00488281,-392.5 0.00488281,-486.5 66.293,-486.5 66.293,-392.5 0.00488281,-392.5"/>
<text text-anchor="middle" x="33.1489" y="-474.5" font-family="Helvetica,sans-Serif" font-size="10.00">object</text>
<polyline fill="none" stroke="black" points="0.00488281,-468.5 66.293,-468.5 "/>
<text text-anchor="middle" x="33.1489" y="-456.5" font-family="Helvetica,sans-Serif" font-size="10.00"> </text>
<polyline fill="none" stroke="black" points="0.00488281,-450.5 66.293,-450.5 "/>
<text text-anchor="start" x="8.00488" y="-438.5" font-family="Helvetica,sans-Serif" font-size="10.00">+ dispose()</text>
<text text-anchor="start" x="8.00488" y="-428.5" font-family="Helvetica,sans-Serif" font-size="10.00">+ equals()</text>
<text text-anchor="start" x="8.00488" y="-418.5" font-family="Helvetica,sans-Serif" font-size="10.00">+ toString()</text>
<text text-anchor="start" x="8.00488" y="-408.5" font-family="Helvetica,sans-Serif" font-size="10.00">+ toJSON()</text>
<text text-anchor="start" x="8.00488" y="-398.5" font-family="Helvetica,sans-Serif" font-size="10.00">+ valueOf()</text>
</a>
</g>
</g>
<!-- Node2&#45;&gt;Node1 -->
<g id="edge2" class="edge"><title>Node2&#45;&gt;Node1</title>
<path fill="none" stroke="midnightblue" d="M33.1489,-382.061C33.1489,-373.219 33.1489,-364.225 33.1489,-355.806"/>
<polygon fill="none" stroke="midnightblue" points="29.649,-382.327 33.1489,-392.327 36.649,-382.327 29.649,-382.327"/>
</g>
</g>
</svg>
