<?xml version="1.0" encoding="UTF-8" standalone="no"?>
<!DOCTYPE svg PUBLIC "-//W3C//DTD SVG 1.1//EN"
 "http://www.w3.org/Graphics/SVG/1.1/DTD/svg11.dtd">
<!-- Generated by graphviz version 2.38.0 (20140413.2041)
 -->
<!-- Title: Condition Pages: 1 -->
<svg width="82pt" height="355pt"
 viewBox="0.00 0.00 81.53 355.00" xmlns="http://www.w3.org/2000/svg" xmlns:xlink="http://www.w3.org/1999/xlink">
<g id="graph0" class="graph" transform="scale(1 1) rotate(0) translate(4 351)">
<title>Condition</title>
<polygon fill="white" stroke="none" points="-4,4 -4,-351 77.5293,-351 77.5293,4 -4,4"/>
<!-- Node0 -->
<g id="node1" class="node"><title>Node0</title>
<polygon fill="#bfbfbf" stroke="black" points="0,-0.5 0,-94.5 73.5293,-94.5 73.5293,-0.5 0,-0.5"/>
<text text-anchor="middle" x="36.7646" y="-82.5" font-family="Helvetica,sans-Serif" font-size="10.00">Condition</text>
<polyline fill="none" stroke="black" points="0,-76.5 73.5293,-76.5 "/>
<text text-anchor="middle" x="36.7646" y="-64.5" font-family="Helvetica,sans-Serif" font-size="10.00"> </text>
<polyline fill="none" stroke="black" points="0,-58.5 73.5293,-58.5 "/>
<text text-anchor="start" x="8" y="-46.5" font-family="Helvetica,sans-Serif" font-size="10.00">+ Condition()</text>
<text text-anchor="start" x="8" y="-36.5" font-family="Helvetica,sans-Serif" font-size="10.00">+ Condition()</text>
<text text-anchor="start" x="8" y="-26.5" font-family="Helvetica,sans-Serif" font-size="10.00">+ wait()</text>
<text text-anchor="start" x="8" y="-16.5" font-family="Helvetica,sans-Serif" font-size="10.00">+ notify()</text>
<text text-anchor="start" x="8" y="-6.5" font-family="Helvetica,sans-Serif" font-size="10.00">+ notifyAll()</text>
</g>
<!-- Node1 -->
<g id="node2" class="node"><title>Node1</title>
<g id="a_node2"><a xlink:href="../../de/da6/interfaceLock.html" target="_top" xlink:title="纤程锁对象 ">
<polygon fill="white" stroke="black" points="4.72656,-131.5 4.72656,-215.5 68.8027,-215.5 68.8027,-131.5 4.72656,-131.5"/>
<text text-anchor="middle" x="36.7646" y="-203.5" font-family="Helvetica,sans-Serif" font-size="10.00">Lock</text>
<polyline fill="none" stroke="black" points="4.72656,-197.5 68.8027,-197.5 "/>
<text text-anchor="middle" x="36.7646" y="-185.5" font-family="Helvetica,sans-Serif" font-size="10.00"> </text>
<polyline fill="none" stroke="black" points="4.72656,-179.5 68.8027,-179.5 "/>
<text text-anchor="start" x="12.7266" y="-167.5" font-family="Helvetica,sans-Serif" font-size="10.00">+ Lock()</text>
<text text-anchor="start" x="12.7266" y="-157.5" font-family="Helvetica,sans-Serif" font-size="10.00">+ acquire()</text>
<text text-anchor="start" x="12.7266" y="-147.5" font-family="Helvetica,sans-Serif" font-size="10.00">+ release()</text>
<text text-anchor="start" x="12.7266" y="-137.5" font-family="Helvetica,sans-Serif" font-size="10.00">+ count()</text>
</a>
</g>
</g>
<!-- Node1&#45;&gt;Node0 -->
<g id="edge1" class="edge"><title>Node1&#45;&gt;Node0</title>
<path fill="none" stroke="midnightblue" d="M36.7646,-121.122C36.7646,-112.378 36.7646,-103.343 36.7646,-94.7419"/>
<polygon fill="none" stroke="midnightblue" points="33.2647,-121.21 36.7646,-131.21 40.2647,-121.21 33.2647,-121.21"/>
</g>
<!-- Node2 -->
<g id="node3" class="node"><title>Node2</title>
<g id="a_node3"><a xlink:href="../../db/d38/interfaceobject.html" target="_top" xlink:title="基础对象，所有对象均继承于此 ">
<polygon fill="white" stroke="black" points="3.62061,-252.5 3.62061,-346.5 69.9087,-346.5 69.9087,-252.5 3.62061,-252.5"/>
<text text-anchor="middle" x="36.7646" y="-334.5" font-family="Helvetica,sans-Serif" font-size="10.00">object</text>
<polyline fill="none" stroke="black" points="3.62061,-328.5 69.9087,-328.5 "/>
<text text-anchor="middle" x="36.7646" y="-316.5" font-family="Helvetica,sans-Serif" font-size="10.00"> </text>
<polyline fill="none" stroke="black" points="3.62061,-310.5 69.9087,-310.5 "/>
<text text-anchor="start" x="11.6206" y="-298.5" font-family="Helvetica,sans-Serif" font-size="10.00">+ dispose()</text>
<text text-anchor="start" x="11.6206" y="-288.5" font-family="Helvetica,sans-Serif" font-size="10.00">+ equals()</text>
<text text-anchor="start" x="11.6206" y="-278.5" font-family="Helvetica,sans-Serif" font-size="10.00">+ toString()</text>
<text text-anchor="start" x="11.6206" y="-268.5" font-family="Helvetica,sans-Serif" font-size="10.00">+ toJSON()</text>
<text text-anchor="start" x="11.6206" y="-258.5" font-family="Helvetica,sans-Serif" font-size="10.00">+ valueOf()</text>
</a>
</g>
</g>
<!-- Node2&#45;&gt;Node1 -->
<g id="edge2" class="edge"><title>Node2&#45;&gt;Node1</title>
<path fill="none" stroke="midnightblue" d="M36.7646,-242.061C36.7646,-233.219 36.7646,-224.225 36.7646,-215.806"/>
<polygon fill="none" stroke="midnightblue" points="33.2647,-242.327 36.7646,-252.327 40.2647,-242.327 33.2647,-242.327"/>
</g>
</g>
</svg>
