<?xml version="1.0" encoding="UTF-8" standalone="no"?>
<!DOCTYPE svg PUBLIC "-//W3C//DTD SVG 1.1//EN"
 "http://www.w3.org/Graphics/SVG/1.1/DTD/svg11.dtd">
<!-- Generated by graphviz version 2.38.0 (20140413.2041)
 -->
<!-- Title: SslSocket Pages: 1 -->
<svg width="84pt" height="375pt"
 viewBox="0.00 0.00 83.74 375.00" xmlns="http://www.w3.org/2000/svg" xmlns:xlink="http://www.w3.org/1999/xlink">
<g id="graph0" class="graph" transform="scale(1 1) rotate(0) translate(4 371)">
<title>SslSocket</title>
<polygon fill="white" stroke="none" points="-4,4 -4,-371 79.7412,-371 79.7412,4 -4,4"/>
<!-- Node0 -->
<g id="node1" class="node"><title>Node0</title>
<polygon fill="#bfbfbf" stroke="black" points="0,-0.5 0,-114.5 75.7412,-114.5 75.7412,-0.5 0,-0.5"/>
<text text-anchor="middle" x="37.8706" y="-102.5" font-family="Helvetica,sans-Serif" font-size="10.00">SslSocket</text>
<polyline fill="none" stroke="black" points="0,-96.5 75.7412,-96.5 "/>
<text text-anchor="start" x="8" y="-84.5" font-family="Helvetica,sans-Serif" font-size="10.00">+ verification</text>
<text text-anchor="start" x="8" y="-74.5" font-family="Helvetica,sans-Serif" font-size="10.00">+ ca</text>
<text text-anchor="start" x="8" y="-64.5" font-family="Helvetica,sans-Serif" font-size="10.00">+ peerCert</text>
<text text-anchor="start" x="8" y="-54.5" font-family="Helvetica,sans-Serif" font-size="10.00">+ stream</text>
<polyline fill="none" stroke="black" points="0,-48.5 75.7412,-48.5 "/>
<text text-anchor="start" x="8" y="-36.5" font-family="Helvetica,sans-Serif" font-size="10.00">+ SslSocket()</text>
<text text-anchor="start" x="8" y="-26.5" font-family="Helvetica,sans-Serif" font-size="10.00">+ SslSocket()</text>
<text text-anchor="start" x="8" y="-16.5" font-family="Helvetica,sans-Serif" font-size="10.00">+ connect()</text>
<text text-anchor="start" x="8" y="-6.5" font-family="Helvetica,sans-Serif" font-size="10.00">+ accept()</text>
</g>
<!-- Node1 -->
<g id="node2" class="node"><title>Node1</title>
<g id="a_node2"><a xlink:href="../../d4/dc7/interfaceStream.html" target="_top" xlink:title="流操作对象，用于二进制数据流读写 ">
<polygon fill="white" stroke="black" points="6.38916,-151.5 6.38916,-235.5 69.3521,-235.5 69.3521,-151.5 6.38916,-151.5"/>
<text text-anchor="middle" x="37.8706" y="-223.5" font-family="Helvetica,sans-Serif" font-size="10.00">Stream</text>
<polyline fill="none" stroke="black" points="6.38916,-217.5 69.3521,-217.5 "/>
<text text-anchor="middle" x="37.8706" y="-205.5" font-family="Helvetica,sans-Serif" font-size="10.00"> </text>
<polyline fill="none" stroke="black" points="6.38916,-199.5 69.3521,-199.5 "/>
<text text-anchor="start" x="14.3892" y="-187.5" font-family="Helvetica,sans-Serif" font-size="10.00">+ read()</text>
<text text-anchor="start" x="14.3892" y="-177.5" font-family="Helvetica,sans-Serif" font-size="10.00">+ write()</text>
<text text-anchor="start" x="14.3892" y="-167.5" font-family="Helvetica,sans-Serif" font-size="10.00">+ close()</text>
<text text-anchor="start" x="14.3892" y="-157.5" font-family="Helvetica,sans-Serif" font-size="10.00">+ copyTo()</text>
</a>
</g>
</g>
<!-- Node1&#45;&gt;Node0 -->
<g id="edge1" class="edge"><title>Node1&#45;&gt;Node0</title>
<path fill="none" stroke="midnightblue" d="M37.8706,-140.94C37.8706,-132.347 37.8706,-123.397 37.8706,-114.696"/>
<polygon fill="none" stroke="midnightblue" points="34.3707,-141.202 37.8706,-151.202 41.3707,-141.202 34.3707,-141.202"/>
</g>
<!-- Node2 -->
<g id="node3" class="node"><title>Node2</title>
<g id="a_node3"><a xlink:href="../../db/d38/interfaceobject.html" target="_top" xlink:title="基础对象，所有对象均继承于此 ">
<polygon fill="white" stroke="black" points="4.72656,-272.5 4.72656,-366.5 71.0146,-366.5 71.0146,-272.5 4.72656,-272.5"/>
<text text-anchor="middle" x="37.8706" y="-354.5" font-family="Helvetica,sans-Serif" font-size="10.00">object</text>
<polyline fill="none" stroke="black" points="4.72656,-348.5 71.0146,-348.5 "/>
<text text-anchor="middle" x="37.8706" y="-336.5" font-family="Helvetica,sans-Serif" font-size="10.00"> </text>
<polyline fill="none" stroke="black" points="4.72656,-330.5 71.0146,-330.5 "/>
<text text-anchor="start" x="12.7266" y="-318.5" font-family="Helvetica,sans-Serif" font-size="10.00">+ dispose()</text>
<text text-anchor="start" x="12.7266" y="-308.5" font-family="Helvetica,sans-Serif" font-size="10.00">+ equals()</text>
<text text-anchor="start" x="12.7266" y="-298.5" font-family="Helvetica,sans-Serif" font-size="10.00">+ toString()</text>
<text text-anchor="start" x="12.7266" y="-288.5" font-family="Helvetica,sans-Serif" font-size="10.00">+ toJSON()</text>
<text text-anchor="start" x="12.7266" y="-278.5" font-family="Helvetica,sans-Serif" font-size="10.00">+ valueOf()</text>
</a>
</g>
</g>
<!-- Node2&#45;&gt;Node1 -->
<g id="edge2" class="edge"><title>Node2&#45;&gt;Node1</title>
<path fill="none" stroke="midnightblue" d="M37.8706,-262.061C37.8706,-253.219 37.8706,-244.225 37.8706,-235.806"/>
<polygon fill="none" stroke="midnightblue" points="34.3707,-262.327 37.8706,-272.327 41.3707,-262.327 34.3707,-262.327"/>
</g>
</g>
</svg>
