<?xml version="1.0" encoding="UTF-8" standalone="no"?>
<!DOCTYPE svg PUBLIC "-//W3C//DTD SVG 1.1//EN"
 "http://www.w3.org/Graphics/SVG/1.1/DTD/svg11.dtd">
<!-- Generated by graphviz version 2.38.0 (20140413.2041)
 -->
<!-- Title: Service Pages: 1 -->
<svg width="124pt" height="555pt"
 viewBox="0.00 0.00 124.31 555.00" xmlns="http://www.w3.org/2000/svg" xmlns:xlink="http://www.w3.org/1999/xlink">
<g id="graph0" class="graph" transform="scale(1 1) rotate(0) translate(4 551)">
<title>Service</title>
<polygon fill="white" stroke="none" points="-4,4 -4,-551 120.312,-551 120.312,4 -4,4"/>
<!-- Node0 -->
<g id="node1" class="node"><title>Node0</title>
<polygon fill="#bfbfbf" stroke="black" points="20.2808,-0.5 20.2808,-164.5 96.0317,-164.5 96.0317,-0.5 20.2808,-0.5"/>
<text text-anchor="middle" x="58.1562" y="-152.5" font-family="Helvetica,sans-Serif" font-size="10.00">Service</text>
<polyline fill="none" stroke="black" points="20.2808,-146.5 96.0317,-146.5 "/>
<text text-anchor="start" x="28.2808" y="-134.5" font-family="Helvetica,sans-Serif" font-size="10.00">+ name</text>
<text text-anchor="start" x="28.2808" y="-124.5" font-family="Helvetica,sans-Serif" font-size="10.00">+ onstop</text>
<text text-anchor="start" x="28.2808" y="-114.5" font-family="Helvetica,sans-Serif" font-size="10.00">+ onpause</text>
<text text-anchor="start" x="28.2808" y="-104.5" font-family="Helvetica,sans-Serif" font-size="10.00">+ oncontinue</text>
<polyline fill="none" stroke="black" points="20.2808,-98.5 96.0317,-98.5 "/>
<text text-anchor="start" x="28.2808" y="-86.5" font-family="Helvetica,sans-Serif" font-size="10.00">+ Service()</text>
<text text-anchor="start" x="28.2808" y="-76.5" font-family="Helvetica,sans-Serif" font-size="10.00">+ install()</text>
<text text-anchor="start" x="28.2808" y="-66.5" font-family="Helvetica,sans-Serif" font-size="10.00">+ remove()</text>
<text text-anchor="start" x="28.2808" y="-56.5" font-family="Helvetica,sans-Serif" font-size="10.00">+ start()</text>
<text text-anchor="start" x="28.2808" y="-46.5" font-family="Helvetica,sans-Serif" font-size="10.00">+ stop()</text>
<text text-anchor="start" x="28.2808" y="-36.5" font-family="Helvetica,sans-Serif" font-size="10.00">+ restart()</text>
<text text-anchor="start" x="28.2808" y="-26.5" font-family="Helvetica,sans-Serif" font-size="10.00">+ run()</text>
<text text-anchor="start" x="28.2808" y="-16.5" font-family="Helvetica,sans-Serif" font-size="10.00">+ isInstalled()</text>
<text text-anchor="start" x="28.2808" y="-6.5" font-family="Helvetica,sans-Serif" font-size="10.00">+ isRunning()</text>
</g>
<!-- Node1 -->
<g id="node2" class="node"><title>Node1</title>
<g id="a_node2"><a xlink:href="../../dd/df3/interfaceEventEmitter.html" target="_top" xlink:title="事件触发对象，可用于建立观察者模式，支持事件触发的对象均继承于此，同一事件的同一函数只会产生一次回调 ...">
<polygon fill="white" stroke="black" points="0,-201.5 0,-415.5 116.312,-415.5 116.312,-201.5 0,-201.5"/>
<text text-anchor="middle" x="58.1562" y="-403.5" font-family="Helvetica,sans-Serif" font-size="10.00">EventEmitter</text>
<polyline fill="none" stroke="black" points="0,-397.5 116.312,-397.5 "/>
<text text-anchor="middle" x="58.1562" y="-385.5" font-family="Helvetica,sans-Serif" font-size="10.00"> </text>
<polyline fill="none" stroke="black" points="0,-379.5 116.312,-379.5 "/>
<text text-anchor="start" x="8" y="-367.5" font-family="Helvetica,sans-Serif" font-size="10.00">+ EventEmitter()</text>
<text text-anchor="start" x="8" y="-357.5" font-family="Helvetica,sans-Serif" font-size="10.00">+ on()</text>
<text text-anchor="start" x="8" y="-347.5" font-family="Helvetica,sans-Serif" font-size="10.00">+ on()</text>
<text text-anchor="start" x="8" y="-337.5" font-family="Helvetica,sans-Serif" font-size="10.00">+ addListener()</text>
<text text-anchor="start" x="8" y="-327.5" font-family="Helvetica,sans-Serif" font-size="10.00">+ addListener()</text>
<text text-anchor="start" x="8" y="-317.5" font-family="Helvetica,sans-Serif" font-size="10.00">+ once()</text>
<text text-anchor="start" x="8" y="-307.5" font-family="Helvetica,sans-Serif" font-size="10.00">+ once()</text>
<text text-anchor="start" x="8" y="-297.5" font-family="Helvetica,sans-Serif" font-size="10.00">+ off()</text>
<text text-anchor="start" x="8" y="-287.5" font-family="Helvetica,sans-Serif" font-size="10.00">+ off()</text>
<text text-anchor="start" x="8" y="-277.5" font-family="Helvetica,sans-Serif" font-size="10.00">+ off()</text>
<text text-anchor="start" x="8" y="-267.5" font-family="Helvetica,sans-Serif" font-size="10.00">+ removeListener()</text>
<text text-anchor="start" x="8" y="-257.5" font-family="Helvetica,sans-Serif" font-size="10.00">+ removeListener()</text>
<text text-anchor="start" x="8" y="-247.5" font-family="Helvetica,sans-Serif" font-size="10.00">+ removeListener()</text>
<text text-anchor="start" x="8" y="-237.5" font-family="Helvetica,sans-Serif" font-size="10.00">+ removeAllListeners()</text>
<text text-anchor="start" x="8" y="-227.5" font-family="Helvetica,sans-Serif" font-size="10.00">+ setMaxListeners()</text>
<text text-anchor="start" x="8" y="-217.5" font-family="Helvetica,sans-Serif" font-size="10.00">+ listeners()</text>
<text text-anchor="start" x="8" y="-207.5" font-family="Helvetica,sans-Serif" font-size="10.00">+ emit()</text>
</a>
</g>
</g>
<!-- Node1&#45;&gt;Node0 -->
<g id="edge1" class="edge"><title>Node1&#45;&gt;Node0</title>
<path fill="none" stroke="midnightblue" d="M58.1562,-191.284C58.1562,-182.323 58.1562,-173.398 58.1562,-164.739"/>
<polygon fill="none" stroke="midnightblue" points="54.6563,-191.404 58.1562,-201.404 61.6563,-191.404 54.6563,-191.404"/>
</g>
<!-- Node2 -->
<g id="node3" class="node"><title>Node2</title>
<g id="a_node3"><a xlink:href="../../db/d38/interfaceobject.html" target="_top" xlink:title="基础对象，所有对象均继承于此 ">
<polygon fill="white" stroke="black" points="25.0122,-452.5 25.0122,-546.5 91.3003,-546.5 91.3003,-452.5 25.0122,-452.5"/>
<text text-anchor="middle" x="58.1562" y="-534.5" font-family="Helvetica,sans-Serif" font-size="10.00">object</text>
<polyline fill="none" stroke="black" points="25.0122,-528.5 91.3003,-528.5 "/>
<text text-anchor="middle" x="58.1562" y="-516.5" font-family="Helvetica,sans-Serif" font-size="10.00"> </text>
<polyline fill="none" stroke="black" points="25.0122,-510.5 91.3003,-510.5 "/>
<text text-anchor="start" x="33.0122" y="-498.5" font-family="Helvetica,sans-Serif" font-size="10.00">+ dispose()</text>
<text text-anchor="start" x="33.0122" y="-488.5" font-family="Helvetica,sans-Serif" font-size="10.00">+ equals()</text>
<text text-anchor="start" x="33.0122" y="-478.5" font-family="Helvetica,sans-Serif" font-size="10.00">+ toString()</text>
<text text-anchor="start" x="33.0122" y="-468.5" font-family="Helvetica,sans-Serif" font-size="10.00">+ toJSON()</text>
<text text-anchor="start" x="33.0122" y="-458.5" font-family="Helvetica,sans-Serif" font-size="10.00">+ valueOf()</text>
</a>
</g>
</g>
<!-- Node2&#45;&gt;Node1 -->
<g id="edge2" class="edge"><title>Node2&#45;&gt;Node1</title>
<path fill="none" stroke="midnightblue" d="M58.1562,-442.214C58.1562,-433.755 58.1562,-424.805 58.1562,-415.708"/>
<polygon fill="none" stroke="midnightblue" points="54.6563,-442.265 58.1562,-452.265 61.6563,-442.265 54.6563,-442.265"/>
</g>
</g>
</svg>
