<?xml version="1.0" encoding="UTF-8" standalone="no"?>
<!DOCTYPE svg PUBLIC "-//W3C//DTD SVG 1.1//EN"
 "http://www.w3.org/Graphics/SVG/1.1/DTD/svg11.dtd">
<!-- Generated by graphviz version 2.38.0 (20140413.2041)
 -->
<!-- Title: RadosStream Pages: 1 -->
<svg width="98pt" height="496pt"
 viewBox="0.00 0.00 97.93 496.00" xmlns="http://www.w3.org/2000/svg" xmlns:xlink="http://www.w3.org/1999/xlink">
<g id="graph0" class="graph" transform="scale(1 1) rotate(0) translate(4 492)">
<title>RadosStream</title>
<polygon fill="white" stroke="none" points="-4,4 -4,-492 93.9307,-492 93.9307,4 -4,4"/>
<!-- Node0 -->
<g id="node1" class="node"><title>Node0</title>
<polygon fill="#bfbfbf" stroke="black" points="6.39648,-0.5 6.39648,-94.5 83.5342,-94.5 83.5342,-0.5 6.39648,-0.5"/>
<text text-anchor="middle" x="44.9653" y="-82.5" font-family="Helvetica,sans-Serif" font-size="10.00">RadosStream</text>
<polyline fill="none" stroke="black" points="6.39648,-76.5 83.5342,-76.5 "/>
<text text-anchor="start" x="14.3965" y="-64.5" font-family="Helvetica,sans-Serif" font-size="10.00">+ key</text>
<polyline fill="none" stroke="black" points="6.39648,-58.5 83.5342,-58.5 "/>
<text text-anchor="start" x="14.3965" y="-46.5" font-family="Helvetica,sans-Serif" font-size="10.00">+ radosStat()</text>
<text text-anchor="start" x="14.3965" y="-36.5" font-family="Helvetica,sans-Serif" font-size="10.00">+ writeFull()</text>
<text text-anchor="start" x="14.3965" y="-26.5" font-family="Helvetica,sans-Serif" font-size="10.00">+ append()</text>
<text text-anchor="start" x="14.3965" y="-16.5" font-family="Helvetica,sans-Serif" font-size="10.00">+ truncate()</text>
<text text-anchor="start" x="14.3965" y="-6.5" font-family="Helvetica,sans-Serif" font-size="10.00">+ flush()</text>
</g>
<!-- Node1 -->
<g id="node2" class="node"><title>Node1</title>
<g id="a_node2"><a xlink:href="../../d6/d9c/interfaceSeekableStream.html" target="_top" xlink:title="可移动当前指针的流对象接口 ">
<polygon fill="white" stroke="black" points="0,-131.5 0,-235.5 89.9307,-235.5 89.9307,-131.5 0,-131.5"/>
<text text-anchor="middle" x="44.9653" y="-223.5" font-family="Helvetica,sans-Serif" font-size="10.00">SeekableStream</text>
<polyline fill="none" stroke="black" points="0,-217.5 89.9307,-217.5 "/>
<text text-anchor="middle" x="44.9653" y="-205.5" font-family="Helvetica,sans-Serif" font-size="10.00"> </text>
<polyline fill="none" stroke="black" points="0,-199.5 89.9307,-199.5 "/>
<text text-anchor="start" x="8" y="-187.5" font-family="Helvetica,sans-Serif" font-size="10.00">+ seek()</text>
<text text-anchor="start" x="8" y="-177.5" font-family="Helvetica,sans-Serif" font-size="10.00">+ tell()</text>
<text text-anchor="start" x="8" y="-167.5" font-family="Helvetica,sans-Serif" font-size="10.00">+ rewind()</text>
<text text-anchor="start" x="8" y="-157.5" font-family="Helvetica,sans-Serif" font-size="10.00">+ size()</text>
<text text-anchor="start" x="8" y="-147.5" font-family="Helvetica,sans-Serif" font-size="10.00">+ readAll()</text>
<text text-anchor="start" x="8" y="-137.5" font-family="Helvetica,sans-Serif" font-size="10.00">+ stat()</text>
</a>
</g>
</g>
<!-- Node1&#45;&gt;Node0 -->
<g id="edge1" class="edge"><title>Node1&#45;&gt;Node0</title>
<path fill="none" stroke="midnightblue" d="M44.9653,-121.377C44.9653,-112.363 44.9653,-103.206 44.9653,-94.5654"/>
<polygon fill="none" stroke="midnightblue" points="41.4654,-121.458 44.9653,-131.458 48.4654,-121.458 41.4654,-121.458"/>
</g>
<!-- Node2 -->
<g id="node3" class="node"><title>Node2</title>
<g id="a_node3"><a xlink:href="../../d4/dc7/interfaceStream.html" target="_top" xlink:title="流操作对象，用于二进制数据流读写 ">
<polygon fill="white" stroke="black" points="13.4839,-272.5 13.4839,-356.5 76.4468,-356.5 76.4468,-272.5 13.4839,-272.5"/>
<text text-anchor="middle" x="44.9653" y="-344.5" font-family="Helvetica,sans-Serif" font-size="10.00">Stream</text>
<polyline fill="none" stroke="black" points="13.4839,-338.5 76.4468,-338.5 "/>
<text text-anchor="middle" x="44.9653" y="-326.5" font-family="Helvetica,sans-Serif" font-size="10.00"> </text>
<polyline fill="none" stroke="black" points="13.4839,-320.5 76.4468,-320.5 "/>
<text text-anchor="start" x="21.4839" y="-308.5" font-family="Helvetica,sans-Serif" font-size="10.00">+ read()</text>
<text text-anchor="start" x="21.4839" y="-298.5" font-family="Helvetica,sans-Serif" font-size="10.00">+ write()</text>
<text text-anchor="start" x="21.4839" y="-288.5" font-family="Helvetica,sans-Serif" font-size="10.00">+ close()</text>
<text text-anchor="start" x="21.4839" y="-278.5" font-family="Helvetica,sans-Serif" font-size="10.00">+ copyTo()</text>
</a>
</g>
</g>
<!-- Node2&#45;&gt;Node1 -->
<g id="edge2" class="edge"><title>Node2&#45;&gt;Node1</title>
<path fill="none" stroke="midnightblue" d="M44.9653,-262.261C44.9653,-253.517 44.9653,-244.434 44.9653,-235.691"/>
<polygon fill="none" stroke="midnightblue" points="41.4654,-262.329 44.9653,-272.329 48.4654,-262.329 41.4654,-262.329"/>
</g>
<!-- Node3 -->
<g id="node4" class="node"><title>Node3</title>
<g id="a_node4"><a xlink:href="../../db/d38/interfaceobject.html" target="_top" xlink:title="基础对象，所有对象均继承于此 ">
<polygon fill="white" stroke="black" points="11.8213,-393.5 11.8213,-487.5 78.1094,-487.5 78.1094,-393.5 11.8213,-393.5"/>
<text text-anchor="middle" x="44.9653" y="-475.5" font-family="Helvetica,sans-Serif" font-size="10.00">object</text>
<polyline fill="none" stroke="black" points="11.8213,-469.5 78.1094,-469.5 "/>
<text text-anchor="middle" x="44.9653" y="-457.5" font-family="Helvetica,sans-Serif" font-size="10.00"> </text>
<polyline fill="none" stroke="black" points="11.8213,-451.5 78.1094,-451.5 "/>
<text text-anchor="start" x="19.8213" y="-439.5" font-family="Helvetica,sans-Serif" font-size="10.00">+ dispose()</text>
<text text-anchor="start" x="19.8213" y="-429.5" font-family="Helvetica,sans-Serif" font-size="10.00">+ equals()</text>
<text text-anchor="start" x="19.8213" y="-419.5" font-family="Helvetica,sans-Serif" font-size="10.00">+ toString()</text>
<text text-anchor="start" x="19.8213" y="-409.5" font-family="Helvetica,sans-Serif" font-size="10.00">+ toJSON()</text>
<text text-anchor="start" x="19.8213" y="-399.5" font-family="Helvetica,sans-Serif" font-size="10.00">+ valueOf()</text>
</a>
</g>
</g>
<!-- Node3&#45;&gt;Node2 -->
<g id="edge3" class="edge"><title>Node3&#45;&gt;Node2</title>
<path fill="none" stroke="midnightblue" d="M44.9653,-383.061C44.9653,-374.219 44.9653,-365.225 44.9653,-356.806"/>
<polygon fill="none" stroke="midnightblue" points="41.4654,-383.327 44.9653,-393.327 48.4654,-383.327 41.4654,-383.327"/>
</g>
</g>
</svg>
