<?xml version="1.0" encoding="UTF-8" standalone="no"?>
<!DOCTYPE svg PUBLIC "-//W3C//DTD SVG 1.1//EN"
 "http://www.w3.org/Graphics/SVG/1.1/DTD/svg11.dtd">
<!-- Generated by graphviz version 2.38.0 (20140413.2041)
 -->
<!-- Title: AsyncWait Pages: 1 -->
<svg width="74pt" height="315pt"
 viewBox="0.00 0.00 74.30 315.00" xmlns="http://www.w3.org/2000/svg" xmlns:xlink="http://www.w3.org/1999/xlink">
<g id="graph0" class="graph" transform="scale(1 1) rotate(0) translate(4 311)">
<title>AsyncWait</title>
<polygon fill="white" stroke="none" points="-4,4 -4,-311 70.2979,-311 70.2979,4 -4,4"/>
<!-- Node0 -->
<g id="node1" class="node"><title>Node0</title>
<polygon fill="#bfbfbf" stroke="black" points="1.71631,-0.5 1.71631,-54.5 64.5815,-54.5 64.5815,-0.5 1.71631,-0.5"/>
<text text-anchor="middle" x="33.1489" y="-42.5" font-family="Helvetica,sans-Serif" font-size="10.00">AsyncWait</text>
<polyline fill="none" stroke="black" points="1.71631,-36.5 64.5815,-36.5 "/>
<text text-anchor="middle" x="33.1489" y="-24.5" font-family="Helvetica,sans-Serif" font-size="10.00"> </text>
<polyline fill="none" stroke="black" points="1.71631,-18.5 64.5815,-18.5 "/>
<text text-anchor="start" x="9.71631" y="-6.5" font-family="Helvetica,sans-Serif" font-size="10.00">+ end()</text>
</g>
<!-- Node1 -->
<g id="node2" class="node"><title>Node1</title>
<g id="a_node2"><a xlink:href="../../da/d85/interfaceHandler.html" target="_top" xlink:title="消息处理器接口 ">
<polygon fill="white" stroke="black" points="0,-91.5 0,-175.5 66.2979,-175.5 66.2979,-91.5 0,-91.5"/>
<text text-anchor="middle" x="33.1489" y="-163.5" font-family="Helvetica,sans-Serif" font-size="10.00">Handler</text>
<polyline fill="none" stroke="black" points="0,-157.5 66.2979,-157.5 "/>
<text text-anchor="middle" x="33.1489" y="-145.5" font-family="Helvetica,sans-Serif" font-size="10.00"> </text>
<polyline fill="none" stroke="black" points="0,-139.5 66.2979,-139.5 "/>
<text text-anchor="start" x="8" y="-127.5" font-family="Helvetica,sans-Serif" font-size="10.00">+ Handler()</text>
<text text-anchor="start" x="8" y="-117.5" font-family="Helvetica,sans-Serif" font-size="10.00">+ Handler()</text>
<text text-anchor="start" x="8" y="-107.5" font-family="Helvetica,sans-Serif" font-size="10.00">+ Handler()</text>
<text text-anchor="start" x="8" y="-97.5" font-family="Helvetica,sans-Serif" font-size="10.00">+ invoke()</text>
</a>
</g>
</g>
<!-- Node1&#45;&gt;Node0 -->
<g id="edge1" class="edge"><title>Node1&#45;&gt;Node0</title>
<path fill="none" stroke="midnightblue" d="M33.1489,-81.1106C33.1489,-71.9368 33.1489,-62.7377 33.1489,-54.6555"/>
<polygon fill="none" stroke="midnightblue" points="29.649,-81.3964 33.1489,-91.3964 36.649,-81.3965 29.649,-81.3964"/>
</g>
<!-- Node2 -->
<g id="node3" class="node"><title>Node2</title>
<g id="a_node3"><a xlink:href="../../db/d38/interfaceobject.html" target="_top" xlink:title="基础对象，所有对象均继承于此 ">
<polygon fill="white" stroke="black" points="0.00488281,-212.5 0.00488281,-306.5 66.293,-306.5 66.293,-212.5 0.00488281,-212.5"/>
<text text-anchor="middle" x="33.1489" y="-294.5" font-family="Helvetica,sans-Serif" font-size="10.00">object</text>
<polyline fill="none" stroke="black" points="0.00488281,-288.5 66.293,-288.5 "/>
<text text-anchor="middle" x="33.1489" y="-276.5" font-family="Helvetica,sans-Serif" font-size="10.00"> </text>
<polyline fill="none" stroke="black" points="0.00488281,-270.5 66.293,-270.5 "/>
<text text-anchor="start" x="8.00488" y="-258.5" font-family="Helvetica,sans-Serif" font-size="10.00">+ dispose()</text>
<text text-anchor="start" x="8.00488" y="-248.5" font-family="Helvetica,sans-Serif" font-size="10.00">+ equals()</text>
<text text-anchor="start" x="8.00488" y="-238.5" font-family="Helvetica,sans-Serif" font-size="10.00">+ toString()</text>
<text text-anchor="start" x="8.00488" y="-228.5" font-family="Helvetica,sans-Serif" font-size="10.00">+ toJSON()</text>
<text text-anchor="start" x="8.00488" y="-218.5" font-family="Helvetica,sans-Serif" font-size="10.00">+ valueOf()</text>
</a>
</g>
</g>
<!-- Node2&#45;&gt;Node1 -->
<g id="edge2" class="edge"><title>Node2&#45;&gt;Node1</title>
<path fill="none" stroke="midnightblue" d="M33.1489,-202.061C33.1489,-193.219 33.1489,-184.225 33.1489,-175.806"/>
<polygon fill="none" stroke="midnightblue" points="29.649,-202.327 33.1489,-212.327 36.649,-202.327 29.649,-202.327"/>
</g>
</g>
</svg>
