<?xml version="1.0" encoding="UTF-8" standalone="no"?>
<!DOCTYPE svg PUBLIC "-//W3C//DTD SVG 1.1//EN"
 "http://www.w3.org/Graphics/SVG/1.1/DTD/svg11.dtd">
<!-- Generated by graphviz version 2.38.0 (20140413.2041)
 -->
<!-- Title: WebSocket Pages: 1 -->
<svg width="124pt" height="545pt"
 viewBox="0.00 0.00 124.31 545.00" xmlns="http://www.w3.org/2000/svg" xmlns:xlink="http://www.w3.org/1999/xlink">
<g id="graph0" class="graph" transform="scale(1 1) rotate(0) translate(4 541)">
<title>WebSocket</title>
<polygon fill="white" stroke="none" points="-4,4 -4,-541 120.312,-541 120.312,4 -4,4"/>
<!-- Node0 -->
<g id="node1" class="node"><title>Node0</title>
<polygon fill="#bfbfbf" stroke="black" points="17.0386,-0.5 17.0386,-154.5 99.2739,-154.5 99.2739,-0.5 17.0386,-0.5"/>
<text text-anchor="middle" x="58.1562" y="-142.5" font-family="Helvetica,sans-Serif" font-size="10.00">WebSocket</text>
<polyline fill="none" stroke="black" points="17.0386,-136.5 99.2739,-136.5 "/>
<text text-anchor="start" x="25.0386" y="-124.5" font-family="Helvetica,sans-Serif" font-size="10.00">+ url</text>
<text text-anchor="start" x="25.0386" y="-114.5" font-family="Helvetica,sans-Serif" font-size="10.00">+ protocol</text>
<text text-anchor="start" x="25.0386" y="-104.5" font-family="Helvetica,sans-Serif" font-size="10.00">+ origin</text>
<text text-anchor="start" x="25.0386" y="-94.5" font-family="Helvetica,sans-Serif" font-size="10.00">+ readyState</text>
<text text-anchor="start" x="25.0386" y="-84.5" font-family="Helvetica,sans-Serif" font-size="10.00">+ onopen</text>
<text text-anchor="start" x="25.0386" y="-74.5" font-family="Helvetica,sans-Serif" font-size="10.00">+ onmessage</text>
<text text-anchor="start" x="25.0386" y="-64.5" font-family="Helvetica,sans-Serif" font-size="10.00">+ onclose</text>
<text text-anchor="start" x="25.0386" y="-54.5" font-family="Helvetica,sans-Serif" font-size="10.00">+ onerror</text>
<polyline fill="none" stroke="black" points="17.0386,-48.5 99.2739,-48.5 "/>
<text text-anchor="start" x="25.0386" y="-36.5" font-family="Helvetica,sans-Serif" font-size="10.00">+ WebSocket()</text>
<text text-anchor="start" x="25.0386" y="-26.5" font-family="Helvetica,sans-Serif" font-size="10.00">+ close()</text>
<text text-anchor="start" x="25.0386" y="-16.5" font-family="Helvetica,sans-Serif" font-size="10.00">+ send()</text>
<text text-anchor="start" x="25.0386" y="-6.5" font-family="Helvetica,sans-Serif" font-size="10.00">+ send()</text>
</g>
<!-- Node1 -->
<g id="node2" class="node"><title>Node1</title>
<g id="a_node2"><a xlink:href="../../dd/df3/interfaceEventEmitter.html" target="_top" xlink:title="事件触发对象，可用于建立观察者模式，支持事件触发的对象均继承于此，同一事件的同一函数只会产生一次回调 ...">
<polygon fill="white" stroke="black" points="0,-191.5 0,-405.5 116.312,-405.5 116.312,-191.5 0,-191.5"/>
<text text-anchor="middle" x="58.1562" y="-393.5" font-family="Helvetica,sans-Serif" font-size="10.00">EventEmitter</text>
<polyline fill="none" stroke="black" points="0,-387.5 116.312,-387.5 "/>
<text text-anchor="middle" x="58.1562" y="-375.5" font-family="Helvetica,sans-Serif" font-size="10.00"> </text>
<polyline fill="none" stroke="black" points="0,-369.5 116.312,-369.5 "/>
<text text-anchor="start" x="8" y="-357.5" font-family="Helvetica,sans-Serif" font-size="10.00">+ EventEmitter()</text>
<text text-anchor="start" x="8" y="-347.5" font-family="Helvetica,sans-Serif" font-size="10.00">+ on()</text>
<text text-anchor="start" x="8" y="-337.5" font-family="Helvetica,sans-Serif" font-size="10.00">+ on()</text>
<text text-anchor="start" x="8" y="-327.5" font-family="Helvetica,sans-Serif" font-size="10.00">+ addListener()</text>
<text text-anchor="start" x="8" y="-317.5" font-family="Helvetica,sans-Serif" font-size="10.00">+ addListener()</text>
<text text-anchor="start" x="8" y="-307.5" font-family="Helvetica,sans-Serif" font-size="10.00">+ once()</text>
<text text-anchor="start" x="8" y="-297.5" font-family="Helvetica,sans-Serif" font-size="10.00">+ once()</text>
<text text-anchor="start" x="8" y="-287.5" font-family="Helvetica,sans-Serif" font-size="10.00">+ off()</text>
<text text-anchor="start" x="8" y="-277.5" font-family="Helvetica,sans-Serif" font-size="10.00">+ off()</text>
<text text-anchor="start" x="8" y="-267.5" font-family="Helvetica,sans-Serif" font-size="10.00">+ off()</text>
<text text-anchor="start" x="8" y="-257.5" font-family="Helvetica,sans-Serif" font-size="10.00">+ removeListener()</text>
<text text-anchor="start" x="8" y="-247.5" font-family="Helvetica,sans-Serif" font-size="10.00">+ removeListener()</text>
<text text-anchor="start" x="8" y="-237.5" font-family="Helvetica,sans-Serif" font-size="10.00">+ removeListener()</text>
<text text-anchor="start" x="8" y="-227.5" font-family="Helvetica,sans-Serif" font-size="10.00">+ removeAllListeners()</text>
<text text-anchor="start" x="8" y="-217.5" font-family="Helvetica,sans-Serif" font-size="10.00">+ setMaxListeners()</text>
<text text-anchor="start" x="8" y="-207.5" font-family="Helvetica,sans-Serif" font-size="10.00">+ listeners()</text>
<text text-anchor="start" x="8" y="-197.5" font-family="Helvetica,sans-Serif" font-size="10.00">+ emit()</text>
</a>
</g>
</g>
<!-- Node1&#45;&gt;Node0 -->
<g id="edge1" class="edge"><title>Node1&#45;&gt;Node0</title>
<path fill="none" stroke="midnightblue" d="M58.1562,-181.106C58.1562,-172.171 58.1562,-163.297 58.1562,-154.725"/>
<polygon fill="none" stroke="midnightblue" points="54.6563,-181.208 58.1562,-191.208 61.6563,-181.208 54.6563,-181.208"/>
</g>
<!-- Node2 -->
<g id="node3" class="node"><title>Node2</title>
<g id="a_node3"><a xlink:href="../../db/d38/interfaceobject.html" target="_top" xlink:title="基础对象，所有对象均继承于此 ">
<polygon fill="white" stroke="black" points="25.0122,-442.5 25.0122,-536.5 91.3003,-536.5 91.3003,-442.5 25.0122,-442.5"/>
<text text-anchor="middle" x="58.1562" y="-524.5" font-family="Helvetica,sans-Serif" font-size="10.00">object</text>
<polyline fill="none" stroke="black" points="25.0122,-518.5 91.3003,-518.5 "/>
<text text-anchor="middle" x="58.1562" y="-506.5" font-family="Helvetica,sans-Serif" font-size="10.00"> </text>
<polyline fill="none" stroke="black" points="25.0122,-500.5 91.3003,-500.5 "/>
<text text-anchor="start" x="33.0122" y="-488.5" font-family="Helvetica,sans-Serif" font-size="10.00">+ dispose()</text>
<text text-anchor="start" x="33.0122" y="-478.5" font-family="Helvetica,sans-Serif" font-size="10.00">+ equals()</text>
<text text-anchor="start" x="33.0122" y="-468.5" font-family="Helvetica,sans-Serif" font-size="10.00">+ toString()</text>
<text text-anchor="start" x="33.0122" y="-458.5" font-family="Helvetica,sans-Serif" font-size="10.00">+ toJSON()</text>
<text text-anchor="start" x="33.0122" y="-448.5" font-family="Helvetica,sans-Serif" font-size="10.00">+ valueOf()</text>
</a>
</g>
</g>
<!-- Node2&#45;&gt;Node1 -->
<g id="edge2" class="edge"><title>Node2&#45;&gt;Node1</title>
<path fill="none" stroke="midnightblue" d="M58.1562,-432.214C58.1562,-423.755 58.1562,-414.805 58.1562,-405.708"/>
<polygon fill="none" stroke="midnightblue" points="54.6563,-432.265 58.1562,-442.265 61.6563,-432.265 54.6563,-432.265"/>
</g>
</g>
</svg>
