<?xml version="1.0" encoding="UTF-8" standalone="no"?>
<!DOCTYPE svg PUBLIC "-//W3C//DTD SVG 1.1//EN"
 "http://www.w3.org/Graphics/SVG/1.1/DTD/svg11.dtd">
<!-- Generated by graphviz version 2.38.0 (20140413.2041)
 -->
<!-- Title: Lock Pages: 1 -->
<svg width="257pt" height="365pt"
 viewBox="0.00 0.00 257.25 365.00" xmlns="http://www.w3.org/2000/svg" xmlns:xlink="http://www.w3.org/1999/xlink">
<g id="graph0" class="graph" transform="scale(1 1) rotate(0) translate(4 361)">
<title>Lock</title>
<polygon fill="white" stroke="none" points="-4,4 -4,-361 253.253,-361 253.253,4 -4,4"/>
<!-- Node0 -->
<g id="node1" class="node"><title>Node0</title>
<polygon fill="#bfbfbf" stroke="black" points="87.7266,-141.5 87.7266,-225.5 151.803,-225.5 151.803,-141.5 87.7266,-141.5"/>
<text text-anchor="middle" x="119.765" y="-213.5" font-family="Helvetica,sans-Serif" font-size="10.00">Lock</text>
<polyline fill="none" stroke="black" points="87.7266,-207.5 151.803,-207.5 "/>
<text text-anchor="middle" x="119.765" y="-195.5" font-family="Helvetica,sans-Serif" font-size="10.00"> </text>
<polyline fill="none" stroke="black" points="87.7266,-189.5 151.803,-189.5 "/>
<text text-anchor="start" x="95.7266" y="-177.5" font-family="Helvetica,sans-Serif" font-size="10.00">+ Lock()</text>
<text text-anchor="start" x="95.7266" y="-167.5" font-family="Helvetica,sans-Serif" font-size="10.00">+ acquire()</text>
<text text-anchor="start" x="95.7266" y="-157.5" font-family="Helvetica,sans-Serif" font-size="10.00">+ release()</text>
<text text-anchor="start" x="95.7266" y="-147.5" font-family="Helvetica,sans-Serif" font-size="10.00">+ count()</text>
</g>
<!-- Node2 -->
<g id="node3" class="node"><title>Node2</title>
<g id="a_node3"><a xlink:href="../../d5/d45/interfaceCondition.html" target="_top" xlink:title="条件变量对象 ">
<polygon fill="white" stroke="black" points="0,-5.5 0,-99.5 73.5293,-99.5 73.5293,-5.5 0,-5.5"/>
<text text-anchor="middle" x="36.7646" y="-87.5" font-family="Helvetica,sans-Serif" font-size="10.00">Condition</text>
<polyline fill="none" stroke="black" points="0,-81.5 73.5293,-81.5 "/>
<text text-anchor="middle" x="36.7646" y="-69.5" font-family="Helvetica,sans-Serif" font-size="10.00"> </text>
<polyline fill="none" stroke="black" points="0,-63.5 73.5293,-63.5 "/>
<text text-anchor="start" x="8" y="-51.5" font-family="Helvetica,sans-Serif" font-size="10.00">+ Condition()</text>
<text text-anchor="start" x="8" y="-41.5" font-family="Helvetica,sans-Serif" font-size="10.00">+ Condition()</text>
<text text-anchor="start" x="8" y="-31.5" font-family="Helvetica,sans-Serif" font-size="10.00">+ wait()</text>
<text text-anchor="start" x="8" y="-21.5" font-family="Helvetica,sans-Serif" font-size="10.00">+ notify()</text>
<text text-anchor="start" x="8" y="-11.5" font-family="Helvetica,sans-Serif" font-size="10.00">+ notifyAll()</text>
</a>
</g>
</g>
<!-- Node0&#45;&gt;Node2 -->
<g id="edge2" class="edge"><title>Node0&#45;&gt;Node2</title>
<path fill="none" stroke="midnightblue" d="M87.7563,-132.752C80.753,-121.867 73.3687,-110.391 66.4603,-99.6536"/>
<polygon fill="none" stroke="midnightblue" points="84.9204,-134.813 93.2747,-141.329 90.8072,-131.025 84.9204,-134.813"/>
</g>
<!-- Node3 -->
<g id="node4" class="node"><title>Node3</title>
<g id="a_node4"><a xlink:href="../../d7/ddf/interfaceEvent.html" target="_top" xlink:title="事件对象 ">
<polygon fill="white" stroke="black" points="91.3398,-0.5 91.3398,-104.5 148.189,-104.5 148.189,-0.5 91.3398,-0.5"/>
<text text-anchor="middle" x="119.765" y="-92.5" font-family="Helvetica,sans-Serif" font-size="10.00">Event</text>
<polyline fill="none" stroke="black" points="91.3398,-86.5 148.189,-86.5 "/>
<text text-anchor="middle" x="119.765" y="-74.5" font-family="Helvetica,sans-Serif" font-size="10.00"> </text>
<polyline fill="none" stroke="black" points="91.3398,-68.5 148.189,-68.5 "/>
<text text-anchor="start" x="99.3398" y="-56.5" font-family="Helvetica,sans-Serif" font-size="10.00">+ Event()</text>
<text text-anchor="start" x="99.3398" y="-46.5" font-family="Helvetica,sans-Serif" font-size="10.00">+ isSet()</text>
<text text-anchor="start" x="99.3398" y="-36.5" font-family="Helvetica,sans-Serif" font-size="10.00">+ set()</text>
<text text-anchor="start" x="99.3398" y="-26.5" font-family="Helvetica,sans-Serif" font-size="10.00">+ pulse()</text>
<text text-anchor="start" x="99.3398" y="-16.5" font-family="Helvetica,sans-Serif" font-size="10.00">+ clear()</text>
<text text-anchor="start" x="99.3398" y="-6.5" font-family="Helvetica,sans-Serif" font-size="10.00">+ wait()</text>
</a>
</g>
</g>
<!-- Node0&#45;&gt;Node3 -->
<g id="edge3" class="edge"><title>Node0&#45;&gt;Node3</title>
<path fill="none" stroke="midnightblue" d="M119.765,-131.261C119.765,-122.517 119.765,-113.434 119.765,-104.691"/>
<polygon fill="none" stroke="midnightblue" points="116.265,-131.329 119.765,-141.329 123.265,-131.329 116.265,-131.329"/>
</g>
<!-- Node4 -->
<g id="node5" class="node"><title>Node4</title>
<g id="a_node5"><a xlink:href="../../dc/d90/interfaceSemaphore.html" target="_top" xlink:title="纤程信号量对象 ">
<polygon fill="white" stroke="black" points="166.276,-10.5 166.276,-94.5 249.253,-94.5 249.253,-10.5 166.276,-10.5"/>
<text text-anchor="middle" x="207.765" y="-82.5" font-family="Helvetica,sans-Serif" font-size="10.00">Semaphore</text>
<polyline fill="none" stroke="black" points="166.276,-76.5 249.253,-76.5 "/>
<text text-anchor="middle" x="207.765" y="-64.5" font-family="Helvetica,sans-Serif" font-size="10.00"> </text>
<polyline fill="none" stroke="black" points="166.276,-58.5 249.253,-58.5 "/>
<text text-anchor="start" x="174.276" y="-46.5" font-family="Helvetica,sans-Serif" font-size="10.00">+ Semaphore()</text>
<text text-anchor="start" x="174.276" y="-36.5" font-family="Helvetica,sans-Serif" font-size="10.00">+ wait()</text>
<text text-anchor="start" x="174.276" y="-26.5" font-family="Helvetica,sans-Serif" font-size="10.00">+ post()</text>
<text text-anchor="start" x="174.276" y="-16.5" font-family="Helvetica,sans-Serif" font-size="10.00">+ trywait()</text>
</a>
</g>
</g>
<!-- Node0&#45;&gt;Node4 -->
<g id="edge4" class="edge"><title>Node0&#45;&gt;Node4</title>
<path fill="none" stroke="midnightblue" d="M153.687,-132.774C162.266,-120.197 171.386,-106.828 179.644,-94.7224"/>
<polygon fill="none" stroke="midnightblue" points="150.594,-131.096 147.85,-141.329 156.377,-135.04 150.594,-131.096"/>
</g>
<!-- Node1 -->
<g id="node2" class="node"><title>Node1</title>
<g id="a_node2"><a xlink:href="../../db/d38/interfaceobject.html" target="_top" xlink:title="基础对象，所有对象均继承于此 ">
<polygon fill="white" stroke="black" points="86.6206,-262.5 86.6206,-356.5 152.909,-356.5 152.909,-262.5 86.6206,-262.5"/>
<text text-anchor="middle" x="119.765" y="-344.5" font-family="Helvetica,sans-Serif" font-size="10.00">object</text>
<polyline fill="none" stroke="black" points="86.6206,-338.5 152.909,-338.5 "/>
<text text-anchor="middle" x="119.765" y="-326.5" font-family="Helvetica,sans-Serif" font-size="10.00"> </text>
<polyline fill="none" stroke="black" points="86.6206,-320.5 152.909,-320.5 "/>
<text text-anchor="start" x="94.6206" y="-308.5" font-family="Helvetica,sans-Serif" font-size="10.00">+ dispose()</text>
<text text-anchor="start" x="94.6206" y="-298.5" font-family="Helvetica,sans-Serif" font-size="10.00">+ equals()</text>
<text text-anchor="start" x="94.6206" y="-288.5" font-family="Helvetica,sans-Serif" font-size="10.00">+ toString()</text>
<text text-anchor="start" x="94.6206" y="-278.5" font-family="Helvetica,sans-Serif" font-size="10.00">+ toJSON()</text>
<text text-anchor="start" x="94.6206" y="-268.5" font-family="Helvetica,sans-Serif" font-size="10.00">+ valueOf()</text>
</a>
</g>
</g>
<!-- Node1&#45;&gt;Node0 -->
<g id="edge1" class="edge"><title>Node1&#45;&gt;Node0</title>
<path fill="none" stroke="midnightblue" d="M119.765,-252.061C119.765,-243.219 119.765,-234.225 119.765,-225.806"/>
<polygon fill="none" stroke="midnightblue" points="116.265,-252.327 119.765,-262.327 123.265,-252.327 116.265,-252.327"/>
</g>
</g>
</svg>
