<?xml version="1.0" encoding="UTF-8" standalone="no"?>
<!DOCTYPE svg PUBLIC "-//W3C//DTD SVG 1.1//EN"
 "http://www.w3.org/Graphics/SVG/1.1/DTD/svg11.dtd">
<!-- Generated by graphviz version 2.38.0 (20140413.2041)
 -->
<!-- Title: Handler Pages: 1 -->
<svg width="418pt" height="616pt"
 viewBox="0.00 0.00 417.53 616.00" xmlns="http://www.w3.org/2000/svg" xmlns:xlink="http://www.w3.org/1999/xlink">
<g id="graph0" class="graph" transform="scale(1 1) rotate(0) translate(4 612)">
<title>Handler</title>
<polygon fill="white" stroke="none" points="-4,4 -4,-612 413.527,-612 413.527,4 -4,4"/>
<!-- Node0 -->
<g id="node1" class="node"><title>Node0</title>
<polygon fill="#bfbfbf" stroke="black" points="162.284,-392.5 162.284,-476.5 228.582,-476.5 228.582,-392.5 162.284,-392.5"/>
<text text-anchor="middle" x="195.433" y="-464.5" font-family="Helvetica,sans-Serif" font-size="10.00">Handler</text>
<polyline fill="none" stroke="black" points="162.284,-458.5 228.582,-458.5 "/>
<text text-anchor="middle" x="195.433" y="-446.5" font-family="Helvetica,sans-Serif" font-size="10.00"> </text>
<polyline fill="none" stroke="black" points="162.284,-440.5 228.582,-440.5 "/>
<text text-anchor="start" x="170.284" y="-428.5" font-family="Helvetica,sans-Serif" font-size="10.00">+ Handler()</text>
<text text-anchor="start" x="170.284" y="-418.5" font-family="Helvetica,sans-Serif" font-size="10.00">+ Handler()</text>
<text text-anchor="start" x="170.284" y="-408.5" font-family="Helvetica,sans-Serif" font-size="10.00">+ Handler()</text>
<text text-anchor="start" x="170.284" y="-398.5" font-family="Helvetica,sans-Serif" font-size="10.00">+ invoke()</text>
</g>
<!-- Node2 -->
<g id="node3" class="node"><title>Node2</title>
<g id="a_node3"><a xlink:href="../../d2/d88/interfaceAsyncWait.html" target="_top" xlink:title="消息处理器异步等待对象 ">
<polygon fill="white" stroke="black" points="0,-211.5 0,-265.5 62.8652,-265.5 62.8652,-211.5 0,-211.5"/>
<text text-anchor="middle" x="31.4326" y="-253.5" font-family="Helvetica,sans-Serif" font-size="10.00">AsyncWait</text>
<polyline fill="none" stroke="black" points="0,-247.5 62.8652,-247.5 "/>
<text text-anchor="middle" x="31.4326" y="-235.5" font-family="Helvetica,sans-Serif" font-size="10.00"> </text>
<polyline fill="none" stroke="black" points="0,-229.5 62.8652,-229.5 "/>
<text text-anchor="start" x="8" y="-217.5" font-family="Helvetica,sans-Serif" font-size="10.00">+ end()</text>
</a>
</g>
</g>
<!-- Node0&#45;&gt;Node2 -->
<g id="edge2" class="edge"><title>Node0&#45;&gt;Node2</title>
<path fill="none" stroke="midnightblue" d="M152.996,-415.668C126.545,-402.618 93.6256,-382.56 72.4326,-356 51.1691,-329.351 40.5028,-290.865 35.4726,-265.525"/>
<polygon fill="none" stroke="midnightblue" points="151.52,-418.841 162.052,-419.99 154.535,-412.524 151.52,-418.841"/>
</g>
<!-- Node3 -->
<g id="node4" class="node"><title>Node3</title>
<g id="a_node4"><a xlink:href="../../d3/d78/interfaceChain.html" target="_top" xlink:title="消息处理器链处理对象 ">
<polygon fill="white" stroke="black" points="81.1089,-201.5 81.1089,-275.5 145.756,-275.5 145.756,-201.5 81.1089,-201.5"/>
<text text-anchor="middle" x="113.433" y="-263.5" font-family="Helvetica,sans-Serif" font-size="10.00">Chain</text>
<polyline fill="none" stroke="black" points="81.1089,-257.5 145.756,-257.5 "/>
<text text-anchor="middle" x="113.433" y="-245.5" font-family="Helvetica,sans-Serif" font-size="10.00"> </text>
<polyline fill="none" stroke="black" points="81.1089,-239.5 145.756,-239.5 "/>
<text text-anchor="start" x="89.1089" y="-227.5" font-family="Helvetica,sans-Serif" font-size="10.00">+ Chain()</text>
<text text-anchor="start" x="89.1089" y="-217.5" font-family="Helvetica,sans-Serif" font-size="10.00">+ append()</text>
<text text-anchor="start" x="89.1089" y="-207.5" font-family="Helvetica,sans-Serif" font-size="10.00">+ append()</text>
</a>
</g>
</g>
<!-- Node0&#45;&gt;Node3 -->
<g id="edge3" class="edge"><title>Node0&#45;&gt;Node3</title>
<path fill="none" stroke="midnightblue" d="M167.393,-383.098C162.829,-374.181 158.328,-364.901 154.433,-356 142.914,-329.678 132.221,-298.992 124.644,-275.723"/>
<polygon fill="none" stroke="midnightblue" points="164.424,-384.975 172.148,-392.228 170.632,-381.742 164.424,-384.975"/>
</g>
<!-- Node4 -->
<g id="node5" class="node"><title>Node4</title>
<g id="a_node5"><a xlink:href="../../dc/de5/interfaceHandlerEx.html" target="_top" xlink:title="扩展消息处理器接口 ">
<polygon fill="white" stroke="black" points="163.675,-206.5 163.675,-270.5 227.19,-270.5 227.19,-206.5 163.675,-206.5"/>
<text text-anchor="middle" x="195.433" y="-258.5" font-family="Helvetica,sans-Serif" font-size="10.00">HandlerEx</text>
<polyline fill="none" stroke="black" points="163.675,-252.5 227.19,-252.5 "/>
<text text-anchor="start" x="171.675" y="-240.5" font-family="Helvetica,sans-Serif" font-size="10.00">+ handler</text>
<text text-anchor="start" x="171.675" y="-230.5" font-family="Helvetica,sans-Serif" font-size="10.00">+ stats</text>
<polyline fill="none" stroke="black" points="163.675,-224.5 227.19,-224.5 "/>
<text text-anchor="start" x="171.675" y="-212.5" font-family="Helvetica,sans-Serif" font-size="10.00">+ onerror()</text>
</a>
</g>
</g>
<!-- Node0&#45;&gt;Node4 -->
<g id="edge4" class="edge"><title>Node0&#45;&gt;Node4</title>
<path fill="none" stroke="midnightblue" d="M195.433,-382.195C195.433,-346.751 195.433,-300.757 195.433,-270.703"/>
<polygon fill="none" stroke="midnightblue" points="191.933,-382.358 195.433,-392.358 198.933,-382.358 191.933,-382.358"/>
</g>
<!-- Node7 -->
<g id="node8" class="node"><title>Node7</title>
<g id="a_node8"><a xlink:href="../../df/dcb/interfaceRouting.html" target="_top" xlink:title="消息处理器路由对象 ">
<polygon fill="white" stroke="black" points="245.56,-121.5 245.56,-355.5 311.306,-355.5 311.306,-121.5 245.56,-121.5"/>
<text text-anchor="middle" x="278.433" y="-343.5" font-family="Helvetica,sans-Serif" font-size="10.00">Routing</text>
<polyline fill="none" stroke="black" points="245.56,-337.5 311.306,-337.5 "/>
<text text-anchor="middle" x="278.433" y="-325.5" font-family="Helvetica,sans-Serif" font-size="10.00"> </text>
<polyline fill="none" stroke="black" points="245.56,-319.5 311.306,-319.5 "/>
<text text-anchor="start" x="253.56" y="-307.5" font-family="Helvetica,sans-Serif" font-size="10.00">+ Routing()</text>
<text text-anchor="start" x="253.56" y="-297.5" font-family="Helvetica,sans-Serif" font-size="10.00">+ Routing()</text>
<text text-anchor="start" x="253.56" y="-287.5" font-family="Helvetica,sans-Serif" font-size="10.00">+ append()</text>
<text text-anchor="start" x="253.56" y="-277.5" font-family="Helvetica,sans-Serif" font-size="10.00">+ append()</text>
<text text-anchor="start" x="253.56" y="-267.5" font-family="Helvetica,sans-Serif" font-size="10.00">+ append()</text>
<text text-anchor="start" x="253.56" y="-257.5" font-family="Helvetica,sans-Serif" font-size="10.00">+ append()</text>
<text text-anchor="start" x="253.56" y="-247.5" font-family="Helvetica,sans-Serif" font-size="10.00">+ append()</text>
<text text-anchor="start" x="253.56" y="-237.5" font-family="Helvetica,sans-Serif" font-size="10.00">+ all()</text>
<text text-anchor="start" x="253.56" y="-227.5" font-family="Helvetica,sans-Serif" font-size="10.00">+ all()</text>
<text text-anchor="start" x="253.56" y="-217.5" font-family="Helvetica,sans-Serif" font-size="10.00">+ get()</text>
<text text-anchor="start" x="253.56" y="-207.5" font-family="Helvetica,sans-Serif" font-size="10.00">+ get()</text>
<text text-anchor="start" x="253.56" y="-197.5" font-family="Helvetica,sans-Serif" font-size="10.00">+ post()</text>
<text text-anchor="start" x="253.56" y="-187.5" font-family="Helvetica,sans-Serif" font-size="10.00">+ post()</text>
<text text-anchor="start" x="253.56" y="-177.5" font-family="Helvetica,sans-Serif" font-size="10.00">+ del()</text>
<text text-anchor="start" x="253.56" y="-167.5" font-family="Helvetica,sans-Serif" font-size="10.00">+ del()</text>
<text text-anchor="start" x="253.56" y="-157.5" font-family="Helvetica,sans-Serif" font-size="10.00">+ put()</text>
<text text-anchor="start" x="253.56" y="-147.5" font-family="Helvetica,sans-Serif" font-size="10.00">+ put()</text>
<text text-anchor="start" x="253.56" y="-137.5" font-family="Helvetica,sans-Serif" font-size="10.00">+ patch()</text>
<text text-anchor="start" x="253.56" y="-127.5" font-family="Helvetica,sans-Serif" font-size="10.00">+ patch()</text>
</a>
</g>
</g>
<!-- Node0&#45;&gt;Node7 -->
<g id="edge7" class="edge"><title>Node0&#45;&gt;Node7</title>
<path fill="none" stroke="midnightblue" d="M223.415,-383.073C227.985,-374.159 232.504,-364.886 236.433,-356 239.519,-349.019 242.557,-341.735 245.501,-334.364"/>
<polygon fill="none" stroke="midnightblue" points="220.176,-381.716 218.657,-392.201 226.383,-384.951 220.176,-381.716"/>
</g>
<!-- Node8 -->
<g id="node9" class="node"><title>Node8</title>
<g id="a_node9"><a xlink:href="../../df/dd8/interfaceSslHandler.html" target="_top" xlink:title="ssl 协议转换处理器 ">
<polygon fill="white" stroke="black" points="329.338,-196.5 329.338,-280.5 409.527,-280.5 409.527,-196.5 329.338,-196.5"/>
<text text-anchor="middle" x="369.433" y="-268.5" font-family="Helvetica,sans-Serif" font-size="10.00">SslHandler</text>
<polyline fill="none" stroke="black" points="329.338,-262.5 409.527,-262.5 "/>
<text text-anchor="start" x="337.338" y="-250.5" font-family="Helvetica,sans-Serif" font-size="10.00">+ verification</text>
<text text-anchor="start" x="337.338" y="-240.5" font-family="Helvetica,sans-Serif" font-size="10.00">+ ca</text>
<text text-anchor="start" x="337.338" y="-230.5" font-family="Helvetica,sans-Serif" font-size="10.00">+ handler</text>
<polyline fill="none" stroke="black" points="329.338,-224.5 409.527,-224.5 "/>
<text text-anchor="start" x="337.338" y="-212.5" font-family="Helvetica,sans-Serif" font-size="10.00">+ SslHandler()</text>
<text text-anchor="start" x="337.338" y="-202.5" font-family="Helvetica,sans-Serif" font-size="10.00">+ SslHandler()</text>
</a>
</g>
</g>
<!-- Node0&#45;&gt;Node8 -->
<g id="edge8" class="edge"><title>Node0&#45;&gt;Node8</title>
<path fill="none" stroke="midnightblue" d="M237.761,-415.513C264.469,-402.35 298.03,-382.224 320.433,-356 338.96,-334.312 351.306,-304.608 358.972,-280.623"/>
<polygon fill="none" stroke="midnightblue" points="236.143,-412.407 228.629,-419.877 239.161,-418.723 236.143,-412.407"/>
</g>
<!-- Node1 -->
<g id="node2" class="node"><title>Node1</title>
<g id="a_node2"><a xlink:href="../../db/d38/interfaceobject.html" target="_top" xlink:title="基础对象，所有对象均继承于此 ">
<polygon fill="white" stroke="black" points="162.289,-513.5 162.289,-607.5 228.577,-607.5 228.577,-513.5 162.289,-513.5"/>
<text text-anchor="middle" x="195.433" y="-595.5" font-family="Helvetica,sans-Serif" font-size="10.00">object</text>
<polyline fill="none" stroke="black" points="162.289,-589.5 228.577,-589.5 "/>
<text text-anchor="middle" x="195.433" y="-577.5" font-family="Helvetica,sans-Serif" font-size="10.00"> </text>
<polyline fill="none" stroke="black" points="162.289,-571.5 228.577,-571.5 "/>
<text text-anchor="start" x="170.289" y="-559.5" font-family="Helvetica,sans-Serif" font-size="10.00">+ dispose()</text>
<text text-anchor="start" x="170.289" y="-549.5" font-family="Helvetica,sans-Serif" font-size="10.00">+ equals()</text>
<text text-anchor="start" x="170.289" y="-539.5" font-family="Helvetica,sans-Serif" font-size="10.00">+ toString()</text>
<text text-anchor="start" x="170.289" y="-529.5" font-family="Helvetica,sans-Serif" font-size="10.00">+ toJSON()</text>
<text text-anchor="start" x="170.289" y="-519.5" font-family="Helvetica,sans-Serif" font-size="10.00">+ valueOf()</text>
</a>
</g>
</g>
<!-- Node1&#45;&gt;Node0 -->
<g id="edge1" class="edge"><title>Node1&#45;&gt;Node0</title>
<path fill="none" stroke="midnightblue" d="M195.433,-503.061C195.433,-494.219 195.433,-485.225 195.433,-476.806"/>
<polygon fill="none" stroke="midnightblue" points="191.933,-503.327 195.433,-513.327 198.933,-503.327 191.933,-503.327"/>
</g>
<!-- Node5 -->
<g id="node6" class="node"><title>Node5</title>
<g id="a_node6"><a xlink:href="../../d6/d18/interfaceHttpHandler.html" target="_top" xlink:title="http 协议转换处理器 ">
<polygon fill="white" stroke="black" points="76.4365,-0.5 76.4365,-84.5 184.429,-84.5 184.429,-0.5 76.4365,-0.5"/>
<text text-anchor="middle" x="130.433" y="-72.5" font-family="Helvetica,sans-Serif" font-size="10.00">HttpHandler</text>
<polyline fill="none" stroke="black" points="76.4365,-66.5 184.429,-66.5 "/>
<text text-anchor="start" x="84.4365" y="-54.5" font-family="Helvetica,sans-Serif" font-size="10.00">+ crossDomain</text>
<text text-anchor="start" x="84.4365" y="-44.5" font-family="Helvetica,sans-Serif" font-size="10.00">+ forceGZIP</text>
<text text-anchor="start" x="84.4365" y="-34.5" font-family="Helvetica,sans-Serif" font-size="10.00">+ maxHeadersCount</text>
<text text-anchor="start" x="84.4365" y="-24.5" font-family="Helvetica,sans-Serif" font-size="10.00">+ maxUploadSize</text>
<polyline fill="none" stroke="black" points="76.4365,-18.5 184.429,-18.5 "/>
<text text-anchor="start" x="84.4365" y="-6.5" font-family="Helvetica,sans-Serif" font-size="10.00">+ HttpHandler()</text>
</a>
</g>
</g>
<!-- Node4&#45;&gt;Node5 -->
<g id="edge5" class="edge"><title>Node4&#45;&gt;Node5</title>
<path fill="none" stroke="midnightblue" d="M181.72,-196.574C170.702,-163.689 155.296,-117.707 144.25,-84.7388"/>
<polygon fill="none" stroke="midnightblue" points="178.494,-197.961 184.989,-206.331 185.131,-195.737 178.494,-197.961"/>
</g>
<!-- Node6 -->
<g id="node7" class="node"><title>Node6</title>
<g id="a_node7"><a xlink:href="../../da/d20/interfaceWebSocketHandler.html" target="_top" xlink:title="WebSocket 包协议转换处理器 ">
<polygon fill="white" stroke="black" points="202.805,-15.5 202.805,-69.5 320.06,-69.5 320.06,-15.5 202.805,-15.5"/>
<text text-anchor="middle" x="261.433" y="-57.5" font-family="Helvetica,sans-Serif" font-size="10.00">WebSocketHandler</text>
<polyline fill="none" stroke="black" points="202.805,-51.5 320.06,-51.5 "/>
<text text-anchor="start" x="210.805" y="-39.5" font-family="Helvetica,sans-Serif" font-size="10.00">+ maxSize</text>
<polyline fill="none" stroke="black" points="202.805,-33.5 320.06,-33.5 "/>
<text text-anchor="start" x="210.805" y="-21.5" font-family="Helvetica,sans-Serif" font-size="10.00">+ WebSocketHandler()</text>
</a>
</g>
</g>
<!-- Node4&#45;&gt;Node6 -->
<g id="edge6" class="edge"><title>Node4&#45;&gt;Node6</title>
<path fill="none" stroke="midnightblue" d="M209.376,-196.516C222.407,-158.212 241.47,-102.179 252.548,-69.6165"/>
<polygon fill="none" stroke="midnightblue" points="205.944,-195.736 206.037,-206.331 212.571,-197.991 205.944,-195.736"/>
</g>
</g>
</svg>
