<?xml version="1.0" encoding="UTF-8" standalone="no"?>
<!DOCTYPE svg PUBLIC "-//W3C//DTD SVG 1.1//EN"
 "http://www.w3.org/Graphics/SVG/1.1/DTD/svg11.dtd">
<!-- Generated by graphviz version 2.38.0 (20140413.2041)
 -->
<!-- Title: HttpMessage Pages: 1 -->
<svg width="208pt" height="736pt"
 viewBox="0.00 0.00 207.76 736.00" xmlns="http://www.w3.org/2000/svg" xmlns:xlink="http://www.w3.org/1999/xlink">
<g id="graph0" class="graph" transform="scale(1 1) rotate(0) translate(4 732)">
<title>HttpMessage</title>
<polygon fill="white" stroke="none" points="-4,4 -4,-732 203.756,-732 203.756,4 -4,4"/>
<!-- Node0 -->
<g id="node1" class="node"><title>Node0</title>
<polygon fill="#bfbfbf" stroke="black" points="43.436,-141.5 43.436,-325.5 151.428,-325.5 151.428,-141.5 43.436,-141.5"/>
<text text-anchor="middle" x="97.4321" y="-313.5" font-family="Helvetica,sans-Serif" font-size="10.00">HttpMessage</text>
<polyline fill="none" stroke="black" points="43.436,-307.5 151.428,-307.5 "/>
<text text-anchor="start" x="51.436" y="-295.5" font-family="Helvetica,sans-Serif" font-size="10.00">+ protocol</text>
<text text-anchor="start" x="51.436" y="-285.5" font-family="Helvetica,sans-Serif" font-size="10.00">+ headers</text>
<text text-anchor="start" x="51.436" y="-275.5" font-family="Helvetica,sans-Serif" font-size="10.00">+ keepAlive</text>
<text text-anchor="start" x="51.436" y="-265.5" font-family="Helvetica,sans-Serif" font-size="10.00">+ upgrade</text>
<text text-anchor="start" x="51.436" y="-255.5" font-family="Helvetica,sans-Serif" font-size="10.00">+ maxHeadersCount</text>
<text text-anchor="start" x="51.436" y="-245.5" font-family="Helvetica,sans-Serif" font-size="10.00">+ maxUploadSize</text>
<text text-anchor="start" x="51.436" y="-235.5" font-family="Helvetica,sans-Serif" font-size="10.00">+ socket</text>
<polyline fill="none" stroke="black" points="43.436,-229.5 151.428,-229.5 "/>
<text text-anchor="start" x="51.436" y="-217.5" font-family="Helvetica,sans-Serif" font-size="10.00">+ hasHeader()</text>
<text text-anchor="start" x="51.436" y="-207.5" font-family="Helvetica,sans-Serif" font-size="10.00">+ firstHeader()</text>
<text text-anchor="start" x="51.436" y="-197.5" font-family="Helvetica,sans-Serif" font-size="10.00">+ allHeader()</text>
<text text-anchor="start" x="51.436" y="-187.5" font-family="Helvetica,sans-Serif" font-size="10.00">+ addHeader()</text>
<text text-anchor="start" x="51.436" y="-177.5" font-family="Helvetica,sans-Serif" font-size="10.00">+ addHeader()</text>
<text text-anchor="start" x="51.436" y="-167.5" font-family="Helvetica,sans-Serif" font-size="10.00">+ setHeader()</text>
<text text-anchor="start" x="51.436" y="-157.5" font-family="Helvetica,sans-Serif" font-size="10.00">+ setHeader()</text>
<text text-anchor="start" x="51.436" y="-147.5" font-family="Helvetica,sans-Serif" font-size="10.00">+ removeHeader()</text>
</g>
<!-- Node3 -->
<g id="node4" class="node"><title>Node3</title>
<g id="a_node4"><a xlink:href="../../d4/dfa/interfaceHttpRequest.html" target="_top" xlink:title="http 请求消息对象 ">
<polygon fill="white" stroke="black" points="0,-0.5 0,-104.5 86.8643,-104.5 86.8643,-0.5 0,-0.5"/>
<text text-anchor="middle" x="43.4321" y="-92.5" font-family="Helvetica,sans-Serif" font-size="10.00">HttpRequest</text>
<polyline fill="none" stroke="black" points="0,-86.5 86.8643,-86.5 "/>
<text text-anchor="start" x="8" y="-74.5" font-family="Helvetica,sans-Serif" font-size="10.00">+ method</text>
<text text-anchor="start" x="8" y="-64.5" font-family="Helvetica,sans-Serif" font-size="10.00">+ address</text>
<text text-anchor="start" x="8" y="-54.5" font-family="Helvetica,sans-Serif" font-size="10.00">+ queryString</text>
<text text-anchor="start" x="8" y="-44.5" font-family="Helvetica,sans-Serif" font-size="10.00">+ cookies</text>
<text text-anchor="start" x="8" y="-34.5" font-family="Helvetica,sans-Serif" font-size="10.00">+ form</text>
<text text-anchor="start" x="8" y="-24.5" font-family="Helvetica,sans-Serif" font-size="10.00">+ query</text>
<polyline fill="none" stroke="black" points="0,-18.5 86.8643,-18.5 "/>
<text text-anchor="start" x="8" y="-6.5" font-family="Helvetica,sans-Serif" font-size="10.00">+ HttpRequest()</text>
</a>
</g>
</g>
<!-- Node0&#45;&gt;Node3 -->
<g id="edge3" class="edge"><title>Node0&#45;&gt;Node3</title>
<path fill="none" stroke="midnightblue" d="M67.0231,-131.7C64.2195,-122.406 61.4658,-113.278 58.8855,-104.725"/>
<polygon fill="none" stroke="midnightblue" points="63.7184,-132.864 69.9575,-141.427 70.4201,-130.842 63.7184,-132.864"/>
</g>
<!-- Node4 -->
<g id="node5" class="node"><title>Node4</title>
<g id="a_node5"><a xlink:href="../../d9/d71/interfaceHttpResponse.html" target="_top" xlink:title="http 响应消息对象 ">
<polygon fill="white" stroke="black" points="105.108,-5.5 105.108,-99.5 199.756,-99.5 199.756,-5.5 105.108,-5.5"/>
<text text-anchor="middle" x="152.432" y="-87.5" font-family="Helvetica,sans-Serif" font-size="10.00">HttpResponse</text>
<polyline fill="none" stroke="black" points="105.108,-81.5 199.756,-81.5 "/>
<text text-anchor="start" x="113.108" y="-69.5" font-family="Helvetica,sans-Serif" font-size="10.00">+ status</text>
<text text-anchor="start" x="113.108" y="-59.5" font-family="Helvetica,sans-Serif" font-size="10.00">+ cookies</text>
<polyline fill="none" stroke="black" points="105.108,-53.5 199.756,-53.5 "/>
<text text-anchor="start" x="113.108" y="-41.5" font-family="Helvetica,sans-Serif" font-size="10.00">+ HttpResponse()</text>
<text text-anchor="start" x="113.108" y="-31.5" font-family="Helvetica,sans-Serif" font-size="10.00">+ addCookie()</text>
<text text-anchor="start" x="113.108" y="-21.5" font-family="Helvetica,sans-Serif" font-size="10.00">+ redirect()</text>
<text text-anchor="start" x="113.108" y="-11.5" font-family="Helvetica,sans-Serif" font-size="10.00">+ sendHeader()</text>
</a>
</g>
</g>
<!-- Node0&#45;&gt;Node4 -->
<g id="edge4" class="edge"><title>Node0&#45;&gt;Node4</title>
<path fill="none" stroke="midnightblue" d="M128.438,-131.591C131.861,-120.449 135.211,-109.546 138.27,-99.5897"/>
<polygon fill="none" stroke="midnightblue" points="125.007,-130.84 125.416,-141.427 131.698,-132.896 125.007,-130.84"/>
</g>
<!-- Node1 -->
<g id="node2" class="node"><title>Node1</title>
<g id="a_node2"><a xlink:href="../../d6/db7/interfaceMessage.html" target="_top" xlink:title="基础消息对象 ">
<polygon fill="white" stroke="black" points="60.1206,-362.5 60.1206,-596.5 134.744,-596.5 134.744,-362.5 60.1206,-362.5"/>
<text text-anchor="middle" x="97.4321" y="-584.5" font-family="Helvetica,sans-Serif" font-size="10.00">Message</text>
<polyline fill="none" stroke="black" points="60.1206,-578.5 134.744,-578.5 "/>
<text text-anchor="start" x="68.1206" y="-566.5" font-family="Helvetica,sans-Serif" font-size="10.00">+ TEXT</text>
<text text-anchor="start" x="68.1206" y="-556.5" font-family="Helvetica,sans-Serif" font-size="10.00">+ BINARY</text>
<text text-anchor="start" x="68.1206" y="-546.5" font-family="Helvetica,sans-Serif" font-size="10.00">+ value</text>
<text text-anchor="start" x="68.1206" y="-536.5" font-family="Helvetica,sans-Serif" font-size="10.00">+ params</text>
<text text-anchor="start" x="68.1206" y="-526.5" font-family="Helvetica,sans-Serif" font-size="10.00">+ type</text>
<text text-anchor="start" x="68.1206" y="-516.5" font-family="Helvetica,sans-Serif" font-size="10.00">+ data</text>
<text text-anchor="start" x="68.1206" y="-506.5" font-family="Helvetica,sans-Serif" font-size="10.00">+ body</text>
<text text-anchor="start" x="68.1206" y="-496.5" font-family="Helvetica,sans-Serif" font-size="10.00">+ length</text>
<text text-anchor="start" x="68.1206" y="-486.5" font-family="Helvetica,sans-Serif" font-size="10.00">+ stream</text>
<text text-anchor="start" x="68.1206" y="-476.5" font-family="Helvetica,sans-Serif" font-size="10.00">+ response</text>
<text text-anchor="start" x="68.1206" y="-466.5" font-family="Helvetica,sans-Serif" font-size="10.00">+ lastError</text>
<polyline fill="none" stroke="black" points="60.1206,-460.5 134.744,-460.5 "/>
<text text-anchor="start" x="68.1206" y="-448.5" font-family="Helvetica,sans-Serif" font-size="10.00">+ Message()</text>
<text text-anchor="start" x="68.1206" y="-438.5" font-family="Helvetica,sans-Serif" font-size="10.00">+ read()</text>
<text text-anchor="start" x="68.1206" y="-428.5" font-family="Helvetica,sans-Serif" font-size="10.00">+ readAll()</text>
<text text-anchor="start" x="68.1206" y="-418.5" font-family="Helvetica,sans-Serif" font-size="10.00">+ write()</text>
<text text-anchor="start" x="68.1206" y="-408.5" font-family="Helvetica,sans-Serif" font-size="10.00">+ end()</text>
<text text-anchor="start" x="68.1206" y="-398.5" font-family="Helvetica,sans-Serif" font-size="10.00">+ isEnded()</text>
<text text-anchor="start" x="68.1206" y="-388.5" font-family="Helvetica,sans-Serif" font-size="10.00">+ clear()</text>
<text text-anchor="start" x="68.1206" y="-378.5" font-family="Helvetica,sans-Serif" font-size="10.00">+ sendTo()</text>
<text text-anchor="start" x="68.1206" y="-368.5" font-family="Helvetica,sans-Serif" font-size="10.00">+ readFrom()</text>
</a>
</g>
</g>
<!-- Node1&#45;&gt;Node0 -->
<g id="edge1" class="edge"><title>Node1&#45;&gt;Node0</title>
<path fill="none" stroke="midnightblue" d="M97.4321,-352.141C97.4321,-343.219 97.4321,-334.329 97.4321,-325.66"/>
<polygon fill="none" stroke="midnightblue" points="93.9322,-352.217 97.4321,-362.217 100.932,-352.217 93.9322,-352.217"/>
</g>
<!-- Node2 -->
<g id="node3" class="node"><title>Node2</title>
<g id="a_node3"><a xlink:href="../../db/d38/interfaceobject.html" target="_top" xlink:title="基础对象，所有对象均继承于此 ">
<polygon fill="white" stroke="black" points="64.2881,-633.5 64.2881,-727.5 130.576,-727.5 130.576,-633.5 64.2881,-633.5"/>
<text text-anchor="middle" x="97.4321" y="-715.5" font-family="Helvetica,sans-Serif" font-size="10.00">object</text>
<polyline fill="none" stroke="black" points="64.2881,-709.5 130.576,-709.5 "/>
<text text-anchor="middle" x="97.4321" y="-697.5" font-family="Helvetica,sans-Serif" font-size="10.00"> </text>
<polyline fill="none" stroke="black" points="64.2881,-691.5 130.576,-691.5 "/>
<text text-anchor="start" x="72.2881" y="-679.5" font-family="Helvetica,sans-Serif" font-size="10.00">+ dispose()</text>
<text text-anchor="start" x="72.2881" y="-669.5" font-family="Helvetica,sans-Serif" font-size="10.00">+ equals()</text>
<text text-anchor="start" x="72.2881" y="-659.5" font-family="Helvetica,sans-Serif" font-size="10.00">+ toString()</text>
<text text-anchor="start" x="72.2881" y="-649.5" font-family="Helvetica,sans-Serif" font-size="10.00">+ toJSON()</text>
<text text-anchor="start" x="72.2881" y="-639.5" font-family="Helvetica,sans-Serif" font-size="10.00">+ valueOf()</text>
</a>
</g>
</g>
<!-- Node2&#45;&gt;Node1 -->
<g id="edge2" class="edge"><title>Node2&#45;&gt;Node1</title>
<path fill="none" stroke="midnightblue" d="M97.4321,-623.285C97.4321,-614.809 97.4321,-605.811 97.4321,-596.619"/>
<polygon fill="none" stroke="midnightblue" points="93.9322,-623.345 97.4321,-633.345 100.932,-623.345 93.9322,-623.345"/>
</g>
</g>
</svg>
