<?xml version="1.0" encoding="UTF-8" standalone="no"?>
<!DOCTYPE svg PUBLIC "-//W3C//DTD SVG 1.1//EN"
 "http://www.w3.org/Graphics/SVG/1.1/DTD/svg11.dtd">
<!-- Generated by graphviz version 2.38.0 (20140413.2041)
 -->
<!-- Title: WebSocketMessage Pages: 1 -->
<svg width="131pt" height="475pt"
 viewBox="0.00 0.00 130.81 475.00" xmlns="http://www.w3.org/2000/svg" xmlns:xlink="http://www.w3.org/1999/xlink">
<g id="graph0" class="graph" transform="scale(1 1) rotate(0) translate(4 471)">
<title>WebSocketMessage</title>
<polygon fill="white" stroke="none" points="-4,4 -4,-471 126.812,-471 126.812,4 -4,4"/>
<!-- Node0 -->
<g id="node1" class="node"><title>Node0</title>
<polygon fill="#bfbfbf" stroke="black" points="0,-0.5 0,-64.5 122.812,-64.5 122.812,-0.5 0,-0.5"/>
<text text-anchor="middle" x="61.4058" y="-52.5" font-family="Helvetica,sans-Serif" font-size="10.00">WebSocketMessage</text>
<polyline fill="none" stroke="black" points="0,-46.5 122.812,-46.5 "/>
<text text-anchor="start" x="8" y="-34.5" font-family="Helvetica,sans-Serif" font-size="10.00">+ masked</text>
<text text-anchor="start" x="8" y="-24.5" font-family="Helvetica,sans-Serif" font-size="10.00">+ maxSize</text>
<polyline fill="none" stroke="black" points="0,-18.5 122.812,-18.5 "/>
<text text-anchor="start" x="8" y="-6.5" font-family="Helvetica,sans-Serif" font-size="10.00">+ WebSocketMessage()</text>
</g>
<!-- Node1 -->
<g id="node2" class="node"><title>Node1</title>
<g id="a_node2"><a xlink:href="../../d6/db7/interfaceMessage.html" target="_top" xlink:title="基础消息对象 ">
<polygon fill="white" stroke="black" points="24.0942,-101.5 24.0942,-335.5 98.7173,-335.5 98.7173,-101.5 24.0942,-101.5"/>
<text text-anchor="middle" x="61.4058" y="-323.5" font-family="Helvetica,sans-Serif" font-size="10.00">Message</text>
<polyline fill="none" stroke="black" points="24.0942,-317.5 98.7173,-317.5 "/>
<text text-anchor="start" x="32.0942" y="-305.5" font-family="Helvetica,sans-Serif" font-size="10.00">+ TEXT</text>
<text text-anchor="start" x="32.0942" y="-295.5" font-family="Helvetica,sans-Serif" font-size="10.00">+ BINARY</text>
<text text-anchor="start" x="32.0942" y="-285.5" font-family="Helvetica,sans-Serif" font-size="10.00">+ value</text>
<text text-anchor="start" x="32.0942" y="-275.5" font-family="Helvetica,sans-Serif" font-size="10.00">+ params</text>
<text text-anchor="start" x="32.0942" y="-265.5" font-family="Helvetica,sans-Serif" font-size="10.00">+ type</text>
<text text-anchor="start" x="32.0942" y="-255.5" font-family="Helvetica,sans-Serif" font-size="10.00">+ data</text>
<text text-anchor="start" x="32.0942" y="-245.5" font-family="Helvetica,sans-Serif" font-size="10.00">+ body</text>
<text text-anchor="start" x="32.0942" y="-235.5" font-family="Helvetica,sans-Serif" font-size="10.00">+ length</text>
<text text-anchor="start" x="32.0942" y="-225.5" font-family="Helvetica,sans-Serif" font-size="10.00">+ stream</text>
<text text-anchor="start" x="32.0942" y="-215.5" font-family="Helvetica,sans-Serif" font-size="10.00">+ response</text>
<text text-anchor="start" x="32.0942" y="-205.5" font-family="Helvetica,sans-Serif" font-size="10.00">+ lastError</text>
<polyline fill="none" stroke="black" points="24.0942,-199.5 98.7173,-199.5 "/>
<text text-anchor="start" x="32.0942" y="-187.5" font-family="Helvetica,sans-Serif" font-size="10.00">+ Message()</text>
<text text-anchor="start" x="32.0942" y="-177.5" font-family="Helvetica,sans-Serif" font-size="10.00">+ read()</text>
<text text-anchor="start" x="32.0942" y="-167.5" font-family="Helvetica,sans-Serif" font-size="10.00">+ readAll()</text>
<text text-anchor="start" x="32.0942" y="-157.5" font-family="Helvetica,sans-Serif" font-size="10.00">+ write()</text>
<text text-anchor="start" x="32.0942" y="-147.5" font-family="Helvetica,sans-Serif" font-size="10.00">+ end()</text>
<text text-anchor="start" x="32.0942" y="-137.5" font-family="Helvetica,sans-Serif" font-size="10.00">+ isEnded()</text>
<text text-anchor="start" x="32.0942" y="-127.5" font-family="Helvetica,sans-Serif" font-size="10.00">+ clear()</text>
<text text-anchor="start" x="32.0942" y="-117.5" font-family="Helvetica,sans-Serif" font-size="10.00">+ sendTo()</text>
<text text-anchor="start" x="32.0942" y="-107.5" font-family="Helvetica,sans-Serif" font-size="10.00">+ readFrom()</text>
</a>
</g>
</g>
<!-- Node1&#45;&gt;Node0 -->
<g id="edge1" class="edge"><title>Node1&#45;&gt;Node0</title>
<path fill="none" stroke="midnightblue" d="M61.4058,-91.2268C61.4058,-81.56 61.4058,-72.4822 61.4058,-64.5148"/>
<polygon fill="none" stroke="midnightblue" points="57.9059,-91.492 61.4058,-101.492 64.9059,-91.4921 57.9059,-91.492"/>
</g>
<!-- Node2 -->
<g id="node3" class="node"><title>Node2</title>
<g id="a_node3"><a xlink:href="../../db/d38/interfaceobject.html" target="_top" xlink:title="基础对象，所有对象均继承于此 ">
<polygon fill="white" stroke="black" points="28.2617,-372.5 28.2617,-466.5 94.5498,-466.5 94.5498,-372.5 28.2617,-372.5"/>
<text text-anchor="middle" x="61.4058" y="-454.5" font-family="Helvetica,sans-Serif" font-size="10.00">object</text>
<polyline fill="none" stroke="black" points="28.2617,-448.5 94.5498,-448.5 "/>
<text text-anchor="middle" x="61.4058" y="-436.5" font-family="Helvetica,sans-Serif" font-size="10.00"> </text>
<polyline fill="none" stroke="black" points="28.2617,-430.5 94.5498,-430.5 "/>
<text text-anchor="start" x="36.2617" y="-418.5" font-family="Helvetica,sans-Serif" font-size="10.00">+ dispose()</text>
<text text-anchor="start" x="36.2617" y="-408.5" font-family="Helvetica,sans-Serif" font-size="10.00">+ equals()</text>
<text text-anchor="start" x="36.2617" y="-398.5" font-family="Helvetica,sans-Serif" font-size="10.00">+ toString()</text>
<text text-anchor="start" x="36.2617" y="-388.5" font-family="Helvetica,sans-Serif" font-size="10.00">+ toJSON()</text>
<text text-anchor="start" x="36.2617" y="-378.5" font-family="Helvetica,sans-Serif" font-size="10.00">+ valueOf()</text>
</a>
</g>
</g>
<!-- Node2&#45;&gt;Node1 -->
<g id="edge2" class="edge"><title>Node2&#45;&gt;Node1</title>
<path fill="none" stroke="midnightblue" d="M61.4058,-362.285C61.4058,-353.809 61.4058,-344.811 61.4058,-335.619"/>
<polygon fill="none" stroke="midnightblue" points="57.9059,-362.345 61.4058,-372.345 64.9059,-362.345 57.9059,-362.345"/>
</g>
</g>
</svg>
