<?xml version="1.0" encoding="UTF-8" standalone="no"?>
<!DOCTYPE svg PUBLIC "-//W3C//DTD SVG 1.1//EN"
 "http://www.w3.org/Graphics/SVG/1.1/DTD/svg11.dtd">
<!-- Generated by graphviz version 2.38.0 (20140413.2041)
 -->
<!-- Title: SeekableStream Pages: 1 -->
<svg width="415pt" height="586pt"
 viewBox="0.00 0.00 414.98 586.00" xmlns="http://www.w3.org/2000/svg" xmlns:xlink="http://www.w3.org/1999/xlink">
<g id="graph0" class="graph" transform="scale(1 1) rotate(0) translate(4 582)">
<title>SeekableStream</title>
<polygon fill="white" stroke="none" points="-4,4 -4,-582 410.982,-582 410.982,4 -4,4"/>
<!-- Node0 -->
<g id="node1" class="node"><title>Node0</title>
<polygon fill="#bfbfbf" stroke="black" points="143.74,-221.5 143.74,-325.5 233.671,-325.5 233.671,-221.5 143.74,-221.5"/>
<text text-anchor="middle" x="188.706" y="-313.5" font-family="Helvetica,sans-Serif" font-size="10.00">SeekableStream</text>
<polyline fill="none" stroke="black" points="143.74,-307.5 233.671,-307.5 "/>
<text text-anchor="middle" x="188.706" y="-295.5" font-family="Helvetica,sans-Serif" font-size="10.00"> </text>
<polyline fill="none" stroke="black" points="143.74,-289.5 233.671,-289.5 "/>
<text text-anchor="start" x="151.74" y="-277.5" font-family="Helvetica,sans-Serif" font-size="10.00">+ seek()</text>
<text text-anchor="start" x="151.74" y="-267.5" font-family="Helvetica,sans-Serif" font-size="10.00">+ tell()</text>
<text text-anchor="start" x="151.74" y="-257.5" font-family="Helvetica,sans-Serif" font-size="10.00">+ rewind()</text>
<text text-anchor="start" x="151.74" y="-247.5" font-family="Helvetica,sans-Serif" font-size="10.00">+ size()</text>
<text text-anchor="start" x="151.74" y="-237.5" font-family="Helvetica,sans-Serif" font-size="10.00">+ readAll()</text>
<text text-anchor="start" x="151.74" y="-227.5" font-family="Helvetica,sans-Serif" font-size="10.00">+ stat()</text>
</g>
<!-- Node3 -->
<g id="node4" class="node"><title>Node3</title>
<g id="a_node4"><a xlink:href="../../d3/d3a/interfaceFile.html" target="_top" xlink:title="文件操作对象，用于二进制文件读写 ">
<polygon fill="white" stroke="black" points="0,-50.5 0,-134.5 67.4111,-134.5 67.4111,-50.5 0,-50.5"/>
<text text-anchor="middle" x="33.7056" y="-122.5" font-family="Helvetica,sans-Serif" font-size="10.00">File</text>
<polyline fill="none" stroke="black" points="0,-116.5 67.4111,-116.5 "/>
<text text-anchor="start" x="8" y="-104.5" font-family="Helvetica,sans-Serif" font-size="10.00">+ name</text>
<polyline fill="none" stroke="black" points="0,-98.5 67.4111,-98.5 "/>
<text text-anchor="start" x="8" y="-86.5" font-family="Helvetica,sans-Serif" font-size="10.00">+ truncate()</text>
<text text-anchor="start" x="8" y="-76.5" font-family="Helvetica,sans-Serif" font-size="10.00">+ eof()</text>
<text text-anchor="start" x="8" y="-66.5" font-family="Helvetica,sans-Serif" font-size="10.00">+ flush()</text>
<text text-anchor="start" x="8" y="-56.5" font-family="Helvetica,sans-Serif" font-size="10.00">+ chmod()</text>
</a>
</g>
</g>
<!-- Node0&#45;&gt;Node3 -->
<g id="edge3" class="edge"><title>Node0&#45;&gt;Node3</title>
<path fill="none" stroke="midnightblue" d="M135.411,-238.784C115.169,-224.082 93.0719,-205.512 76.7056,-185 64.7732,-170.045 55.2066,-151.237 48.1543,-134.569"/>
<polygon fill="none" stroke="midnightblue" points="133.472,-241.7 143.652,-244.635 137.524,-235.992 133.472,-241.7"/>
</g>
<!-- Node4 -->
<g id="node5" class="node"><title>Node4</title>
<g id="a_node5"><a xlink:href="../../d2/d93/interfaceMemoryStream.html" target="_top" xlink:title="内存流对象 ">
<polygon fill="white" stroke="black" points="85.894,-50.5 85.894,-134.5 185.517,-134.5 185.517,-50.5 85.894,-50.5"/>
<text text-anchor="middle" x="135.706" y="-122.5" font-family="Helvetica,sans-Serif" font-size="10.00">MemoryStream</text>
<polyline fill="none" stroke="black" points="85.894,-116.5 185.517,-116.5 "/>
<text text-anchor="middle" x="135.706" y="-104.5" font-family="Helvetica,sans-Serif" font-size="10.00"> </text>
<polyline fill="none" stroke="black" points="85.894,-98.5 185.517,-98.5 "/>
<text text-anchor="start" x="93.894" y="-86.5" font-family="Helvetica,sans-Serif" font-size="10.00">+ MemoryStream()</text>
<text text-anchor="start" x="93.894" y="-76.5" font-family="Helvetica,sans-Serif" font-size="10.00">+ setTime()</text>
<text text-anchor="start" x="93.894" y="-66.5" font-family="Helvetica,sans-Serif" font-size="10.00">+ clone()</text>
<text text-anchor="start" x="93.894" y="-56.5" font-family="Helvetica,sans-Serif" font-size="10.00">+ clear()</text>
</a>
</g>
</g>
<!-- Node0&#45;&gt;Node4 -->
<g id="edge4" class="edge"><title>Node0&#45;&gt;Node4</title>
<path fill="none" stroke="midnightblue" d="M170.592,-211.323C163.095,-186.003 154.6,-157.312 147.87,-134.582"/>
<polygon fill="none" stroke="midnightblue" points="167.323,-212.611 173.518,-221.206 174.035,-210.624 167.323,-212.611"/>
</g>
<!-- Node5 -->
<g id="node6" class="node"><title>Node5</title>
<g id="a_node6"><a xlink:href="../../d6/deb/interfaceRadosStream.html" target="_top" xlink:title="rados流操作对象，用于读写rados存储 ">
<polygon fill="white" stroke="black" points="203.137,-45.5 203.137,-139.5 280.274,-139.5 280.274,-45.5 203.137,-45.5"/>
<text text-anchor="middle" x="241.706" y="-127.5" font-family="Helvetica,sans-Serif" font-size="10.00">RadosStream</text>
<polyline fill="none" stroke="black" points="203.137,-121.5 280.274,-121.5 "/>
<text text-anchor="start" x="211.137" y="-109.5" font-family="Helvetica,sans-Serif" font-size="10.00">+ key</text>
<polyline fill="none" stroke="black" points="203.137,-103.5 280.274,-103.5 "/>
<text text-anchor="start" x="211.137" y="-91.5" font-family="Helvetica,sans-Serif" font-size="10.00">+ radosStat()</text>
<text text-anchor="start" x="211.137" y="-81.5" font-family="Helvetica,sans-Serif" font-size="10.00">+ writeFull()</text>
<text text-anchor="start" x="211.137" y="-71.5" font-family="Helvetica,sans-Serif" font-size="10.00">+ append()</text>
<text text-anchor="start" x="211.137" y="-61.5" font-family="Helvetica,sans-Serif" font-size="10.00">+ truncate()</text>
<text text-anchor="start" x="211.137" y="-51.5" font-family="Helvetica,sans-Serif" font-size="10.00">+ flush()</text>
</a>
</g>
</g>
<!-- Node0&#45;&gt;Node5 -->
<g id="edge5" class="edge"><title>Node0&#45;&gt;Node5</title>
<path fill="none" stroke="midnightblue" d="M206.815,-211.338C213.77,-187.848 221.585,-161.453 228.053,-139.609"/>
<polygon fill="none" stroke="midnightblue" points="203.376,-210.624 203.893,-221.206 210.088,-212.611 203.376,-210.624"/>
</g>
<!-- Node6 -->
<g id="node7" class="node"><title>Node6</title>
<g id="a_node7"><a xlink:href="../../d1/dc3/interfaceRbdImage.html" target="_top" xlink:title="rbd image对象，用于读写rbd image ">
<polygon fill="white" stroke="black" points="298.429,-0.5 298.429,-184.5 406.982,-184.5 406.982,-0.5 298.429,-0.5"/>
<text text-anchor="middle" x="352.706" y="-172.5" font-family="Helvetica,sans-Serif" font-size="10.00">RbdImage</text>
<polyline fill="none" stroke="black" points="298.429,-166.5 406.982,-166.5 "/>
<text text-anchor="start" x="306.429" y="-154.5" font-family="Helvetica,sans-Serif" font-size="10.00">+ stripe_unit</text>
<text text-anchor="start" x="306.429" y="-144.5" font-family="Helvetica,sans-Serif" font-size="10.00">+ stripe_count</text>
<text text-anchor="start" x="306.429" y="-134.5" font-family="Helvetica,sans-Serif" font-size="10.00">+ features</text>
<text text-anchor="start" x="306.429" y="-124.5" font-family="Helvetica,sans-Serif" font-size="10.00">+ create_timestamp</text>
<text text-anchor="start" x="306.429" y="-114.5" font-family="Helvetica,sans-Serif" font-size="10.00">+ block_name_prefix</text>
<polyline fill="none" stroke="black" points="298.429,-108.5 406.982,-108.5 "/>
<text text-anchor="start" x="306.429" y="-96.5" font-family="Helvetica,sans-Serif" font-size="10.00">+ resize()</text>
<text text-anchor="start" x="306.429" y="-86.5" font-family="Helvetica,sans-Serif" font-size="10.00">+ flush()</text>
<text text-anchor="start" x="306.429" y="-76.5" font-family="Helvetica,sans-Serif" font-size="10.00">+ createSnap()</text>
<text text-anchor="start" x="306.429" y="-66.5" font-family="Helvetica,sans-Serif" font-size="10.00">+ removeSnap()</text>
<text text-anchor="start" x="306.429" y="-56.5" font-family="Helvetica,sans-Serif" font-size="10.00">+ rollbackSnap()</text>
<text text-anchor="start" x="306.429" y="-46.5" font-family="Helvetica,sans-Serif" font-size="10.00">+ listSnaps()</text>
<text text-anchor="start" x="306.429" y="-36.5" font-family="Helvetica,sans-Serif" font-size="10.00">+ protectSnap()</text>
<text text-anchor="start" x="306.429" y="-26.5" font-family="Helvetica,sans-Serif" font-size="10.00">+ unprotectSnap()</text>
<text text-anchor="start" x="306.429" y="-16.5" font-family="Helvetica,sans-Serif" font-size="10.00">+ setSnap()</text>
<text text-anchor="start" x="306.429" y="-6.5" font-family="Helvetica,sans-Serif" font-size="10.00">+ isSnapProtected()</text>
</a>
</g>
</g>
<!-- Node0&#45;&gt;Node6 -->
<g id="edge6" class="edge"><title>Node0&#45;&gt;Node6</title>
<path fill="none" stroke="midnightblue" d="M241.554,-231.107C257.805,-217.253 275.214,-201.195 289.706,-185 292.535,-181.838 295.343,-178.544 298.113,-175.163"/>
<polygon fill="none" stroke="midnightblue" points="239.089,-228.607 233.687,-237.721 243.594,-233.965 239.089,-228.607"/>
</g>
<!-- Node1 -->
<g id="node2" class="node"><title>Node1</title>
<g id="a_node2"><a xlink:href="../../d4/dc7/interfaceStream.html" target="_top" xlink:title="流操作对象，用于二进制数据流读写 ">
<polygon fill="white" stroke="black" points="157.224,-362.5 157.224,-446.5 220.187,-446.5 220.187,-362.5 157.224,-362.5"/>
<text text-anchor="middle" x="188.706" y="-434.5" font-family="Helvetica,sans-Serif" font-size="10.00">Stream</text>
<polyline fill="none" stroke="black" points="157.224,-428.5 220.187,-428.5 "/>
<text text-anchor="middle" x="188.706" y="-416.5" font-family="Helvetica,sans-Serif" font-size="10.00"> </text>
<polyline fill="none" stroke="black" points="157.224,-410.5 220.187,-410.5 "/>
<text text-anchor="start" x="165.224" y="-398.5" font-family="Helvetica,sans-Serif" font-size="10.00">+ read()</text>
<text text-anchor="start" x="165.224" y="-388.5" font-family="Helvetica,sans-Serif" font-size="10.00">+ write()</text>
<text text-anchor="start" x="165.224" y="-378.5" font-family="Helvetica,sans-Serif" font-size="10.00">+ close()</text>
<text text-anchor="start" x="165.224" y="-368.5" font-family="Helvetica,sans-Serif" font-size="10.00">+ copyTo()</text>
</a>
</g>
</g>
<!-- Node1&#45;&gt;Node0 -->
<g id="edge1" class="edge"><title>Node1&#45;&gt;Node0</title>
<path fill="none" stroke="midnightblue" d="M188.706,-352.261C188.706,-343.517 188.706,-334.434 188.706,-325.691"/>
<polygon fill="none" stroke="midnightblue" points="185.206,-352.329 188.706,-362.329 192.206,-352.329 185.206,-352.329"/>
</g>
<!-- Node2 -->
<g id="node3" class="node"><title>Node2</title>
<g id="a_node3"><a xlink:href="../../db/d38/interfaceobject.html" target="_top" xlink:title="基础对象，所有对象均继承于此 ">
<polygon fill="white" stroke="black" points="155.562,-483.5 155.562,-577.5 221.85,-577.5 221.85,-483.5 155.562,-483.5"/>
<text text-anchor="middle" x="188.706" y="-565.5" font-family="Helvetica,sans-Serif" font-size="10.00">object</text>
<polyline fill="none" stroke="black" points="155.562,-559.5 221.85,-559.5 "/>
<text text-anchor="middle" x="188.706" y="-547.5" font-family="Helvetica,sans-Serif" font-size="10.00"> </text>
<polyline fill="none" stroke="black" points="155.562,-541.5 221.85,-541.5 "/>
<text text-anchor="start" x="163.562" y="-529.5" font-family="Helvetica,sans-Serif" font-size="10.00">+ dispose()</text>
<text text-anchor="start" x="163.562" y="-519.5" font-family="Helvetica,sans-Serif" font-size="10.00">+ equals()</text>
<text text-anchor="start" x="163.562" y="-509.5" font-family="Helvetica,sans-Serif" font-size="10.00">+ toString()</text>
<text text-anchor="start" x="163.562" y="-499.5" font-family="Helvetica,sans-Serif" font-size="10.00">+ toJSON()</text>
<text text-anchor="start" x="163.562" y="-489.5" font-family="Helvetica,sans-Serif" font-size="10.00">+ valueOf()</text>
</a>
</g>
</g>
<!-- Node2&#45;&gt;Node1 -->
<g id="edge2" class="edge"><title>Node2&#45;&gt;Node1</title>
<path fill="none" stroke="midnightblue" d="M188.706,-473.061C188.706,-464.219 188.706,-455.225 188.706,-446.806"/>
<polygon fill="none" stroke="midnightblue" points="185.206,-473.327 188.706,-483.327 192.206,-473.327 185.206,-473.327"/>
</g>
</g>
</svg>
