<?xml version="1.0" encoding="UTF-8" standalone="no"?>
<!DOCTYPE svg PUBLIC "-//W3C//DTD SVG 1.1//EN"
 "http://www.w3.org/Graphics/SVG/1.1/DTD/svg11.dtd">
<!-- Generated by graphviz version 2.38.0 (20140413.2041)
 -->
<!-- Title: SeekableStream Pages: 1 -->
<svg width="288pt" height="496pt"
 viewBox="0.00 0.00 288.27 496.00" xmlns="http://www.w3.org/2000/svg" xmlns:xlink="http://www.w3.org/1999/xlink">
<g id="graph0" class="graph" transform="scale(1 1) rotate(0) translate(4 492)">
<title>SeekableStream</title>
<polygon fill="white" stroke="none" points="-4,4 -4,-492 284.274,-492 284.274,4 -4,4"/>
<!-- Node0 -->
<g id="node1" class="node"><title>Node0</title>
<polygon fill="#bfbfbf" stroke="black" points="90.7402,-131.5 90.7402,-235.5 180.671,-235.5 180.671,-131.5 90.7402,-131.5"/>
<text text-anchor="middle" x="135.706" y="-223.5" font-family="Helvetica,sans-Serif" font-size="10.00">SeekableStream</text>
<polyline fill="none" stroke="black" points="90.7402,-217.5 180.671,-217.5 "/>
<text text-anchor="middle" x="135.706" y="-205.5" font-family="Helvetica,sans-Serif" font-size="10.00"> </text>
<polyline fill="none" stroke="black" points="90.7402,-199.5 180.671,-199.5 "/>
<text text-anchor="start" x="98.7402" y="-187.5" font-family="Helvetica,sans-Serif" font-size="10.00">+ seek()</text>
<text text-anchor="start" x="98.7402" y="-177.5" font-family="Helvetica,sans-Serif" font-size="10.00">+ tell()</text>
<text text-anchor="start" x="98.7402" y="-167.5" font-family="Helvetica,sans-Serif" font-size="10.00">+ rewind()</text>
<text text-anchor="start" x="98.7402" y="-157.5" font-family="Helvetica,sans-Serif" font-size="10.00">+ size()</text>
<text text-anchor="start" x="98.7402" y="-147.5" font-family="Helvetica,sans-Serif" font-size="10.00">+ readAll()</text>
<text text-anchor="start" x="98.7402" y="-137.5" font-family="Helvetica,sans-Serif" font-size="10.00">+ stat()</text>
</g>
<!-- Node3 -->
<g id="node4" class="node"><title>Node3</title>
<g id="a_node4"><a xlink:href="../../d3/d3a/interfaceFile.html" target="_top" xlink:title="文件操作对象，用于二进制文件读写 ">
<polygon fill="white" stroke="black" points="0,-5.5 0,-89.5 67.4111,-89.5 67.4111,-5.5 0,-5.5"/>
<text text-anchor="middle" x="33.7056" y="-77.5" font-family="Helvetica,sans-Serif" font-size="10.00">File</text>
<polyline fill="none" stroke="black" points="0,-71.5 67.4111,-71.5 "/>
<text text-anchor="start" x="8" y="-59.5" font-family="Helvetica,sans-Serif" font-size="10.00">+ name</text>
<polyline fill="none" stroke="black" points="0,-53.5 67.4111,-53.5 "/>
<text text-anchor="start" x="8" y="-41.5" font-family="Helvetica,sans-Serif" font-size="10.00">+ truncate()</text>
<text text-anchor="start" x="8" y="-31.5" font-family="Helvetica,sans-Serif" font-size="10.00">+ eof()</text>
<text text-anchor="start" x="8" y="-21.5" font-family="Helvetica,sans-Serif" font-size="10.00">+ flush()</text>
<text text-anchor="start" x="8" y="-11.5" font-family="Helvetica,sans-Serif" font-size="10.00">+ chmod()</text>
</a>
</g>
</g>
<!-- Node0&#45;&gt;Node3 -->
<g id="edge3" class="edge"><title>Node0&#45;&gt;Node3</title>
<path fill="none" stroke="midnightblue" d="M90.6482,-123.307C82.0524,-112.014 73.2283,-100.422 65.1706,-89.8364"/>
<polygon fill="none" stroke="midnightblue" points="88.0109,-125.621 96.8528,-131.458 93.5808,-121.381 88.0109,-125.621"/>
</g>
<!-- Node4 -->
<g id="node5" class="node"><title>Node4</title>
<g id="a_node5"><a xlink:href="../../d2/d93/interfaceMemoryStream.html" target="_top" xlink:title="内存流对象 ">
<polygon fill="white" stroke="black" points="85.894,-5.5 85.894,-89.5 185.517,-89.5 185.517,-5.5 85.894,-5.5"/>
<text text-anchor="middle" x="135.706" y="-77.5" font-family="Helvetica,sans-Serif" font-size="10.00">MemoryStream</text>
<polyline fill="none" stroke="black" points="85.894,-71.5 185.517,-71.5 "/>
<text text-anchor="middle" x="135.706" y="-59.5" font-family="Helvetica,sans-Serif" font-size="10.00"> </text>
<polyline fill="none" stroke="black" points="85.894,-53.5 185.517,-53.5 "/>
<text text-anchor="start" x="93.894" y="-41.5" font-family="Helvetica,sans-Serif" font-size="10.00">+ MemoryStream()</text>
<text text-anchor="start" x="93.894" y="-31.5" font-family="Helvetica,sans-Serif" font-size="10.00">+ setTime()</text>
<text text-anchor="start" x="93.894" y="-21.5" font-family="Helvetica,sans-Serif" font-size="10.00">+ clone()</text>
<text text-anchor="start" x="93.894" y="-11.5" font-family="Helvetica,sans-Serif" font-size="10.00">+ clear()</text>
</a>
</g>
</g>
<!-- Node0&#45;&gt;Node4 -->
<g id="edge4" class="edge"><title>Node0&#45;&gt;Node4</title>
<path fill="none" stroke="midnightblue" d="M135.706,-121.331C135.706,-110.667 135.706,-99.8054 135.706,-89.8364"/>
<polygon fill="none" stroke="midnightblue" points="132.206,-121.458 135.706,-131.458 139.206,-121.458 132.206,-121.458"/>
</g>
<!-- Node5 -->
<g id="node6" class="node"><title>Node5</title>
<g id="a_node6"><a xlink:href="../../d6/deb/interfaceRadosStream.html" target="_top" xlink:title="rados流操作对象，用于读写rados存储 ">
<polygon fill="white" stroke="black" points="203.137,-0.5 203.137,-94.5 280.274,-94.5 280.274,-0.5 203.137,-0.5"/>
<text text-anchor="middle" x="241.706" y="-82.5" font-family="Helvetica,sans-Serif" font-size="10.00">RadosStream</text>
<polyline fill="none" stroke="black" points="203.137,-76.5 280.274,-76.5 "/>
<text text-anchor="start" x="211.137" y="-64.5" font-family="Helvetica,sans-Serif" font-size="10.00">+ key</text>
<polyline fill="none" stroke="black" points="203.137,-58.5 280.274,-58.5 "/>
<text text-anchor="start" x="211.137" y="-46.5" font-family="Helvetica,sans-Serif" font-size="10.00">+ radosStat()</text>
<text text-anchor="start" x="211.137" y="-36.5" font-family="Helvetica,sans-Serif" font-size="10.00">+ writeFull()</text>
<text text-anchor="start" x="211.137" y="-26.5" font-family="Helvetica,sans-Serif" font-size="10.00">+ append()</text>
<text text-anchor="start" x="211.137" y="-16.5" font-family="Helvetica,sans-Serif" font-size="10.00">+ truncate()</text>
<text text-anchor="start" x="211.137" y="-6.5" font-family="Helvetica,sans-Serif" font-size="10.00">+ flush()</text>
</a>
</g>
</g>
<!-- Node0&#45;&gt;Node5 -->
<g id="edge5" class="edge"><title>Node0&#45;&gt;Node5</title>
<path fill="none" stroke="midnightblue" d="M182.449,-123.41C190.094,-113.744 197.916,-103.856 205.266,-94.5654"/>
<polygon fill="none" stroke="midnightblue" points="179.541,-121.444 176.082,-131.458 185.031,-125.787 179.541,-121.444"/>
</g>
<!-- Node1 -->
<g id="node2" class="node"><title>Node1</title>
<g id="a_node2"><a xlink:href="../../d4/dc7/interfaceStream.html" target="_top" xlink:title="流操作对象，用于二进制数据流读写 ">
<polygon fill="white" stroke="black" points="104.224,-272.5 104.224,-356.5 167.187,-356.5 167.187,-272.5 104.224,-272.5"/>
<text text-anchor="middle" x="135.706" y="-344.5" font-family="Helvetica,sans-Serif" font-size="10.00">Stream</text>
<polyline fill="none" stroke="black" points="104.224,-338.5 167.187,-338.5 "/>
<text text-anchor="middle" x="135.706" y="-326.5" font-family="Helvetica,sans-Serif" font-size="10.00"> </text>
<polyline fill="none" stroke="black" points="104.224,-320.5 167.187,-320.5 "/>
<text text-anchor="start" x="112.224" y="-308.5" font-family="Helvetica,sans-Serif" font-size="10.00">+ read()</text>
<text text-anchor="start" x="112.224" y="-298.5" font-family="Helvetica,sans-Serif" font-size="10.00">+ write()</text>
<text text-anchor="start" x="112.224" y="-288.5" font-family="Helvetica,sans-Serif" font-size="10.00">+ close()</text>
<text text-anchor="start" x="112.224" y="-278.5" font-family="Helvetica,sans-Serif" font-size="10.00">+ copyTo()</text>
</a>
</g>
</g>
<!-- Node1&#45;&gt;Node0 -->
<g id="edge1" class="edge"><title>Node1&#45;&gt;Node0</title>
<path fill="none" stroke="midnightblue" d="M135.706,-262.261C135.706,-253.517 135.706,-244.434 135.706,-235.691"/>
<polygon fill="none" stroke="midnightblue" points="132.206,-262.329 135.706,-272.329 139.206,-262.329 132.206,-262.329"/>
</g>
<!-- Node2 -->
<g id="node3" class="node"><title>Node2</title>
<g id="a_node3"><a xlink:href="../../db/d38/interfaceobject.html" target="_top" xlink:title="基础对象，所有对象均继承于此 ">
<polygon fill="white" stroke="black" points="102.562,-393.5 102.562,-487.5 168.85,-487.5 168.85,-393.5 102.562,-393.5"/>
<text text-anchor="middle" x="135.706" y="-475.5" font-family="Helvetica,sans-Serif" font-size="10.00">object</text>
<polyline fill="none" stroke="black" points="102.562,-469.5 168.85,-469.5 "/>
<text text-anchor="middle" x="135.706" y="-457.5" font-family="Helvetica,sans-Serif" font-size="10.00"> </text>
<polyline fill="none" stroke="black" points="102.562,-451.5 168.85,-451.5 "/>
<text text-anchor="start" x="110.562" y="-439.5" font-family="Helvetica,sans-Serif" font-size="10.00">+ dispose()</text>
<text text-anchor="start" x="110.562" y="-429.5" font-family="Helvetica,sans-Serif" font-size="10.00">+ equals()</text>
<text text-anchor="start" x="110.562" y="-419.5" font-family="Helvetica,sans-Serif" font-size="10.00">+ toString()</text>
<text text-anchor="start" x="110.562" y="-409.5" font-family="Helvetica,sans-Serif" font-size="10.00">+ toJSON()</text>
<text text-anchor="start" x="110.562" y="-399.5" font-family="Helvetica,sans-Serif" font-size="10.00">+ valueOf()</text>
</a>
</g>
</g>
<!-- Node2&#45;&gt;Node1 -->
<g id="edge2" class="edge"><title>Node2&#45;&gt;Node1</title>
<path fill="none" stroke="midnightblue" d="M135.706,-383.061C135.706,-374.219 135.706,-365.225 135.706,-356.806"/>
<polygon fill="none" stroke="midnightblue" points="132.206,-383.327 135.706,-393.327 139.206,-383.327 132.206,-383.327"/>
</g>
</g>
</svg>
