<?xml version="1.0" encoding="UTF-8" standalone="no"?>
<!DOCTYPE svg PUBLIC "-//W3C//DTD SVG 1.1//EN"
 "http://www.w3.org/Graphics/SVG/1.1/DTD/svg11.dtd">
<!-- Generated by graphviz version 2.38.0 (20140413.2041)
 -->
<!-- Title: WebView Pages: 1 -->
<svg width="124pt" height="535pt"
 viewBox="0.00 0.00 124.31 535.00" xmlns="http://www.w3.org/2000/svg" xmlns:xlink="http://www.w3.org/1999/xlink">
<g id="graph0" class="graph" transform="scale(1 1) rotate(0) translate(4 531)">
<title>WebView</title>
<polygon fill="white" stroke="none" points="-4,4 -4,-531 120.312,-531 120.312,4 -4,4"/>
<!-- Node0 -->
<g id="node1" class="node"><title>Node0</title>
<polygon fill="#bfbfbf" stroke="black" points="12.7783,-0.5 12.7783,-144.5 103.534,-144.5 103.534,-0.5 12.7783,-0.5"/>
<text text-anchor="middle" x="58.1562" y="-132.5" font-family="Helvetica,sans-Serif" font-size="10.00">WebView</text>
<polyline fill="none" stroke="black" points="12.7783,-126.5 103.534,-126.5 "/>
<text text-anchor="start" x="20.7783" y="-114.5" font-family="Helvetica,sans-Serif" font-size="10.00">+ visible</text>
<text text-anchor="start" x="20.7783" y="-104.5" font-family="Helvetica,sans-Serif" font-size="10.00">+ onload</text>
<text text-anchor="start" x="20.7783" y="-94.5" font-family="Helvetica,sans-Serif" font-size="10.00">+ onmove</text>
<text text-anchor="start" x="20.7783" y="-84.5" font-family="Helvetica,sans-Serif" font-size="10.00">+ onresize</text>
<text text-anchor="start" x="20.7783" y="-74.5" font-family="Helvetica,sans-Serif" font-size="10.00">+ onclose</text>
<text text-anchor="start" x="20.7783" y="-64.5" font-family="Helvetica,sans-Serif" font-size="10.00">+ onmessage</text>
<polyline fill="none" stroke="black" points="12.7783,-58.5 103.534,-58.5 "/>
<text text-anchor="start" x="20.7783" y="-46.5" font-family="Helvetica,sans-Serif" font-size="10.00">+ setHtml()</text>
<text text-anchor="start" x="20.7783" y="-36.5" font-family="Helvetica,sans-Serif" font-size="10.00">+ print()</text>
<text text-anchor="start" x="20.7783" y="-26.5" font-family="Helvetica,sans-Serif" font-size="10.00">+ close()</text>
<text text-anchor="start" x="20.7783" y="-16.5" font-family="Helvetica,sans-Serif" font-size="10.00">+ wait()</text>
<text text-anchor="start" x="20.7783" y="-6.5" font-family="Helvetica,sans-Serif" font-size="10.00">+ postMessage()</text>
</g>
<!-- Node1 -->
<g id="node2" class="node"><title>Node1</title>
<g id="a_node2"><a xlink:href="../../dd/df3/interfaceEventEmitter.html" target="_top" xlink:title="事件触发对象，可用于建立观察者模式，支持事件触发的对象均继承于此，同一事件的同一函数只会产生一次回调 ...">
<polygon fill="white" stroke="black" points="0,-181.5 0,-395.5 116.312,-395.5 116.312,-181.5 0,-181.5"/>
<text text-anchor="middle" x="58.1562" y="-383.5" font-family="Helvetica,sans-Serif" font-size="10.00">EventEmitter</text>
<polyline fill="none" stroke="black" points="0,-377.5 116.312,-377.5 "/>
<text text-anchor="middle" x="58.1562" y="-365.5" font-family="Helvetica,sans-Serif" font-size="10.00"> </text>
<polyline fill="none" stroke="black" points="0,-359.5 116.312,-359.5 "/>
<text text-anchor="start" x="8" y="-347.5" font-family="Helvetica,sans-Serif" font-size="10.00">+ EventEmitter()</text>
<text text-anchor="start" x="8" y="-337.5" font-family="Helvetica,sans-Serif" font-size="10.00">+ on()</text>
<text text-anchor="start" x="8" y="-327.5" font-family="Helvetica,sans-Serif" font-size="10.00">+ on()</text>
<text text-anchor="start" x="8" y="-317.5" font-family="Helvetica,sans-Serif" font-size="10.00">+ addListener()</text>
<text text-anchor="start" x="8" y="-307.5" font-family="Helvetica,sans-Serif" font-size="10.00">+ addListener()</text>
<text text-anchor="start" x="8" y="-297.5" font-family="Helvetica,sans-Serif" font-size="10.00">+ once()</text>
<text text-anchor="start" x="8" y="-287.5" font-family="Helvetica,sans-Serif" font-size="10.00">+ once()</text>
<text text-anchor="start" x="8" y="-277.5" font-family="Helvetica,sans-Serif" font-size="10.00">+ off()</text>
<text text-anchor="start" x="8" y="-267.5" font-family="Helvetica,sans-Serif" font-size="10.00">+ off()</text>
<text text-anchor="start" x="8" y="-257.5" font-family="Helvetica,sans-Serif" font-size="10.00">+ off()</text>
<text text-anchor="start" x="8" y="-247.5" font-family="Helvetica,sans-Serif" font-size="10.00">+ removeListener()</text>
<text text-anchor="start" x="8" y="-237.5" font-family="Helvetica,sans-Serif" font-size="10.00">+ removeListener()</text>
<text text-anchor="start" x="8" y="-227.5" font-family="Helvetica,sans-Serif" font-size="10.00">+ removeListener()</text>
<text text-anchor="start" x="8" y="-217.5" font-family="Helvetica,sans-Serif" font-size="10.00">+ removeAllListeners()</text>
<text text-anchor="start" x="8" y="-207.5" font-family="Helvetica,sans-Serif" font-size="10.00">+ setMaxListeners()</text>
<text text-anchor="start" x="8" y="-197.5" font-family="Helvetica,sans-Serif" font-size="10.00">+ listeners()</text>
<text text-anchor="start" x="8" y="-187.5" font-family="Helvetica,sans-Serif" font-size="10.00">+ emit()</text>
</a>
</g>
</g>
<!-- Node1&#45;&gt;Node0 -->
<g id="edge1" class="edge"><title>Node1&#45;&gt;Node0</title>
<path fill="none" stroke="midnightblue" d="M58.1562,-171.191C58.1562,-162.134 58.1562,-153.167 58.1562,-144.552"/>
<polygon fill="none" stroke="midnightblue" points="54.6563,-171.44 58.1562,-181.44 61.6563,-171.44 54.6563,-171.44"/>
</g>
<!-- Node2 -->
<g id="node3" class="node"><title>Node2</title>
<g id="a_node3"><a xlink:href="../../db/d38/interfaceobject.html" target="_top" xlink:title="基础对象，所有对象均继承于此 ">
<polygon fill="white" stroke="black" points="25.0122,-432.5 25.0122,-526.5 91.3003,-526.5 91.3003,-432.5 25.0122,-432.5"/>
<text text-anchor="middle" x="58.1562" y="-514.5" font-family="Helvetica,sans-Serif" font-size="10.00">object</text>
<polyline fill="none" stroke="black" points="25.0122,-508.5 91.3003,-508.5 "/>
<text text-anchor="middle" x="58.1562" y="-496.5" font-family="Helvetica,sans-Serif" font-size="10.00"> </text>
<polyline fill="none" stroke="black" points="25.0122,-490.5 91.3003,-490.5 "/>
<text text-anchor="start" x="33.0122" y="-478.5" font-family="Helvetica,sans-Serif" font-size="10.00">+ dispose()</text>
<text text-anchor="start" x="33.0122" y="-468.5" font-family="Helvetica,sans-Serif" font-size="10.00">+ equals()</text>
<text text-anchor="start" x="33.0122" y="-458.5" font-family="Helvetica,sans-Serif" font-size="10.00">+ toString()</text>
<text text-anchor="start" x="33.0122" y="-448.5" font-family="Helvetica,sans-Serif" font-size="10.00">+ toJSON()</text>
<text text-anchor="start" x="33.0122" y="-438.5" font-family="Helvetica,sans-Serif" font-size="10.00">+ valueOf()</text>
</a>
</g>
</g>
<!-- Node2&#45;&gt;Node1 -->
<g id="edge2" class="edge"><title>Node2&#45;&gt;Node1</title>
<path fill="none" stroke="midnightblue" d="M58.1562,-422.214C58.1562,-413.755 58.1562,-404.805 58.1562,-395.708"/>
<polygon fill="none" stroke="midnightblue" points="54.6563,-422.265 58.1562,-432.265 61.6563,-422.265 54.6563,-422.265"/>
</g>
</g>
</svg>
